<?xml version="1.0" encoding="UTF-8"?>
<!DOCTYPE svg PUBLIC "-//W3C//DTD SVG 1.1//EN" "http://www.w3.org/Graphics/SVG/1.1/DTD/svg11.dtd">
<!-- Creator: CorelDRAW 2020 -->
<svg xmlns="http://www.w3.org/2000/svg" xml:space="preserve" width="128" height="128" version="1.1" style="shape-rendering:geometricPrecision; text-rendering:geometricPrecision; image-rendering:optimizeQuality; fill-rule:evenodd; clip-rule:evenodd"
viewBox="0 0 558.883 551.386"
 xmlns:xlink="http://www.w3.org/1999/xlink"
 xmlns:xodm="http://www.corel.com/coreldraw/odm/2003" >
 <defs>
  <style type="text/css">
   <![CDATA[
    .fil0 {fill:#FFF212}
   ]]>
  </style>
 </defs>
 <g id="Layer_x0020_1">
  <metadata id="CorelCorpID_0Corel-Layer"/>
  <path class="fil0" d="M4.797 25.325c0.554,6.678 0.974,3.086 0.974,13.642 0,8.446 -7.177,2.314 5.026,18.358 10.031,13.188 -4.543,1.919 11.284,15.993 17.314,15.398 20.982,11.902 33.957,31.313 3.721,5.567 4.49,4.771 5.576,12.931 1.576,11.847 3.303,23.334 -5.572,34.021 -6.651,8.01 -17.301,8.814 -23.792,16.149 -2.81,3.175 -1.77,2.581 -2.999,6.745 -8.868,30.052 -11.826,18.356 -25.219,48.933 -2.101,4.796 1.878,7.615 3.719,12.312 1.622,4.137 0.422,10.856 7.762,29.257 4.732,11.864 3.839,11.908 10.383,26.636 2.127,4.787 3.601,8.036 5.622,12.887 3.404,8.171 7.701,18.487 14.198,22.826 6.872,-4.59 11.378,-9.961 17.298,-15.828 9.763,-9.675 21.361,-25.53 32.153,-35.066 5.564,-4.917 14.399,-9.956 17.771,-16.324 9.26,0 14.759,-1.948 23.38,-1.948 -0.483,-5.821 -3.896,-4.609 -3.896,-9.746 0,-2.336 1.58,-2.861 2.923,-4.871 -1.317,-1.97 -2.578,-3.879 -3.897,-5.845 2.136,-3.183 3.86,-3.029 4.87,-6.819 -1.648,-2.469 -5.845,-5.272 -5.845,-7.794 0,-3.236 4.83,-3.974 7.421,-7.188 5.994,-7.435 5.244,-9.263 5.244,-17.166 0,-14.458 -1.432,-29.561 -2.883,-42.905 -0.619,-5.699 -3.965,-11.397 -6.023,-16.384 -9.139,-22.142 -9.923,-14.188 4.308,-49.544 1.469,-3.649 2.728,-6.163 3.624,-10.021 -4.489,0 -4.392,-0.298 -8.027,-4.637 -6.171,-7.364 -11.457,-19.458 -11.457,-29.459 -7.639,-1.779 -27.489,-14.795 -42.006,-19.37 -43.796,-13.802 -27.366,-14.121 -38.854,-22.52 -13.363,3.109 -26.26,14.225 -37.023,21.432z"/>
  <path class="fil0" d="M246.397 338.04l-6.085 15.348c-1.309,3.07 -6.399,7.215 -9.405,13.077 -1.586,3.09 0.877,7.367 0.877,17.362 0,6.195 -6.687,17.046 -7.696,25.426 -0.716,5.945 0.614,10.483 -0.895,15.666 -1.258,4.326 -3.182,7.989 -5.047,11.514 4.488,6.703 38.206,40.893 45.521,48 2.618,2.543 4.821,3.75 7.864,5.774 2.751,1.829 4.704,3.335 7.681,4.984 16.603,9.197 9.71,6.346 21.046,19.869 4.853,5.791 9.701,6.685 13.387,13.891 2.088,4.084 7.781,14.427 8.738,18.538 4.778,-1.113 5.111,-2.944 10.676,-3.936 25.589,-4.563 27.501,5.085 39.605,-3.259 3.198,-2.205 6.068,-3.494 8.208,-6.405 28.954,-39.392 5.807,-41.219 5.807,-63.36 0,-13.93 4.515,-32.49 2.307,-43.223 -0.939,-4.567 -0.254,-4.528 -12.042,-10.364l-40.596 -19.803c-10.687,-8.952 -9.353,-8.782 -12.02,-18.18 -4.133,-14.563 -1.991,-44.948 1.037,-59.567 0.487,-2.35 2.195,-3.294 -2.211,-2.212 -4.443,1.091 -5.835,4.532 -7.851,7.935 -3.635,6.135 -4.194,1.944 -8.257,6.356 -3.421,3.714 -2.736,6.569 -9.992,6.569 -7.617,0 -6.288,-9.987 -16.371,-28.44 -11.294,-20.668 3.324,-17.601 4.681,-33.907 -10.581,-7.086 -4.555,-1.949 -10.716,-1.949 -8.302,0 -3.178,-7.648 -2.922,-10.715 -3.265,0.872 -3.988,2.922 -6.819,2.922 -4.295,0 -1.114,-2.117 -4.871,-4.871l-4.442 19.913c-1.349,6.977 -4.089,11.838 -7.651,16.704 -6.252,8.541 -6.153,4.915 -4.301,17.769 0.963,6.682 2.755,15.05 2.755,22.574z"/>
  <path class="fil0" d="M146.053 206.522c-0.329,3.957 -2.918,7.212 -4.877,9.737l-3.293 3.526c-1.637,1.5 -2.854,2.2 -4.494,3.298 2.447,3.674 5.845,4.456 5.845,8.772 0,2.417 -2.437,3.659 -3.897,5.845 2.014,3.015 2.913,2.169 3.897,5.845l-4.079 4.7c2.459,8.113 5.474,2.667 3.104,12.832 -9.271,0 -14.773,1.948 -24.354,1.948 -1.201,4.498 -12.692,12.208 -16.708,15.44 -7.237,5.826 -13.649,14.156 -19.624,21.292l-14.72 15.479c-0.142,0.141 -0.342,0.349 -0.481,0.494 -0.138,0.145 -0.329,0.361 -0.466,0.508 -3.204,3.465 -9.286,10.993 -13.271,12.057 4.698,7.051 14.909,2.757 30.155,3.953 4.445,0.348 9.572,1.408 14.392,2.168 8.508,1.34 6.289,0.166 11.708,5.823 6.421,6.703 11.671,6.623 22.63,11.469 3.77,1.668 7.768,3.266 11.715,4.846 9.24,3.698 27.095,9.616 32.49,19.139 9.367,16.534 -0.482,2.745 13.306,20.791 5.383,7.047 25.709,34.365 31.17,38.004 0.931,-3.996 3.099,-6.582 4.297,-11.292 2.343,-9.208 -2.747,-8.219 4.461,-27.687 7.741,-20.908 1.958,-14.561 1.958,-28.243l9.461 -12.942c1.403,-2.019 2.085,-5.289 3.18,-7.537 0.4,-0.821 3.92,-7.599 3.92,-7.773 0,-11.94 -3.896,-22.155 -3.896,-34.096 0,-2.83 10.051,-11.642 12.618,-22.451 2.845,-11.98 1.398,-13.109 6.387,-24.785 1.904,-4.459 1.453,3.579 1.453,-10.24 0,-1.612 -4.429,-7.996 -5.642,-8.976 -2.096,-1.695 -8.431,-2.88 -11.154,-3.46l-23.023 -6.202c-27.268,-9.118 -14.944,3.748 -28.931,-14.904 -6.273,-8.365 -6.262,-6.462 -6.262,-13.223 -13.774,0 -34.297,5.457 -38.975,5.845z"/>
  <path class="fil0" d="M262.954 66.244c0,6.256 -1.569,6.747 -4.871,11.69 1.309,4.91 5.846,7.117 5.846,11.691 0,4.978 -9.477,3.846 -13.639,5.841 7.586,10.404 21.718,8.462 32.177,13.618 15.624,7.702 8.543,11.174 -1.676,16.882 -8.56,4.781 -9.066,3.898 -11.992,9.449 8.784,2.045 12.827,8.525 16.561,15.587 14.311,-7.542 18.612,-8.881 31.161,-14.632 1.392,-0.638 2.984,-1.715 4.566,-2.254 4.132,-1.409 30.729,-1.626 36.974,-2.966 5.195,-1.113 5.114,-3.529 11.083,-3.529 17.652,0 21.916,8.813 51.558,2.849 30.727,-6.183 16.871,0.074 38.066,0.074 10.328,0 29.398,-5.589 39.909,-5.878 16.361,-0.45 15.403,0.699 30.609,-4.463 3.605,-1.224 5.174,-2.23 9.369,-2.323 -3.76,-5.644 -5.546,-3.869 -9.103,-10.387 -7.519,-13.774 -0.907,-5.496 -10.939,-18.287 -13.162,-16.782 -13.08,-9.501 -13.08,-27.837 -12.368,0 -30.701,2.189 -37.3,1.229 -10.824,-1.574 -18.812,4.617 -27.974,4.617 -6.845,0 -11.65,-1.295 -18.236,-2.288 -12.199,-1.837 -5.107,4.951 -42.413,-2.332l-42.621 -8.035c-11.964,-4.31 -6.401,0.305 -17.204,-5.202l-39.558 -18.983c-3.725,-1.282 -2.339,-0.859 -9.477,2.742 -2.561,1.292 -7.445,3.313 -9.502,5.114 -0.564,0.494 -6.037,7.952 -6.198,8.321 -3.64,8.371 7.904,15.638 7.904,19.692z"/>
  <path class="fil0" d="M1.878 23.38l0.974 14.613c0,9.273 -7.175,4.264 5.026,20.303 5.047,6.633 2.446,8.688 6.22,12.289 6.367,6.075 13.635,11.164 20.628,16.391 9.852,7.364 10.834,7.297 18.004,18.041 3.311,4.963 4.901,5.376 5.851,12.658 1.733,13.27 3.285,16.633 -3.399,30.125 -4.767,9.621 -20.952,10.188 -27.123,20.611 -3.332,5.629 -4.399,15.063 -7.072,21.18 -1.722,3.941 -8.385,10.132 -14.881,23.112 -11.838,23.651 -3.323,10.676 -0.448,27.062l3.655 16.803c5.172,14.924 21.823,62.914 33.107,72.104 1.39,1.132 1.46,1.036 2.888,1.983 1.722,1.142 4.852,3.536 6.654,4.062 3.929,1.148 14.382,0.419 19.089,0.395 7.694,-0.04 12.463,0.797 18.651,1.807 18.092,2.953 8.789,6.46 27.129,13.786 11.612,4.638 23.643,10.523 35.309,14.374 4.294,1.417 3.732,1.004 7.157,3.559 15.464,11.538 8.142,10.823 17.618,22.324 12.1,14.687 22.638,31.294 36.116,44.74 1.809,1.804 3.178,3.015 4.884,4.859l24.829 26.802c15.993,15.993 19.504,21.823 38.05,32.09 1.817,1.006 5.324,2.949 6.701,4.016 2.202,1.709 6.727,8.406 8.576,10.907l10.463 9.995c5.062,4.23 8.033,13.173 11.004,19.195 1.407,2.851 1.684,5.293 2.897,7.82 4.659,-0.388 6.157,-2.507 9.72,-3.918 1.974,-0.783 8.363,-1.937 11.3,-2.403 16.313,-2.588 23.346,8.303 39.5,-7.196l6.308 -8.305c23.678,-35.619 2.338,-39.827 2.338,-58.061 0,-9.821 7.107,-43.633 -0.203,-50.453 -1.725,-1.609 -7.651,-5.117 -10.173,-6.389 -4.017,-2.028 -7.321,-3.626 -11.052,-5.509 -12.721,-6.423 -27.122,-9.864 -36.836,-20.64 -6.382,-7.079 -6.031,-24.949 -6.031,-33.91 0,-11.046 1.47,-18.915 1.933,-29.241 0.451,-10.036 8.388,-8.355 14.241,-13.036 3.785,-3.028 6.284,-7.12 9.47,-10.988 4.801,-5.827 7.199,-13.51 11.038,-20.136 1.902,-3.282 5.04,-6.245 7.156,-9.405 14.825,7.845 11.583,2.367 21.616,0.185 9.311,-2.024 11.809,-9.18 21.991,-19.899 2.966,-3.123 5.016,-7.211 7.354,-11.155 4.746,-8.007 9.356,-15.269 13.053,-23.966 5.198,-12.233 10.237,-11.936 21.097,-15.922 10.256,-3.764 21.088,-4.122 31.71,-5.309 5.546,-0.62 10.285,-1.902 16.608,-1.901 7.885,0.001 10.439,0.397 16.946,-1.564 5.045,-1.521 10.049,-2.543 14.393,-4.117 14.275,-5.173 13.732,-4.872 20.754,-16.264 7.046,-11.429 3.804,-17.429 0.739,-29.846 -2.703,-10.948 -5.556,-16.81 -13.088,-24.906 -11.726,-12.604 -7.567,-7.302 -15.653,-22.34 -3.733,-6.943 -10.292,-11.719 -14.917,-18.205 -10.429,-14.627 7.532,-18.136 -14.986,-18.136 -6.643,0 -10.991,0.413 -17.253,1.269 -7.205,0.986 -8.942,-0.295 -16.843,-0.295 -17.171,0 -5.009,8.015 -40.494,2.455 -13.198,-2.067 -3.552,5.192 -44.009,-2.706 -12.297,-2.4 -25.51,-3.863 -37.97,-6.842 -2.461,-0.588 -2.778,-1.271 -5.734,-2.06 -2.995,-0.798 -4.05,-0.279 -6.946,-0.846l-52.244 -24.717c-4.253,-3.284 -8.462,-13.583 -12.076,-18.124 -2.961,-3.721 -7.017,-2.749 -12.2,-3.386 -30.819,-3.792 -34.829,-5.319 -59.488,7.178 -16.74,8.484 -16.387,9.293 -34.921,13.789 -7.339,1.78 -6.219,0.774 -11.892,4.668 -2.062,1.415 -2.716,1.704 -4.812,2.982 -4.462,2.72 -10.338,11.048 -15.254,11.048 -5.542,0 -33.719,-16.451 -42.979,-19.369 -9.875,-3.113 -25.826,-6.29 -32.069,-14.692l-6.783 -8.803c-5.031,1.173 -11.288,4.83 -16.306,7.074 -5.393,2.412 -9.796,6.353 -14.675,9.68 -3.821,2.606 -5.77,4.422 -9.935,6.626z"/>
  <path class="fil0" d="M125.595 45.783c4.229,-0.352 2.925,-0.639 5.657,-3.11l13.834 -10.522c6.57,-4.429 4.036,-3.075 11.69,-4.873 24.077,-5.655 15.795,-3.895 35.7,-13.982 33.677,-17.067 28.42,-6.48 67.564,-6.48 2.071,3.918 4.44,7.108 6.829,10.706 2.332,3.512 4.456,7.202 6.809,10.733 -17.583,9.298 -10.65,2.762 -19.955,15.141 -2.615,3.478 -2.5,1.283 -2.14,5.836 0.15,1.891 0.843,6.058 1.497,7.407 1.209,2.494 6.96,7.787 6.96,10.58 0,5.518 -4.871,7.36 -4.871,10.715 0,4.576 4.537,6.779 5.845,11.694 -2.791,1.338 -5.579,1.082 -8.739,1.98 -4.286,1.218 -2.596,1.68 -5.575,4.164 -3.206,2.674 -2.755,1.339 -7.779,1.966 -7.929,0.989 -10.359,1.467 -18.552,-3.516 -3.662,-2.229 -2.468,-1.968 -4.867,-7.801 -1.312,-3.191 -8.109,-14.328 -10.995,-14.328 -2.917,0 -12.217,3.301 -16.178,4.278 -3.962,0.978 -4.251,1.017 -7.221,2.52 -1.485,0.752 -5.045,2.944 -6.8,2.944 -6.076,0 -20.69,-3.027 -27.984,-4.165 -7.472,-1.167 -6.912,-0.168 -11.008,-5.556 -0.942,-1.239 -1.271,-1.495 -2.188,-2.683 -2.129,-2.762 -2.076,-3.728 -3.275,-7.443 -1.858,-5.754 -4.258,-9.53 -4.258,-16.205z"/>
  <path class="fil0" d="M174.304 84.75c3.752,-0.312 5.094,-1.575 7.774,-2.943 2.961,-1.511 3.269,-1.545 7.223,-2.521 5.62,-1.387 10.071,-3.084 15.21,-4.278 1.719,2.567 4.214,5.244 5.815,7.825 6.55,10.553 0.868,10.589 10.383,14.943 2.897,1.325 5.856,3.535 9.127,3.535l16.029 -1.504c3.255,-0.934 -0.527,-0.358 3.458,-1.418 4.984,6.805 11.313,7.686 18.706,9.543 14.206,3.569 16.833,6.219 20.262,7.017l0 3.905c-3.952,0.92 -5.71,2.677 -9.104,4.536 -12.659,6.933 -15.251,7.861 -15.251,23.715 -13.989,1.163 -34.051,13.287 -47.617,-4.022l-18.41 -20.557c-2.976,-3.008 -4.134,-5.199 -7.279,-8.308 -10.701,-10.58 -7.312,-5.86 -13.75,-17.425 -3.254,-5.847 -2.576,-3.486 -2.576,-12.043z"/>
  <path class="fil0" d="M130.466 120.799c0,-2.372 5.912,-16.756 7.239,-20.04l7.374 -19.906c5.307,0 22.829,3.202 26.31,4.871 0,4.825 -0.636,6.079 1.117,9.6 1.098,2.205 2.568,4.719 3.725,6.991 2.485,4.877 26.461,27.934 29.254,32.126 -10.681,0.888 -13.752,6.34 -22.361,9.787l-29.274 2.877c-5.281,0 -1.096,-1.99 -6.822,-0.071 -2.018,0.676 -3.24,1.414 -5.846,2.02 -2.1,-9.021 -10.716,-22.312 -10.716,-28.255z"/>
  <path class="fil0" d="M150.462 149.706c16.061,0.255 11.767,-1.305 27.797,-1.579 9.261,-0.159 14.422,-7.101 21.644,-9.528 2.314,-0.777 5.764,-1.243 8.505,-1.243 3.547,5.297 9.907,11.581 10.716,14.616 -3.445,5.157 -11.603,7.743 -15.666,14.536 -5.125,8.568 -17.251,22.009 -17.456,31.255 -8.265,0 -13.573,1.149 -21.136,2.247l-18.813 3.598c0,-20.986 -2.923,-39.305 -2.923,-51.64l7.332 -2.262z"/>
  <path class="fil0" d="M265.877 150.02c1.047,-4.492 0.974,-6.03 0.974,-11.69 9.395,0.78 12.445,8.432 16.569,14.62 -2.404,0.642 -8.768,4.11 -8.768,6.816 0,12.31 8.696,16.26 2.418,28.723 -1.534,3.045 -4.366,3.286 -4.366,6.347 0,7.369 4.871,6.049 4.871,12.664 0,3.348 -6.451,9.293 -10.967,14.366 -3.488,3.917 -7.699,8.785 -10.466,12.915 -16.559,-1.374 -39.155,-12.664 -55.535,-12.664 -6.733,-12.733 -20.143,-16.792 -7.409,-34.693 10.471,-14.718 14.226,-24.067 29.819,-34.482 3.403,0.793 3.283,1.949 6.819,1.949 27.438,0 25.196,-4.629 36.041,-4.871z"/>
  <path class="fil0" d="M459.743 133.459c-8.666,0 -20.585,-3.502 -26.712,-2.433 -17.34,3.025 -13.826,4.381 -33.695,4.381 -10.661,0 -20.175,-4.871 -30.192,-4.871 -3.976,0 -6.676,3.004 -10.929,3.686l-29.014 2.158c-8.516,0.061 -6.355,0.573 -12.387,3.202 -67,29.204 -26.046,18.886 -36.285,48.472 -1.045,3.02 -0.033,1.088 -2.226,3.617 -7.527,8.684 2.187,3.3 2.187,17.778 0,1.831 -9.532,11.743 -11.44,13.886 -2.1,2.359 -3.718,4.391 -5.794,6.87 -2.666,3.184 -2.594,4.138 -6.147,6.517 10.291,15.444 2.767,4.718 7.794,26.311 0.093,-0.025 9.742,-6.939 9.742,0.97 0,3.536 -1.157,3.414 -1.949,6.823 6.058,-0.135 3.955,-1.948 5.849,-1.948 3.835,0 9.738,5.147 9.738,6.815 0,17.249 -14.983,11.733 -5.361,31.666 3.834,7.941 5.543,8.989 8.653,18.624 2.366,7.33 1.738,9.139 7.428,9.139 3.917,0 4.837,-6.197 8.424,-8.14 4.784,-2.59 1.664,2.108 5.352,-3.418 3.294,-4.936 3.056,-9.876 14.676,-9.23 18.284,1.015 28.01,-29.455 32.771,-35.87 13.636,-18.372 7.489,-5.69 19.634,-5.69 3.312,0 3.973,-1.075 6.385,-2.385 5.886,-3.193 6.712,0.747 11.857,-5.679 17.278,-21.582 20.252,-23.019 32.745,-50.062 5.204,-11.266 5.312,-10.274 20.989,-16.026 1.279,-0.469 4.978,-2 6.408,-2.359l24.08 -3.197c5.748,-0.691 11.206,-1.863 16.38,-2.128 6.866,-0.354 11.755,0.624 17.584,-0.927 9.607,-2.558 18.58,-5.322 27.164,-8.882 3.627,-1.504 2.63,-0.654 4.693,-4.077 1.453,-2.409 2.096,-3.695 3.602,-6.139 7.825,-12.693 3.373,-17.443 -0.977,-34.954 -1.324,-5.331 -7.565,-15.164 -11.145,-15.164 -7.238,0 -18.934,6.677 -27.232,6.864 -20.228,0.456 -9.438,-0.903 -32.194,2.877 -6.139,1.02 -13.866,2.923 -20.456,2.923z"/>
 </g>
</svg>
