<svg
	xmlns="http://www.w3.org/2000/svg"
	xmlns:xlink="http://www.w3.org/1999/xlink" viewBox="0 0 271.11 271.11">
	<defs>
		<style>.cls-1{fill:url(#linear-gradient);}.cls-2{isolation:isolate;}.cls-3{fill:url(#linear-gradient-2);}.cls-4{mask:url(#mask);}.cls-5,.cls-6{fill:#fff;}.cls-5{opacity:0.51;mix-blend-mode:soft-light;}.cls-7{font-size:10px;font-family:Ebrima;}.cls-7,.cls-8{fill:#d1d3d4;}.cls-8{font-size:12.95px;font-family:CenturySchoolbook, Century Schoolbook;}.cls-9{font-size:8.98px;}</style>
		<linearGradient id="linear-gradient" x1="142.91" y1="7.75" x2="142.91" y2="166.45" gradientUnits="userSpaceOnUse">
			<stop offset="0" stop-color="#fff"/>
			<stop offset="0.12" stop-color="#cfcece"/>
			<stop offset="0.28" stop-color="#9b999a"/>
			<stop offset="0.42" stop-color="#706d6e"/>
			<stop offset="0.57" stop-color="#4e4b4c"/>
			<stop offset="0.7" stop-color="#363334"/>
			<stop offset="0.83" stop-color="#282425"/>
			<stop offset="0.93" stop-color="#231f20"/>
		</linearGradient>
		<linearGradient id="linear-gradient-2" x1="32.41" y1="28.4" x2="232.41" y2="236.18" gradientUnits="userSpaceOnUse">
			<stop offset="0" stop-color="#0e57a4"/>
			<stop offset="1" stop-color="#27336f"/>
		</linearGradient>
		<mask id="mask" x="-8.58" y="9.05" width="302.99" height="158.25" maskUnits="userSpaceOnUse">
			<rect class="cls-1" x="-8.58" y="9.05" width="302.99" height="158.25"/>
		</mask>
	</defs>
	<title>ከንቲባ Logo</title>
	<g class="cls-2">
		<g id="Layer_2" data-name="Layer 2">
			<g id="Layer_1-2" data-name="Layer 1">
				<circle class="cls-3" cx="135.56" cy="135.56" r="135.56"/>
				<g class="cls-4">
					<path class="cls-5" d="M257.29,135.48l-111.15,2.68,110.15-18.23a120.28,120.28,0,0,0-3.45-17.07l-107.36,32.5L247.66,88a122.58,122.58,0,0,0-8-15.6l-95.55,60.41,86.46-73.37a122.14,122.14,0,0,0-12-12.92l-76.47,84.22,64.15-94.31a121,121,0,0,0-15.11-9.22L139.64,129.32,176.47,20.88a120.69,120.69,0,0,0-17.11-4.72L136.87,128.57l6.6-114.48q-3.93-.25-7.91-.26-5,0-9.86.39L134,128.59l-24.14-112a121.78,121.78,0,0,0-17,5l38.41,107.83-53-101.24a121.13,121.13,0,0,0-15,9.45l65.48,93.28-77.64-83A122,122,0,0,0,39.36,61l87.45,72L30.5,74.05a119.83,119.83,0,0,0-7.75,15.7l102.73,45.76L17.79,104.64a122.23,122.23,0,0,0-3.18,17.1l110.26,16.57-111-1a123.43,123.43,0,0,0,1.44,17.21l120.22-14.58,120.57,12.81a123,123,0,0,0,1.21-17.16Z"/>
				</g>
				<path class="cls-6" d="M135.56,258.05A122.5,122.5,0,1,1,258.05,135.56,122.63,122.63,0,0,1,135.56,258.05Zm0-243.46a121,121,0,1,0,121,121A121.11,121.11,0,0,0,135.56,14.59Z"/>
				<path class="cls-6" d="M213.53,126.49l.76,21.39a.06.06,0,0,1-.08.06l-2.18-.51a.06.06,0,0,1-.05-.06l-.75-21.09a.07.07,0,0,1,.07-.06l2.17.21A.06.06,0,0,1,213.53,126.49Z"/>
				<path class="cls-6" d="M211.08,120l2.18.12a.06.06,0,0,1,.05.06l.11,3.1a.06.06,0,0,1-.06.06l-2.18-.17s-.05,0-.06-.06l-.1-3.05A.06.06,0,0,1,211.08,120Z"/>
				<path class="cls-6" d="M208.14,122.92l-.1-3a.06.06,0,0,1,.06-.06l2.18.12a.06.06,0,0,1,.05.06l.11,3a.07.07,0,0,1-.07.06L208.2,123A.06.06,0,0,1,208.14,122.92Z"/>
				<path class="cls-6" d="M210.54,126.2l.75,21a.06.06,0,0,1-.08.06l-2.18-.51a.06.06,0,0,1-.05-.06L208.25,126a.06.06,0,0,1,.06-.06l2.18.21A.06.06,0,0,1,210.54,126.2Z"/>
				<path class="cls-6" d="M207.56,125.91l.73,20.57a.06.06,0,0,1-.07.06L206,146A.06.06,0,0,1,206,146l-.72-20.26a.06.06,0,0,1,.07-.06l2.17.21A.06.06,0,0,1,207.56,125.91Z"/>
				<path class="cls-6" d="M205.16,122.69l-.1-2.93a.06.06,0,0,1,.06-.06l2.18.12a.06.06,0,0,1,0,.06l.1,3a.06.06,0,0,1-.06.06l-2.18-.17A.06.06,0,0,1,205.16,122.69Z"/>
				<path class="cls-6" d="M204.57,125.63l.72,20.15a.06.06,0,0,1-.07.06l-2.19-.51a.06.06,0,0,1-.05-.06l-.7-19.85a.06.06,0,0,1,.06-.06l2.18.21A.06.06,0,0,1,204.57,125.63Z"/>
				<path class="cls-6" d="M202.18,122.46l-.1-2.87s0-.07.06-.06l2.17.12a.06.06,0,0,1,.06.06l.1,2.92a.06.06,0,0,1-.06.06l-2.18-.17A.06.06,0,0,1,202.18,122.46Z"/>
				<path class="cls-6" d="M201.59,125.34l.7,19.74a.06.06,0,0,1-.07.06l-2.19-.51a.06.06,0,0,1-.05-.06l-.69-19.44a.07.07,0,0,1,.07-.06l2.17.21S201.59,125.31,201.59,125.34Z"/>
				<path class="cls-6" d="M199.19,122.23l-.09-2.81a0,0,0,0,1,.06-.06l2.17.12a.06.06,0,0,1,.06.06l.1,2.86a.07.07,0,0,1-.07.06l-2.17-.17A.06.06,0,0,1,199.19,122.23Z"/>
				<path class="cls-6" d="M196.21,122l-.1-2.75a.07.07,0,0,1,.07-.07l2.17.13a.06.06,0,0,1,.06.06l.09,2.8a.06.06,0,0,1-.06.06l-2.18-.17A.06.06,0,0,1,196.21,122Z"/>
				<path class="cls-6" d="M198.6,125.05l.69,19.33a.06.06,0,0,1-.07.06l-2.19-.51s0,0-.05-.06l-.67-19s0-.07.06-.06l2.18.21A0,0,0,0,1,198.6,125.05Z"/>
				<path class="cls-6" d="M195.62,124.77l.67,18.91a.06.06,0,0,1-.07.06l-2.19-.51a.05.05,0,0,1,0-.06l-.67-18.61a.07.07,0,0,1,.07-.06l2.17.21A.06.06,0,0,1,195.62,124.77Z"/>
				<path class="cls-6" d="M193.23,121.77l-.1-2.7a.07.07,0,0,1,.07-.06l2.17.13a.06.06,0,0,1,.06,0l.09,2.75a.06.06,0,0,1-.06.06l-2.18-.17A.06.06,0,0,1,193.23,121.77Z"/>
				<path class="cls-6" d="M190.24,121.54l-.09-2.64a.06.06,0,0,1,.06-.06l2.18.13a.06.06,0,0,1,.06,0l.09,2.69a.07.07,0,0,1-.07.06l-2.17-.17A.06.06,0,0,1,190.24,121.54Z"/>
				<path class="cls-6" d="M192.63,124.48l.66,18.5a.06.06,0,0,1-.07.06l-2.19-.51a.07.07,0,0,1,0-.06l-.65-18.2a.06.06,0,0,1,.06-.06l2.18.21A.06.06,0,0,1,192.63,124.48Z"/>
				<path class="cls-6" d="M189.65,124.19l.64,18.09a.06.06,0,0,1-.07.06l-2.19-.51a.07.07,0,0,1,0-.06L187.35,124a.06.06,0,0,1,.07-.06l2.17.21A.06.06,0,0,1,189.65,124.19Z"/>
				<path class="cls-6" d="M187.26,121.31l-.09-2.58a.06.06,0,0,1,.06-.06l2.18.13a0,0,0,0,1,.05,0l.09,2.63s0,.06-.06.06l-2.18-.17A.06.06,0,0,1,187.26,121.31Z"/>
				<path class="cls-6" d="M184.52,121.1l-.08-2.53a.06.06,0,0,1,.06-.06l2.16.13a0,0,0,0,1,.05,0l.09,2.57a.07.07,0,0,1-.07.07l-2.15-.17A.06.06,0,0,1,184.52,121.1Z"/>
				<path class="cls-6" d="M186.89,123.93l.62,17.7a.06.06,0,0,1-.07.06l-2.17-.51s0,0,0-.05l-.62-17.41a.07.07,0,0,1,.07-.06l2.15.21A.06.06,0,0,1,186.89,123.93Z"/>
				<path class="cls-6" d="M181.56,120.87l-.08-2.46a.07.07,0,0,1,.06-.07l2.16.13a0,0,0,0,1,.05,0l.09,2.52a.06.06,0,0,1-.06.06l-2.16-.17A.06.06,0,0,1,181.56,120.87Z"/>
				<path class="cls-6" d="M184.47,141l-2.17-.5a.06.06,0,0,1-.05-.06l-.6-17a.06.06,0,0,1,.07-.06l2.15.21a.06.06,0,0,1,.06,0l.61,17.29A.06.06,0,0,1,184.47,141Z"/>
				<path class="cls-6" d="M56.67,126.49l-.76,21.39a.06.06,0,0,0,.07.06l2.19-.51s0,0,0-.06L59,126.28s0-.06-.06-.06l-2.18.21A.06.06,0,0,0,56.67,126.49Z"/>
				<path class="cls-6" d="M59.11,120l-2.17.12s-.06,0-.06.06l-.1,3.1a.06.06,0,0,0,.06.06l2.18-.17a.06.06,0,0,0,0-.06l.11-3.05A.07.07,0,0,0,59.11,120Z"/>
				<path class="cls-6" d="M62.05,122.92l.11-3a.07.07,0,0,0-.07-.06l-2.17.12a.09.09,0,0,0-.06.06l-.1,3a.06.06,0,0,0,.06.06L62,123A.06.06,0,0,0,62.05,122.92Z"/>
				<path class="cls-6" d="M59.65,126.2l-.74,21a.06.06,0,0,0,.07.06l2.19-.51a.05.05,0,0,0,0-.06L62,126a.07.07,0,0,0-.07-.06l-2.17.21S59.65,126.17,59.65,126.2Z"/>
				<path class="cls-6" d="M62.64,125.91l-.73,20.57a.06.06,0,0,0,.07.06l2.19-.51a.07.07,0,0,0,0-.06l.72-20.26a0,0,0,0,0-.06-.06l-2.18.21A0,0,0,0,0,62.64,125.91Z"/>
				<path class="cls-6" d="M65,122.69l.1-2.93a.06.06,0,0,0-.06-.06l-2.18.12a.06.06,0,0,0,0,.06l-.11,3a.07.07,0,0,0,.07.06l2.17-.17A.06.06,0,0,0,65,122.69Z"/>
				<path class="cls-6" d="M65.62,125.63l-.71,20.15a.06.06,0,0,0,.07.06l2.19-.51a.07.07,0,0,0,0-.06l.71-19.85a.07.07,0,0,0-.07-.06l-2.17.21A.06.06,0,0,0,65.62,125.63Z"/>
				<path class="cls-6" d="M68,122.46l.1-2.87s0-.07-.06-.06l-2.18.12a.06.06,0,0,0,0,.06l-.1,2.92s0,.06.06.06l2.18-.17A.06.06,0,0,0,68,122.46Z"/>
				<path class="cls-6" d="M68.61,125.34l-.7,19.74a.05.05,0,0,0,.07.06l2.19-.51a.07.07,0,0,0,0-.06l.69-19.44s0-.06-.06-.06l-2.18.21A.06.06,0,0,0,68.61,125.34Z"/>
				<path class="cls-6" d="M71,122.23l.1-2.81s0-.07-.06-.06l-2.18.12a.06.06,0,0,0,0,.06l-.1,2.86a.06.06,0,0,0,.06.06l2.18-.17A.06.06,0,0,0,71,122.23Z"/>
				<path class="cls-6" d="M74,122l.09-2.75a.07.07,0,0,0-.06-.07l-2.18.13a.06.06,0,0,0,0,.06l-.1,2.8a.07.07,0,0,0,.07.06l2.17-.17A.06.06,0,0,0,74,122Z"/>
				<path class="cls-6" d="M71.59,125.05l-.68,19.33a.05.05,0,0,0,.07.06l2.19-.51a.07.07,0,0,0,0-.06l.68-19a.06.06,0,0,0-.07-.06l-2.17.21A.06.06,0,0,0,71.59,125.05Z"/>
				<path class="cls-6" d="M74.58,124.77l-.68,18.91a.06.06,0,0,0,.08.06l2.19-.51a.07.07,0,0,0,0-.06l.66-18.61s0-.06-.06-.06l-2.18.21A.06.06,0,0,0,74.58,124.77Z"/>
				<path class="cls-6" d="M77,121.77l.09-2.7A.06.06,0,0,0,77,119l-2.18.13a0,0,0,0,0,0,0l-.09,2.75s0,.06.06.06l2.18-.17A.06.06,0,0,0,77,121.77Z"/>
				<path class="cls-6" d="M80,121.54,80,118.9a.06.06,0,0,0-.06-.06l-2.17.13a.06.06,0,0,0-.06,0l-.09,2.69a.06.06,0,0,0,.06.06l2.18-.17A.06.06,0,0,0,80,121.54Z"/>
				<path class="cls-6" d="M77.56,124.48,76.9,143A.06.06,0,0,0,77,143l2.18-.51a.06.06,0,0,0,0-.06l.65-18.2a.07.07,0,0,0-.07-.06l-2.17.21S77.56,124.45,77.56,124.48Z"/>
				<path class="cls-6" d="M80.55,124.19l-.65,18.09a.06.06,0,0,0,.08.06l2.18-.51a.06.06,0,0,0,0-.06L82.84,124a0,0,0,0,0-.06-.06l-2.18.21A0,0,0,0,0,80.55,124.19Z"/>
				<path class="cls-6" d="M82.94,121.31l.08-2.58s0-.06-.06-.06l-2.17.13a.06.06,0,0,0-.06,0l-.09,2.63a.06.06,0,0,0,.06.06l2.18-.17S82.93,121.34,82.94,121.31Z"/>
				<path class="cls-6" d="M85.67,121.1l.09-2.53a.06.06,0,0,0-.06-.06l-2.16.13a0,0,0,0,0-.05,0l-.09,2.57a.07.07,0,0,0,.06.07l2.16-.17A.06.06,0,0,0,85.67,121.1Z"/>
				<path class="cls-6" d="M83.31,123.93l-.63,17.7a.06.06,0,0,0,.07.06l2.17-.51a.05.05,0,0,0,0-.05l.61-17.41s0-.06-.06-.06l-2.16.21A.06.06,0,0,0,83.31,123.93Z"/>
				<path class="cls-6" d="M88.63,120.87l.09-2.46a.07.07,0,0,0-.07-.07l-2.15.13a.06.06,0,0,0-.06,0L86.36,121a.06.06,0,0,0,.06.06l2.16-.17A.06.06,0,0,0,88.63,120.87Z"/>
				<path class="cls-6" d="M85.73,141l2.17-.5a.07.07,0,0,0,0-.06l.6-17a0,0,0,0,0-.06-.06l-2.16.21a0,0,0,0,0,0,0l-.61,17.29A.06.06,0,0,0,85.73,141Z"/>
				<path class="cls-6" d="M237.82,113.36H196.13l-.78-3.42a4.62,4.62,0,0,0-4.5-3.58H145.11l-1.61-34.7h4.08V65.1h-9.47l1.31-2.33-3.94-4.08-4.66,4.08,1,2.92h-7.58v5.83h3.64L126,106.21H79.91a4.62,4.62,0,0,0-4.57,4l-.5,3.85H33.29l-2.48,40H60.12l27.69-8.89H183.3L210.41,154H240.3ZM119.31,111.8h5.29v2.92h-5.29Zm-6.64,0H118v2.92h-5.29Zm-6.4,0h5.29v2.92h-5.29Zm-6.48,0h5.29v2.92H99.79Zm-51.5,36.43a.82.82,0,0,1-.82.79H37.71a.82.82,0,0,1-.82-.87l1.17-20.7a.82.82,0,0,1,.82-.78h9.49a.82.82,0,0,1,.82.86Zm41.49-7.91a.84.84,0,0,1-.64.82l-33.25,8.24a.85.85,0,0,1-1-.86L56.07,120a.85.85,0,0,1,.8-.81l32-2a.85.85,0,0,1,.9.84Zm2.8-28.52h5.29v2.92H92.58Zm34.08,30.25a1,1,0,0,1-1,1H93.9a1,1,0,0,1-1-1l-.31-18.58a1,1,0,0,1,1-1h32.06a1,1,0,0,1,1,1Zm-.76-72.43V67.4h6.7v1.24h5.62V67.4h6.52v2.08h-4s-2.7,2.36-5.45,2.36a7.21,7.21,0,0,1-4.87-2.22Zm13.93,73.6h-9.18a1.14,1.14,0,0,1-1.14-1.19l2.91-68.11a1.15,1.15,0,0,1,1.15-1.09h3.15a1.15,1.15,0,0,1,1.15,1.09L141,142A1.15,1.15,0,0,1,139.83,143.22Zm33-31.42h5.29v2.92h-5.29Zm-6.64,0h5.29v2.92h-5.29Zm-6.4,0h5.29v2.92h-5.29Zm-6.48,0h5.29v2.92h-5.29Zm-7.21,0h5.29v2.92h-5.29Zm32.32,30.27a1,1,0,0,1-1,1H145.69a1,1,0,0,1-1-1V123.47a1,1,0,0,1,1-1h32.06a1,1,0,0,1,1,1Zm35.9,7.31-33.25-8.24a.84.84,0,0,1-.64-.82V118a.85.85,0,0,1,.9-.84l32,2a.85.85,0,0,1,.8.81l1.23,28.57A.85.85,0,0,1,214.35,149.38Zm19-.36h-9.76a.82.82,0,0,1-.82-.79l-.9-20.7a.82.82,0,0,1,.82-.86h9.49a.82.82,0,0,1,.82.78l1.17,20.7A.82.82,0,0,1,233.37,149Z"/>
				<path class="cls-6" d="M230.77,129.63l1.38-.06a.06.06,0,0,1,.06.06l.19,4.77a.07.07,0,0,1-.06.07l-1.38,0a.06.06,0,0,1-.06-.06l-.18-4.74A.05.05,0,0,1,230.77,129.63Z"/>
				<path class="cls-6" d="M232.87,147.87l-1.38,0a.05.05,0,0,1-.06,0l0-1.14s0-.07.06-.07l1.38,0a.06.06,0,0,1,.06.06l0,1.11A.06.06,0,0,1,232.87,147.87Z"/>
				<rect class="cls-6" x="230.65" y="127.41" width="1.5" height="1.18" rx="0.06" transform="translate(-4.87 9.22) rotate(-2.26)"/>
				<path class="cls-6" d="M231,135.49l1.38,0a.06.06,0,0,1,.06.06l.22,5.73s0,.06,0,.06l-1.39,0a.06.06,0,0,1-.06-.06l-.22-5.74A.06.06,0,0,1,231,135.49Z"/>
				<path class="cls-6" d="M231.27,142.15l1.38,0a.06.06,0,0,1,.06.05l.14,3.48a.06.06,0,0,1-.06.06l-1.38,0s-.06,0-.06-.05l-.14-3.48A.06.06,0,0,1,231.27,142.15Z"/>
				<path class="cls-6" d="M228.34,134.47l-.18-4.67a.06.06,0,0,1,.05-.06l1.38-.06a.05.05,0,0,1,.06.06l.19,4.71a.06.06,0,0,1-.06.06l-1.38,0A.06.06,0,0,1,228.34,134.47Z"/>
				<rect class="cls-6" x="228.09" y="127.51" width="1.5" height="1.19" rx="0.06" transform="translate(-4.87 9.12) rotate(-2.26)"/>
				<path class="cls-6" d="M230.32,148l-1.39.05a.05.05,0,0,1-.06-.05l0-1.2a.05.05,0,0,1,0-.06l1.39,0s0,0,.06.06l0,1.17A.06.06,0,0,1,230.32,148Z"/>
				<path class="cls-6" d="M228.44,135.54l1.39,0a.06.06,0,0,1,0,.06l.23,5.74a.06.06,0,0,1-.06.06l-1.38,0a.06.06,0,0,1-.06-.06l-.22-5.73A0,0,0,0,1,228.44,135.54Z"/>
				<path class="cls-6" d="M230.15,142.23l.13,3.47a.05.05,0,0,1-.05.06l-1.38,0a.06.06,0,0,1-.06-.06l-.14-3.48a.06.06,0,0,1,.06-.06l1.38,0A.06.06,0,0,1,230.15,142.23Z"/>
				<path class="cls-6" d="M227.59,142.27l.13,3.47a.07.07,0,0,1-.06.07l-1.38,0a.06.06,0,0,1-.06-.06l-.13-3.47a0,0,0,0,1,0-.06l1.39,0S227.58,142.24,227.59,142.27Z"/>
				<path class="cls-6" d="M225.78,134.52l-.18-4.61a.06.06,0,0,1,.05-.06l1.38-.06a.07.07,0,0,1,.07.06l.18,4.64a.06.06,0,0,1-.06.06l-1.38,0A.06.06,0,0,1,225.78,134.52Z"/>
				<rect class="cls-6" x="225.53" y="127.61" width="1.5" height="1.19" rx="0.06" transform="translate(-4.88 9.02) rotate(-2.26)"/>
				<path class="cls-6" d="M227.76,148.07l-1.38.06a.07.07,0,0,1-.07-.06l-.05-1.26a.06.06,0,0,1,.06-.06l1.38,0s.06,0,.06.05l.05,1.23A.06.06,0,0,1,227.76,148.07Z"/>
				<path class="cls-6" d="M227.49,141.41l-1.38,0a.06.06,0,0,1-.06-.05l-.23-5.74a.06.06,0,0,1,.06-.06l1.38,0a.06.06,0,0,1,.06.06l.23,5.74A.06.06,0,0,1,227.49,141.41Z"/>
				<path class="cls-6" d="M225.2,148.17l-1.38.06a.07.07,0,0,1-.07-.06l-.05-1.32a.06.06,0,0,1,.06-.06l1.38,0a.06.06,0,0,1,.06.06l.05,1.28A.06.06,0,0,1,225.2,148.17Z"/>
				<rect class="cls-6" x="222.97" y="127.71" width="1.5" height="1.2" rx="0.06" transform="translate(-4.88 8.91) rotate(-2.26)"/>
				<path class="cls-6" d="M224.93,141.45l-1.38,0a.06.06,0,0,1-.06-.06l-.23-5.74a.06.06,0,0,1,.06-.06l1.38,0a.06.06,0,0,1,.06.05l.23,5.74A.06.06,0,0,1,224.93,141.45Z"/>
				<path class="cls-6" d="M225.1,145.85l-1.38,0a.06.06,0,0,1-.06-.06l-.14-3.47a.06.06,0,0,1,.06-.06l1.38,0a.06.06,0,0,1,.06.06l.14,3.48A.06.06,0,0,1,225.1,145.85Z"/>
				<path class="cls-6" d="M224.54,130l.18,4.57a.06.06,0,0,1-.06.06l-1.38,0a.06.06,0,0,1-.06-.06L223,130a.06.06,0,0,1,.05-.06l1.39-.06A.06.06,0,0,1,224.54,130Z"/>
				<path class="cls-6" d="M40.21,129.63l-1.38-.06a.06.06,0,0,0-.06.06l-.19,4.77a.07.07,0,0,0,.06.07l1.38,0a.06.06,0,0,0,.06-.06l.19-4.74A.06.06,0,0,0,40.21,129.63Z"/>
				<path class="cls-6" d="M38.11,147.87l1.38,0a.05.05,0,0,0,.06,0l0-1.14a.05.05,0,0,0-.05-.07l-1.39,0s0,0-.06.06l0,1.11A.06.06,0,0,0,38.11,147.87Z"/>
				<rect class="cls-6" x="38.99" y="127.24" width="1.18" height="1.5" rx="0.06" transform="translate(-89.87 162.5) rotate(-87.74)"/>
				<path class="cls-6" d="M40,135.49l-1.38,0a.05.05,0,0,0-.06.06l-.23,5.73a.05.05,0,0,0,.06.06l1.38,0a.06.06,0,0,0,.06-.06l.22-5.74A.05.05,0,0,0,40,135.49Z"/>
				<path class="cls-6" d="M39.71,142.15l-1.38,0a.06.06,0,0,0-.06.05l-.13,3.48a.05.05,0,0,0,0,.06l1.39,0a0,0,0,0,0,.05-.05l.14-3.48A.06.06,0,0,0,39.71,142.15Z"/>
				<path class="cls-6" d="M42.64,134.47l.19-4.67a.06.06,0,0,0-.06-.06l-1.38-.06a.06.06,0,0,0-.06.06l-.19,4.71a.06.06,0,0,0,.06.06l1.38,0A.06.06,0,0,0,42.64,134.47Z"/>
				<rect class="cls-6" x="41.55" y="127.35" width="1.19" height="1.5" rx="0.06" transform="translate(-87.52 165.16) rotate(-87.74)"/>
				<path class="cls-6" d="M40.67,148l1.38.05a.05.05,0,0,0,.06-.05l0-1.2a.06.06,0,0,0-.06-.06l-1.38,0a.06.06,0,0,0-.06.06l0,1.17A.06.06,0,0,0,40.67,148Z"/>
				<path class="cls-6" d="M42.54,135.54l-1.38,0a.06.06,0,0,0-.06.06l-.23,5.74a.06.06,0,0,0,.06.06l1.38,0a.06.06,0,0,0,.06-.06l.23-5.73A.06.06,0,0,0,42.54,135.54Z"/>
				<path class="cls-6" d="M40.83,142.23l-.13,3.47a.06.06,0,0,0,.06.06l1.38,0a.06.06,0,0,0,.06-.06l.13-3.48a.05.05,0,0,0,0-.06l-1.39,0S40.84,142.19,40.83,142.23Z"/>
				<path class="cls-6" d="M43.4,142.27l-.14,3.47a.07.07,0,0,0,.06.07l1.38,0a.06.06,0,0,0,.06-.06l.14-3.47a.06.06,0,0,0-.06-.06l-1.38,0A.06.06,0,0,0,43.4,142.27Z"/>
				<path class="cls-6" d="M45.2,134.52l.18-4.61a.05.05,0,0,0-.05-.06L44,129.79a.06.06,0,0,0-.06.06l-.19,4.64a.06.06,0,0,0,.06.06l1.38,0A.06.06,0,0,0,45.2,134.52Z"/>
				<rect class="cls-6" x="44.1" y="127.46" width="1.19" height="1.5" rx="0.06" transform="translate(-85.17 167.82) rotate(-87.74)"/>
				<path class="cls-6" d="M43.23,148.07l1.38.06a.06.06,0,0,0,.06-.06l0-1.26a.06.06,0,0,0-.06-.06l-1.38,0a.06.06,0,0,0-.06.05l0,1.23A.06.06,0,0,0,43.23,148.07Z"/>
				<path class="cls-6" d="M43.49,141.41l1.38,0a.06.06,0,0,0,.06-.05l.23-5.74a.06.06,0,0,0-.06-.06l-1.38,0a.06.06,0,0,0-.06.06l-.23,5.74A.06.06,0,0,0,43.49,141.41Z"/>
				<path class="cls-6" d="M45.79,148.17l1.38.06a.06.06,0,0,0,.06-.06l.05-1.32a.06.06,0,0,0-.06-.06l-1.38,0a.06.06,0,0,0-.06.06l-.05,1.28A.06.06,0,0,0,45.79,148.17Z"/>
				<rect class="cls-6" x="46.66" y="127.56" width="1.2" height="1.5" rx="0.06" transform="translate(-82.81 170.48) rotate(-87.74)"/>
				<path class="cls-6" d="M46.05,141.45l1.38,0a.06.06,0,0,0,.06-.06l.23-5.74a.06.06,0,0,0-.06-.06l-1.38,0a.06.06,0,0,0-.06.05L46,141.39A.06.06,0,0,0,46.05,141.45Z"/>
				<path class="cls-6" d="M45.88,145.85l1.38,0a.06.06,0,0,0,.06-.06l.14-3.47a.06.06,0,0,0-.06-.06l-1.38,0a.06.06,0,0,0-.06.06l-.14,3.48A.06.06,0,0,0,45.88,145.85Z"/>
				<path class="cls-6" d="M46.45,130l-.19,4.57a.06.06,0,0,0,.06.06l1.38,0a.06.06,0,0,0,.06-.06l.18-4.54a.06.06,0,0,0,0-.06l-1.38-.06A.05.05,0,0,0,46.45,130Z"/>
				<rect class="cls-6" x="93.39" y="123.07" width="1.41" height="1.75" rx="0.1"/>
				<rect class="cls-6" x="95.33" y="123.07" width="1.41" height="1.75" rx="0.1"/>
				<rect class="cls-6" x="97.27" y="123.07" width="1.41" height="1.75" rx="0.1"/>
				<rect class="cls-6" x="99.22" y="123.07" width="1.41" height="1.75" rx="0.1"/>
				<rect class="cls-6" x="101.16" y="123.07" width="1.41" height="1.75" rx="0.1"/>
				<rect class="cls-6" x="103.1" y="123.07" width="1.41" height="1.75" rx="0.1"/>
				<rect class="cls-6" x="105.05" y="123.07" width="1.41" height="1.75" rx="0.1"/>
				<rect class="cls-6" x="106.99" y="123.07" width="1.41" height="1.75" rx="0.1"/>
				<rect class="cls-6" x="108.94" y="123.07" width="1.41" height="1.75" rx="0.1"/>
				<rect class="cls-6" x="110.88" y="123.07" width="1.41" height="1.75" rx="0.1"/>
				<rect class="cls-6" x="112.82" y="123.07" width="1.41" height="1.75" rx="0.1"/>
				<rect class="cls-6" x="114.77" y="123.07" width="1.41" height="1.75" rx="0.1"/>
				<rect class="cls-6" x="116.71" y="123.07" width="1.41" height="1.75" rx="0.1"/>
				<rect class="cls-6" x="118.65" y="123.07" width="1.41" height="1.75" rx="0.1"/>
				<rect class="cls-6" x="120.6" y="123.07" width="1.41" height="1.75" rx="0.1"/>
				<rect class="cls-6" x="122.54" y="123.07" width="1.41" height="1.75" rx="0.1"/>
				<rect class="cls-6" x="124.49" y="123.07" width="1.41" height="1.75" rx="0.1"/>
				<rect class="cls-6" x="93.39" y="127.16" width="1.41" height="1.75" rx="0.1"/>
				<rect class="cls-6" x="95.33" y="127.16" width="1.41" height="1.75" rx="0.1"/>
				<rect class="cls-6" x="97.27" y="127.16" width="1.41" height="1.75" rx="0.1"/>
				<rect class="cls-6" x="99.22" y="127.16" width="1.41" height="1.75" rx="0.1"/>
				<rect class="cls-6" x="101.16" y="127.16" width="1.41" height="1.75" rx="0.1"/>
				<rect class="cls-6" x="103.1" y="127.16" width="1.41" height="1.75" rx="0.1"/>
				<rect class="cls-6" x="105.05" y="127.16" width="1.41" height="1.75" rx="0.1"/>
				<rect class="cls-6" x="106.99" y="127.16" width="1.41" height="1.75" rx="0.1"/>
				<rect class="cls-6" x="108.94" y="127.16" width="1.41" height="1.75" rx="0.1"/>
				<rect class="cls-6" x="110.88" y="127.16" width="1.41" height="1.75" rx="0.1"/>
				<rect class="cls-6" x="112.82" y="127.16" width="1.41" height="1.75" rx="0.1"/>
				<rect class="cls-6" x="114.77" y="127.16" width="1.41" height="1.75" rx="0.1"/>
				<rect class="cls-6" x="116.71" y="127.16" width="1.41" height="1.75" rx="0.1"/>
				<rect class="cls-6" x="118.65" y="127.16" width="1.41" height="1.75" rx="0.1"/>
				<rect class="cls-6" x="120.6" y="127.16" width="1.41" height="1.75" rx="0.1"/>
				<rect class="cls-6" x="122.54" y="127.16" width="1.41" height="1.75" rx="0.1"/>
				<rect class="cls-6" x="124.49" y="127.16" width="1.41" height="1.75" rx="0.1"/>
				<rect class="cls-6" x="94.62" y="125.11" width="1.41" height="1.75" rx="0.1"/>
				<rect class="cls-6" x="96.57" y="125.11" width="1.41" height="1.75" rx="0.1"/>
				<rect class="cls-6" x="98.51" y="125.11" width="1.41" height="1.75" rx="0.1"/>
				<rect class="cls-6" x="100.46" y="125.11" width="1.41" height="1.75" rx="0.1"/>
				<rect class="cls-6" x="102.4" y="125.11" width="1.41" height="1.75" rx="0.1"/>
				<rect class="cls-6" x="104.34" y="125.11" width="1.41" height="1.75" rx="0.1"/>
				<rect class="cls-6" x="106.29" y="125.11" width="1.41" height="1.75" rx="0.1"/>
				<rect class="cls-6" x="108.23" y="125.11" width="1.41" height="1.75" rx="0.1"/>
				<rect class="cls-6" x="110.17" y="125.11" width="1.41" height="1.75" rx="0.1"/>
				<rect class="cls-6" x="112.12" y="125.11" width="1.41" height="1.75" rx="0.1"/>
				<rect class="cls-6" x="114.06" y="125.11" width="1.41" height="1.75" rx="0.1"/>
				<rect class="cls-6" x="116.01" y="125.11" width="1.41" height="1.75" rx="0.1"/>
				<rect class="cls-6" x="117.95" y="125.11" width="1.41" height="1.75" rx="0.1"/>
				<rect class="cls-6" x="119.89" y="125.11" width="1.41" height="1.75" rx="0.1"/>
				<rect class="cls-6" x="121.84" y="125.11" width="1.41" height="1.75" rx="0.1"/>
				<rect class="cls-6" x="123.78" y="125.11" width="1.41" height="1.75" rx="0.1"/>
				<rect class="cls-6" x="93.39" y="136.24" width="1.41" height="1.75" rx="0.1"/>
				<rect class="cls-6" x="95.33" y="136.24" width="1.41" height="1.75" rx="0.1"/>
				<rect class="cls-6" x="97.27" y="136.24" width="1.41" height="1.75" rx="0.1"/>
				<rect class="cls-6" x="99.22" y="136.24" width="1.41" height="1.75" rx="0.1"/>
				<rect class="cls-6" x="101.16" y="136.24" width="1.41" height="1.75" rx="0.1"/>
				<rect class="cls-6" x="103.1" y="136.24" width="1.41" height="1.75" rx="0.1"/>
				<rect class="cls-6" x="105.05" y="136.24" width="1.41" height="1.75" rx="0.1"/>
				<rect class="cls-6" x="106.99" y="136.24" width="1.41" height="1.75" rx="0.1"/>
				<rect class="cls-6" x="108.94" y="136.24" width="1.41" height="1.75" rx="0.1"/>
				<rect class="cls-6" x="110.88" y="136.24" width="1.41" height="1.75" rx="0.1"/>
				<rect class="cls-6" x="112.82" y="136.24" width="1.41" height="1.75" rx="0.1"/>
				<rect class="cls-6" x="114.77" y="136.24" width="1.41" height="1.75" rx="0.1"/>
				<rect class="cls-6" x="116.71" y="136.24" width="1.41" height="1.75" rx="0.1"/>
				<rect class="cls-6" x="118.65" y="136.24" width="1.41" height="1.75" rx="0.1"/>
				<rect class="cls-6" x="120.6" y="136.24" width="1.41" height="1.75" rx="0.1"/>
				<rect class="cls-6" x="122.54" y="136.24" width="1.41" height="1.75" rx="0.1"/>
				<rect class="cls-6" x="124.49" y="136.24" width="1.41" height="1.75" rx="0.1"/>
				<rect class="cls-6" x="93.39" y="140.32" width="1.41" height="1.75" rx="0.1"/>
				<rect class="cls-6" x="95.33" y="140.32" width="1.41" height="1.75" rx="0.1"/>
				<rect class="cls-6" x="97.27" y="140.32" width="1.41" height="1.75" rx="0.1"/>
				<rect class="cls-6" x="99.22" y="140.32" width="1.41" height="1.75" rx="0.1"/>
				<rect class="cls-6" x="101.16" y="140.32" width="1.41" height="1.75" rx="0.1"/>
				<rect class="cls-6" x="103.1" y="140.32" width="1.41" height="1.75" rx="0.1"/>
				<rect class="cls-6" x="105.05" y="140.32" width="1.41" height="1.75" rx="0.1"/>
				<rect class="cls-6" x="106.99" y="140.32" width="1.41" height="1.75" rx="0.1"/>
				<rect class="cls-6" x="108.94" y="140.32" width="1.41" height="1.75" rx="0.1"/>
				<rect class="cls-6" x="110.88" y="140.32" width="1.41" height="1.75" rx="0.1"/>
				<rect class="cls-6" x="112.82" y="140.32" width="1.41" height="1.75" rx="0.1"/>
				<rect class="cls-6" x="114.77" y="140.32" width="1.41" height="1.75" rx="0.1"/>
				<rect class="cls-6" x="116.71" y="140.32" width="1.41" height="1.75" rx="0.1"/>
				<rect class="cls-6" x="118.65" y="140.32" width="1.41" height="1.75" rx="0.1"/>
				<rect class="cls-6" x="120.6" y="140.32" width="1.41" height="1.75" rx="0.1"/>
				<rect class="cls-6" x="122.54" y="140.32" width="1.41" height="1.75" rx="0.1"/>
				<rect class="cls-6" x="124.49" y="140.32" width="1.41" height="1.75" rx="0.1"/>
				<rect class="cls-6" x="94.62" y="138.28" width="1.41" height="1.75" rx="0.1"/>
				<rect class="cls-6" x="96.57" y="138.28" width="1.41" height="1.75" rx="0.1"/>
				<rect class="cls-6" x="98.51" y="138.28" width="1.41" height="1.75" rx="0.1"/>
				<rect class="cls-6" x="100.46" y="138.28" width="1.41" height="1.75" rx="0.1"/>
				<rect class="cls-6" x="102.4" y="138.28" width="1.41" height="1.75" rx="0.1"/>
				<rect class="cls-6" x="104.34" y="138.28" width="1.41" height="1.75" rx="0.1"/>
				<rect class="cls-6" x="106.29" y="138.28" width="1.41" height="1.75" rx="0.1"/>
				<rect class="cls-6" x="108.23" y="138.28" width="1.41" height="1.75" rx="0.1"/>
				<rect class="cls-6" x="110.17" y="138.28" width="1.41" height="1.75" rx="0.1"/>
				<rect class="cls-6" x="112.12" y="138.28" width="1.41" height="1.75" rx="0.1"/>
				<rect class="cls-6" x="114.06" y="138.28" width="1.41" height="1.75" rx="0.1"/>
				<rect class="cls-6" x="116.01" y="138.28" width="1.41" height="1.75" rx="0.1"/>
				<rect class="cls-6" x="117.95" y="138.28" width="1.41" height="1.75" rx="0.1"/>
				<rect class="cls-6" x="119.89" y="138.28" width="1.41" height="1.75" rx="0.1"/>
				<rect class="cls-6" x="121.84" y="138.28" width="1.41" height="1.75" rx="0.1"/>
				<rect class="cls-6" x="123.78" y="138.28" width="1.41" height="1.75" rx="0.1"/>
				<rect class="cls-6" x="93.69" y="129.63" width="0.92" height="6.12" rx="0.09"/>
				<rect class="cls-6" x="95.54" y="129.63" width="0.92" height="6.12" rx="0.09"/>
				<rect class="cls-6" x="97.39" y="129.63" width="0.92" height="6.12" rx="0.09"/>
				<rect class="cls-6" x="99.24" y="129.63" width="0.92" height="6.12" rx="0.09"/>
				<rect class="cls-6" x="101.09" y="129.63" width="0.92" height="6.12" rx="0.09"/>
				<rect class="cls-6" x="102.93" y="129.63" width="0.92" height="6.12" rx="0.09"/>
				<rect class="cls-6" x="104.78" y="129.63" width="0.92" height="6.12" rx="0.09"/>
				<rect class="cls-6" x="106.63" y="129.63" width="0.92" height="6.12" rx="0.09"/>
				<rect class="cls-6" x="108.48" y="129.63" width="0.92" height="6.12" rx="0.09"/>
				<rect class="cls-6" x="110.33" y="129.63" width="0.92" height="6.12" rx="0.09"/>
				<rect class="cls-6" x="112.18" y="129.63" width="0.92" height="6.12" rx="0.09"/>
				<rect class="cls-6" x="114.02" y="129.63" width="0.92" height="6.12" rx="0.09"/>
				<rect class="cls-6" x="115.87" y="129.63" width="0.92" height="6.12" rx="0.09"/>
				<rect class="cls-6" x="117.72" y="129.63" width="0.92" height="6.12" rx="0.09"/>
				<rect class="cls-6" x="119.57" y="129.63" width="0.92" height="6.12" rx="0.09"/>
				<rect class="cls-6" x="121.42" y="129.63" width="0.92" height="6.12" rx="0.09"/>
				<rect class="cls-6" x="123.27" y="129.63" width="0.92" height="6.12" rx="0.09"/>
				<rect class="cls-6" x="125.11" y="129.63" width="0.92" height="6.12" rx="0.09"/>
				<rect class="cls-6" x="176.55" y="123.07" width="1.41" height="1.75" rx="0.1"/>
				<rect class="cls-6" x="174.61" y="123.07" width="1.41" height="1.75" rx="0.1"/>
				<rect class="cls-6" x="172.67" y="123.07" width="1.41" height="1.75" rx="0.1"/>
				<rect class="cls-6" x="170.72" y="123.07" width="1.41" height="1.75" rx="0.1"/>
				<rect class="cls-6" x="168.78" y="123.07" width="1.41" height="1.75" rx="0.1"/>
				<rect class="cls-6" x="166.83" y="123.07" width="1.41" height="1.75" rx="0.1"/>
				<rect class="cls-6" x="164.89" y="123.07" width="1.41" height="1.75" rx="0.1"/>
				<rect class="cls-6" x="162.95" y="123.07" width="1.41" height="1.75" rx="0.1"/>
				<rect class="cls-6" x="161" y="123.07" width="1.41" height="1.75" rx="0.1"/>
				<rect class="cls-6" x="159.06" y="123.07" width="1.41" height="1.75" rx="0.1"/>
				<rect class="cls-6" x="157.12" y="123.07" width="1.41" height="1.75" rx="0.1"/>
				<rect class="cls-6" x="155.17" y="123.07" width="1.41" height="1.75" rx="0.1"/>
				<rect class="cls-6" x="153.23" y="123.07" width="1.41" height="1.75" rx="0.1"/>
				<rect class="cls-6" x="151.28" y="123.07" width="1.41" height="1.75" rx="0.1"/>
				<rect class="cls-6" x="149.34" y="123.07" width="1.41" height="1.75" rx="0.1"/>
				<rect class="cls-6" x="147.4" y="123.07" width="1.41" height="1.75" rx="0.1"/>
				<rect class="cls-6" x="145.45" y="123.07" width="1.41" height="1.75" rx="0.1"/>
				<rect class="cls-6" x="176.55" y="127.16" width="1.41" height="1.75" rx="0.1"/>
				<rect class="cls-6" x="174.61" y="127.16" width="1.41" height="1.75" rx="0.1"/>
				<rect class="cls-6" x="172.67" y="127.16" width="1.41" height="1.75" rx="0.1"/>
				<rect class="cls-6" x="170.72" y="127.16" width="1.41" height="1.75" rx="0.1"/>
				<rect class="cls-6" x="168.78" y="127.16" width="1.41" height="1.75" rx="0.1"/>
				<rect class="cls-6" x="166.83" y="127.16" width="1.41" height="1.75" rx="0.1"/>
				<rect class="cls-6" x="164.89" y="127.16" width="1.41" height="1.75" rx="0.1"/>
				<rect class="cls-6" x="162.95" y="127.16" width="1.41" height="1.75" rx="0.1"/>
				<rect class="cls-6" x="161" y="127.16" width="1.41" height="1.75" rx="0.1"/>
				<rect class="cls-6" x="159.06" y="127.16" width="1.41" height="1.75" rx="0.1"/>
				<rect class="cls-6" x="157.12" y="127.16" width="1.41" height="1.75" rx="0.1"/>
				<rect class="cls-6" x="155.17" y="127.16" width="1.41" height="1.75" rx="0.1"/>
				<rect class="cls-6" x="153.23" y="127.16" width="1.41" height="1.75" rx="0.1"/>
				<rect class="cls-6" x="151.28" y="127.16" width="1.41" height="1.75" rx="0.1"/>
				<rect class="cls-6" x="149.34" y="127.16" width="1.41" height="1.75" rx="0.1"/>
				<rect class="cls-6" x="147.4" y="127.16" width="1.41" height="1.75" rx="0.1"/>
				<rect class="cls-6" x="145.45" y="127.16" width="1.41" height="1.75" rx="0.1"/>
				<rect class="cls-6" x="175.31" y="125.11" width="1.41" height="1.75" rx="0.1"/>
				<rect class="cls-6" x="173.37" y="125.11" width="1.41" height="1.75" rx="0.1"/>
				<rect class="cls-6" x="171.43" y="125.11" width="1.41" height="1.75" rx="0.1"/>
				<rect class="cls-6" x="169.48" y="125.11" width="1.41" height="1.75" rx="0.1"/>
				<rect class="cls-6" x="167.54" y="125.11" width="1.41" height="1.75" rx="0.1"/>
				<rect class="cls-6" x="165.6" y="125.11" width="1.41" height="1.75" rx="0.1"/>
				<rect class="cls-6" x="163.65" y="125.11" width="1.41" height="1.75" rx="0.1"/>
				<rect class="cls-6" x="161.71" y="125.11" width="1.41" height="1.75" rx="0.1"/>
				<rect class="cls-6" x="159.76" y="125.11" width="1.41" height="1.75" rx="0.1"/>
				<rect class="cls-6" x="157.82" y="125.11" width="1.41" height="1.75" rx="0.1"/>
				<rect class="cls-6" x="155.88" y="125.11" width="1.41" height="1.75" rx="0.1"/>
				<rect class="cls-6" x="153.93" y="125.11" width="1.41" height="1.75" rx="0.1"/>
				<rect class="cls-6" x="151.99" y="125.11" width="1.41" height="1.75" rx="0.1"/>
				<rect class="cls-6" x="150.05" y="125.11" width="1.41" height="1.75" rx="0.1"/>
				<rect class="cls-6" x="148.1" y="125.11" width="1.41" height="1.75" rx="0.1"/>
				<rect class="cls-6" x="146.16" y="125.11" width="1.41" height="1.75" rx="0.1"/>
				<rect class="cls-6" x="176.55" y="136.24" width="1.41" height="1.75" rx="0.1"/>
				<rect class="cls-6" x="174.61" y="136.24" width="1.41" height="1.75" rx="0.1"/>
				<rect class="cls-6" x="172.67" y="136.24" width="1.41" height="1.75" rx="0.1"/>
				<rect class="cls-6" x="170.72" y="136.24" width="1.41" height="1.75" rx="0.1"/>
				<rect class="cls-6" x="168.78" y="136.24" width="1.41" height="1.75" rx="0.1"/>
				<rect class="cls-6" x="166.83" y="136.24" width="1.41" height="1.75" rx="0.1"/>
				<rect class="cls-6" x="164.89" y="136.24" width="1.41" height="1.75" rx="0.1"/>
				<rect class="cls-6" x="162.95" y="136.24" width="1.41" height="1.75" rx="0.1"/>
				<rect class="cls-6" x="161" y="136.24" width="1.41" height="1.75" rx="0.1"/>
				<rect class="cls-6" x="159.06" y="136.24" width="1.41" height="1.75" rx="0.1"/>
				<rect class="cls-6" x="157.12" y="136.24" width="1.41" height="1.75" rx="0.1"/>
				<rect class="cls-6" x="155.17" y="136.24" width="1.41" height="1.75" rx="0.1"/>
				<rect class="cls-6" x="153.23" y="136.24" width="1.41" height="1.75" rx="0.1"/>
				<rect class="cls-6" x="151.28" y="136.24" width="1.41" height="1.75" rx="0.1"/>
				<rect class="cls-6" x="149.34" y="136.24" width="1.41" height="1.75" rx="0.1"/>
				<rect class="cls-6" x="147.4" y="136.24" width="1.41" height="1.75" rx="0.1"/>
				<rect class="cls-6" x="145.45" y="136.24" width="1.41" height="1.75" rx="0.1"/>
				<rect class="cls-6" x="176.55" y="140.32" width="1.41" height="1.75" rx="0.1"/>
				<rect class="cls-6" x="174.61" y="140.32" width="1.41" height="1.75" rx="0.1"/>
				<rect class="cls-6" x="172.67" y="140.32" width="1.41" height="1.75" rx="0.1"/>
				<rect class="cls-6" x="170.72" y="140.32" width="1.41" height="1.75" rx="0.1"/>
				<rect class="cls-6" x="168.78" y="140.32" width="1.41" height="1.75" rx="0.1"/>
				<rect class="cls-6" x="166.83" y="140.32" width="1.41" height="1.75" rx="0.1"/>
				<rect class="cls-6" x="164.89" y="140.32" width="1.41" height="1.75" rx="0.1"/>
				<rect class="cls-6" x="162.95" y="140.32" width="1.41" height="1.75" rx="0.1"/>
				<rect class="cls-6" x="161" y="140.32" width="1.41" height="1.75" rx="0.1"/>
				<rect class="cls-6" x="159.06" y="140.32" width="1.41" height="1.75" rx="0.1"/>
				<rect class="cls-6" x="157.12" y="140.32" width="1.41" height="1.75" rx="0.1"/>
				<rect class="cls-6" x="155.17" y="140.32" width="1.41" height="1.75" rx="0.1"/>
				<rect class="cls-6" x="153.23" y="140.32" width="1.41" height="1.75" rx="0.1"/>
				<rect class="cls-6" x="151.28" y="140.32" width="1.41" height="1.75" rx="0.1"/>
				<rect class="cls-6" x="149.34" y="140.32" width="1.41" height="1.75" rx="0.1"/>
				<rect class="cls-6" x="147.4" y="140.32" width="1.41" height="1.75" rx="0.1"/>
				<rect class="cls-6" x="145.45" y="140.32" width="1.41" height="1.75" rx="0.1"/>
				<rect class="cls-6" x="175.31" y="138.28" width="1.41" height="1.75" rx="0.1"/>
				<rect class="cls-6" x="173.37" y="138.28" width="1.41" height="1.75" rx="0.1"/>
				<rect class="cls-6" x="171.43" y="138.28" width="1.41" height="1.75" rx="0.1"/>
				<rect class="cls-6" x="169.48" y="138.28" width="1.41" height="1.75" rx="0.1"/>
				<rect class="cls-6" x="167.54" y="138.28" width="1.41" height="1.75" rx="0.1"/>
				<rect class="cls-6" x="165.6" y="138.28" width="1.41" height="1.75" rx="0.1"/>
				<rect class="cls-6" x="163.65" y="138.28" width="1.41" height="1.75" rx="0.1"/>
				<rect class="cls-6" x="161.71" y="138.28" width="1.41" height="1.75" rx="0.1"/>
				<rect class="cls-6" x="159.76" y="138.28" width="1.41" height="1.75" rx="0.1"/>
				<rect class="cls-6" x="157.82" y="138.28" width="1.41" height="1.75" rx="0.1"/>
				<rect class="cls-6" x="155.88" y="138.28" width="1.41" height="1.75" rx="0.1"/>
				<rect class="cls-6" x="153.93" y="138.28" width="1.41" height="1.75" rx="0.1"/>
				<rect class="cls-6" x="151.99" y="138.28" width="1.41" height="1.75" rx="0.1"/>
				<rect class="cls-6" x="150.05" y="138.28" width="1.41" height="1.75" rx="0.1"/>
				<rect class="cls-6" x="148.1" y="138.28" width="1.41" height="1.75" rx="0.1"/>
				<rect class="cls-6" x="146.16" y="138.28" width="1.41" height="1.75" rx="0.1"/>
				<rect class="cls-6" x="176.74" y="129.63" width="0.92" height="6.12" rx="0.09"/>
				<rect class="cls-6" x="174.89" y="129.63" width="0.92" height="6.12" rx="0.09"/>
				<rect class="cls-6" x="173.04" y="129.63" width="0.92" height="6.12" rx="0.09"/>
				<rect class="cls-6" x="171.19" y="129.63" width="0.92" height="6.12" rx="0.09"/>
				<rect class="cls-6" x="169.34" y="129.63" width="0.92" height="6.12" rx="0.09"/>
				<rect class="cls-6" x="167.5" y="129.63" width="0.92" height="6.12" rx="0.09"/>
				<rect class="cls-6" x="165.65" y="129.63" width="0.92" height="6.12" rx="0.09"/>
				<rect class="cls-6" x="163.8" y="129.63" width="0.92" height="6.12" rx="0.09"/>
				<rect class="cls-6" x="161.95" y="129.63" width="0.92" height="6.12" rx="0.09"/>
				<rect class="cls-6" x="160.1" y="129.63" width="0.92" height="6.12" rx="0.09"/>
				<rect class="cls-6" x="158.25" y="129.63" width="0.92" height="6.12" rx="0.09"/>
				<rect class="cls-6" x="156.41" y="129.63" width="0.92" height="6.12" rx="0.09"/>
				<rect class="cls-6" x="154.56" y="129.63" width="0.92" height="6.12" rx="0.09"/>
				<rect class="cls-6" x="152.71" y="129.63" width="0.92" height="6.12" rx="0.09"/>
				<rect class="cls-6" x="150.86" y="129.63" width="0.92" height="6.12" rx="0.09"/>
				<rect class="cls-6" x="149.01" y="129.63" width="0.92" height="6.12" rx="0.09"/>
				<rect class="cls-6" x="147.16" y="129.63" width="0.92" height="6.12" rx="0.09"/>
				<rect class="cls-6" x="145.32" y="129.63" width="0.92" height="6.12" rx="0.09"/>
				<rect class="cls-6" x="137.59" y="91.76" width="0.75" height="50.62" transform="translate(-5.03 6.21) rotate(-2.53)"/>
				<rect class="cls-6" x="106.44" y="116.69" width="50.62" height="0.75" transform="translate(8.89 243.43) rotate(-87.43)"/>
				<polygon class="cls-6" points="135.27 91.78 136.72 124.71 133.08 124.71 134.53 91.78 135.27 91.78"/>
				<polygon class="cls-6" points="134.53 88.57 134.9 77.86 135.27 88.57 134.53 88.57"/>
				<path class="cls-6" d="M136.71,88.59l-.64-13.41a.56.56,0,0,0-.55-.52h-.89a.56.56,0,0,0-.56.53l-.47,13.4-.75,0,.48-13.4a1.29,1.29,0,0,1,1.3-1.25h.89a1.3,1.3,0,0,1,1.29,1.24l.65,13.4Z"/>
				<rect class="cls-6" x="131.75" y="125.3" width="6.21" height="0.75"/>
				<rect class="cls-6" x="130.64" y="131.5" width="8.44" height="0.75"/>
				<rect class="cls-6" x="132.75" y="126.99" width="0.75" height="3.93"/>
				<rect class="cls-6" x="136.47" y="126.99" width="0.75" height="3.93"/>
				<rect class="cls-6" x="133.22" y="69.4" width="4.06" height="1.02"/>
				<text class="cls-7" transform="translate(75.21 176.75) scale(0.99 1)">ከንቲባ ፅህፈት ቤት - አዲስ አበባ</text>
				<text class="cls-8" transform="translate(47.81 195.77)">- OFFICE OF THE MAYOR -
					<tspan class="cls-9">
						<tspan x="29.52" y="13.84">ADDIS ABABA, ETHIOPIA</tspan>
					</tspan>
				</text>
			</g>
		</g>
	</g>
</svg>