<svg xmlns="http://www.w3.org/2000/svg" viewBox="0 0 136.26 136.27" width="64" height="64" ><defs><style>.cls-1{fill:#cbcbcb;}</style></defs><title>Asset 5</title><g id="Layer_2" data-name="Layer 2"><g id="Layer_1-2" data-name="Layer 1"><path class="cls-1" d="M127.26,59.11a9,9,0,0,0-8.85,7.35H105.49A37.54,37.54,0,0,0,95.6,42.81l9.16-9.15a8.91,8.91,0,1,0-2.34-2.4l-9.21,9.22a37.21,37.21,0,0,0-23.68-9.66V17.89a9,9,0,1,0-3.36-.11V30.84a37.32,37.32,0,0,0-23.38,9.87l-9.16-9.16a9,9,0,1,0-2.43,2.32l9.22,9.19a37.49,37.49,0,0,0-9.67,23.68H17.89A9,9,0,1,0,9,77.09a9.09,9.09,0,0,0,8.76-7h13a37.45,37.45,0,0,0,9.82,23.36l-9.1,9.12A9,9,0,1,0,33.83,105L43,95.86a37.22,37.22,0,0,0,23.47,9.7v12.88a9,9,0,1,0,3.36,0V105.56a37.28,37.28,0,0,0,23.63-9.85l9.11,9.12a9,9,0,1,0,2.4-2.36L95.81,93.3a37.46,37.46,0,0,0,9.68-23.48h13a9,9,0,1,0,8.82-10.71ZM106,22.34a5.63,5.63,0,0,1,8,8h0a5.63,5.63,0,0,1-8-8Zm-75.66,8a5.64,5.64,0,1,1,0-8h0A5.66,5.66,0,0,1,30.3,30.31ZM9,73.77a5.64,5.64,0,1,1,5.63-5.63A5.63,5.63,0,0,1,9,73.77ZM30.3,113.93a5.63,5.63,0,1,1-.18-8.12,1.33,1.33,0,0,0,.23.3,2,2,0,0,0,.27.22A5.63,5.63,0,0,1,30.3,113.93ZM106,106a5.63,5.63,0,1,1,0,8h0a5.63,5.63,0,0,1,0-8ZM62.49,9a5.64,5.64,0,1,1,5.64,5.63A5.64,5.64,0,0,1,62.49,9ZM49.41,96.62a6.56,6.56,0,0,1,2.88-3l5.53-2,4.07,8.15a1.69,1.69,0,0,0,2.26.75l.18-.11L66.45,99v3.18a33.86,33.86,0,0,1-17-5.58Zm8-38.83a7.69,7.69,0,0,1,3.22-5.67h.88a1.11,1.11,0,0,1,1.09,1.1,4.27,4.27,0,0,0,4.27,4.26h9.21a3.09,3.09,0,0,1,3.07,3.09,3.2,3.2,0,0,0,5.24,2.47,1.18,1.18,0,0,1,.52.75,2,2,0,0,1,.07.54,2.23,2.23,0,0,1-1.84,2.2,1.7,1.7,0,0,0-1.39,1.68,13.7,13.7,0,1,1-27.39,0A1.67,1.67,0,0,0,53,66.54l-.85-.34a2.26,2.26,0,0,1-.93-2.4,1.28,1.28,0,0,1,1.16-1,1.73,1.73,0,0,0,.6-.17,5.4,5.4,0,0,0,4.46-4.87Zm-2.92-5.73,1.54,0a10.65,10.65,0,0,0-2,5.41,2.23,2.23,0,0,1-.51,1.2l0-.31a14.34,14.34,0,0,1,1-6.32ZM59,48.74a6.62,6.62,0,0,0,2.71-4.31,15,15,0,0,1,2.66-1.08A14.57,14.57,0,0,1,82.18,53.67a14.41,14.41,0,0,1,.46,4.71l-.17,1.2a6.46,6.46,0,0,0-6.36-5.45H66.9a.9.9,0,0,1-.91-.9h0a4.47,4.47,0,0,0-4.42-4.45Zm2.68,43,3.84,3.84-1.44,1Zm12.11,35.49a5.64,5.64,0,1,1-6-5.61,1.8,1.8,0,0,0,.73,0,5.63,5.63,0,0,1,5.27,5.61Zm-5.5-33.76L64.76,90v-5.1a17.51,17.51,0,0,0,3.46.35,19.27,19.27,0,0,0,3.55-.37V90Zm6.35-1.73-2.4,4.8-1.45-1Zm-4.8,10.42V99l2.11,1.41a1.69,1.69,0,0,0,2.34-.46l.1-.18,4.07-8.15,5.53,2a6.56,6.56,0,0,1,2.88,3A33.86,33.86,0,0,1,69.81,102.2Zm19.77-7.59a9.84,9.84,0,0,0-4.2-4l-.15-.07-5.9-2.14v-2a1.65,1.65,0,0,0-1.07-1.51l0,0h0L75.31,83.7A17.12,17.12,0,0,0,85.1,69.45,5.63,5.63,0,0,0,88.21,63a4.58,4.58,0,0,0-2.4-3L86,58.79s0-.08,0-.12A17.91,17.91,0,0,0,63.47,40.1a19.46,19.46,0,0,0-3.54,1.44l-.57.28a1.65,1.65,0,0,0-1,1.51,3.23,3.23,0,0,1-1.46,2.72L52.56,49a1.68,1.68,0,0,0-.52.54l-.26.44-.09.17a18.06,18.06,0,0,0-1.51,8.55s0,.08,0,.13L50.36,60A4.62,4.62,0,0,0,48,63a5.62,5.62,0,0,0,2.48,6.09,4.12,4.12,0,0,0,.64.3,17.06,17.06,0,0,0,9.81,14.28L58,84.85v0h0a1.7,1.7,0,0,0-1.07,1.55v2L51,90.51l-.16.07a9.84,9.84,0,0,0-4.2,4,34,34,0,1,1,42.92,0Zm37.68-20.84a5.64,5.64,0,1,1,5.63-5.63,5.63,5.63,0,0,1-5.63,5.63Z"/></g></g></svg>