<svg xmlns="http://www.w3.org/2000/svg" viewBox="0 0 135.4 136.27" width="64" height="64"><defs><style>.cls-1{fill:#cbcbcb;}</style></defs><title>ትራንስፖርት</title><g id="Layer_2" data-name="Layer 2"><g id="Layer_1-2" data-name="Layer 1"><path class="cls-1" d="M7.21,42.17c3.54.34,4.09.95,4.09,4.34,0,5.5-.05,11,0,16.48,0,2-.85,3-2.67,3.18a36.55,36.55,0,0,1-6,0C.81,66,0,64.8,0,62.91c.05-5.36,0-10.73,0-16.09,0-3.59.61-4.28,4.41-4.72V39.21c0-2.37.18-2.55,2.62-2.56h7.19V29.9c0-2.59.14-5.19,0-7.76-.33-4.8,1.9-8.23,5.48-11C25.13,7,31.5,4.7,38.1,3.34,44.41,2,50.85,1.25,57.27.57A122.55,122.55,0,0,1,84.41,1c9.46,1.12,18.75,3,27.26,7.52a30.85,30.85,0,0,1,4.43,2.88,12.87,12.87,0,0,1,5.35,11.28c-.22,4.58,0,9.18,0,14h7.1c2.29,0,2.45.18,2.46,2.5,0,.94,0,1.88,0,3a15.57,15.57,0,0,1,1.72.19c1.62.38,2.73,1.21,2.72,3.09,0,5.93,0,11.86,0,17.79,0,1.53-.71,2.73-2.18,2.86a39.27,39.27,0,0,1-7.11,0c-1.5-.14-2-1.36-2-2.92.06-5.43,0-10.85,0-16.28,0-3.73.38-4.18,4.15-4.72V39.42H121.4v2.1q0,30.57,0,61.15c0,7.09-3.61,13.26-9.4,15.48a15.89,15.89,0,0,1-5.52.93c-22.64,0-45.28,0-67.92,0-3,0-6.06-.12-9.08.09-9,.63-15.3-7.58-15.27-15.22.08-20.83,0-41.65,0-62.48,0-1.81-.54-2.31-2.24-2.15-1.55.13-3.13,0-4.82,0ZM67.82,77.82q20.15,0,40.3,0c3.55,0,5-1.48,5-5.08q0-18,0-36c0-3.66-1.46-5.1-5.18-5.1l-44.65,0c-12.11,0-24.21,0-36.32,0-3.15,0-4.64,1.72-4.64,4.87q0,17.89,0,35.78c0,4.13,1.39,5.49,5.57,5.49ZM67.6,15.08V15H49.47c-1.07,0-2.14,0-3.21,0-2.34,0-3.13,1.15-3.16,4.6S43.84,24,47.32,24q20.51,0,41,0a4,4,0,0,0,2.19-.34,6.79,6.79,0,0,0,1.8-2.29c.23-.44,0-1.12,0-1.68,0-4.06-.55-4.58-4.71-4.58Zm.29,96.47c5.55,0,11.09,0,16.63,0,1.51,0,2.21-.42,2.1-2a35.92,35.92,0,0,1,0-5.29c.16-1.84-.64-2.24-2.3-2.23-9.19,0-18.38,0-27.57,0-2,0-4,0-6,0-1.38,0-1.92.53-1.86,1.92.08,1.7,0,3.4,0,5.1,0,2.34.14,2.5,2.41,2.51ZM31.3,96.67A6.22,6.22,0,0,0,37.42,103a6.34,6.34,0,1,0,.19-12.67A6.22,6.22,0,0,0,31.3,96.67Zm59.84.06A6.14,6.14,0,0,0,97.3,103a6.23,6.23,0,0,0,6.36-6.47,6.36,6.36,0,0,0-6.31-6.18A6.22,6.22,0,0,0,91.14,96.73Zm-69.63,0a4.09,4.09,0,0,0,4.07,4.26,4.2,4.2,0,0,0,3.9-4.28,4.34,4.34,0,0,0-4.1-4.33A4.28,4.28,0,0,0,21.51,96.68Zm92.4-.1a4.08,4.08,0,0,0-3.9-4.24,4.31,4.31,0,0,0-4,4.25,4.13,4.13,0,0,0,4,4.35C112.32,101,113.92,99.15,113.91,96.58Z"/><path class="cls-1" d="M112.73,122.6c0,2.62.06,5.64,0,8.66A5.21,5.21,0,0,1,108,136.1a56,56,0,0,1-8.49,0c-3-.24-4.89-2.6-4.9-5.66,0-2.45,0-4.89,0-7.85Z"/><path class="cls-1" d="M22.27,122.39l18.2.72c-.12,2.52-.1,5.15-.4,7.75a4,4,0,0,1-3.62,3.81,55.47,55.47,0,0,1-9.72.27c-2.89-.25-4.44-2.48-4.48-5.39,0-2.33,0-4.66,0-7C22.25,122.38,22.3,122.19,22.27,122.39Z"/></g></g></svg>