<svg xmlns="http://www.w3.org/2000/svg" viewBox="0 0 133.06 136.26" width="64" height="64"><defs><style>.cls-1{fill:#cbcbcb;}.cls-2{fill:#cbcbcb;}</style></defs><title>ኣርሶኣደርና </title><g id="Layer_2" data-name="Layer 2"><g id="Layer_1-2" data-name="Layer 1"><path class="cls-1" d="M70.46,136.26c1.37-4.15,2.62-8.35,4.13-12.46A208.52,208.52,0,0,1,93,86.59a262.56,262.56,0,0,1,27.58-37c2.29-2.57,4.67-5.07,7.14-7.74C128.21,43,128.63,44,129,45a66.36,66.36,0,0,1,4,25.34c-.73,18.65-7.81,34.55-21.29,47.46A65.88,65.88,0,0,1,79.07,135c-2.42.51-4.9.78-7.35,1.16a3.81,3.81,0,0,0-.45.13Z"/><path class="cls-1" d="M28.92,126.31c-2-1.39-4-2.67-5.82-4.1a67.57,67.57,0,0,1-17.56-20.1,1.58,1.58,0,0,1,.17-2A108.85,108.85,0,0,1,24.25,79.79,176.06,176.06,0,0,1,59.62,56.43a252.49,252.49,0,0,1,41.66-16.7q10.85-3.3,21.94-5.62c.23,0,.66,0,.75.16.84,1.5,1.63,3,2.45,4.59-1.8.77-3.51,1.46-5.18,2.22A154.78,154.78,0,0,0,99.82,53.31,261.68,261.68,0,0,0,68.94,77.43a212,212,0,0,0-30.78,33.9,125.25,125.25,0,0,0-8.74,14.09C29.28,125.68,29.13,125.93,28.92,126.31Z"/><path class="cls-1" d="M1,44.22A68.17,68.17,0,0,1,119.81,27.93l-3.92-.48c-6.11-.74-12.25-1-18.4-1.17-7.6-.17-15.19.06-22.77.57A261.19,261.19,0,0,0,48,30a191.38,191.38,0,0,0-32.94,8.36C10.54,40,6.17,42.05,1.73,43.9Z"/><path class="cls-2" d="M63.42,113.89A26.74,26.74,0,0,0,60.81,102a14.91,14.91,0,0,0-2-2.82c1.91,4.72,3.17,9.51,2.4,14.75h2.08v19.58H61.17V114.05c-3.74-1.29-5.72-4.13-5.75-8.45,0-1.65.35-3.29.44-4.94.1-1.92.08-3.84.12-5.76v-.48a17.6,17.6,0,0,1,2.12.87A15.79,15.79,0,0,1,66.2,106,7.72,7.72,0,0,1,63.42,113.89Z"/><path class="cls-2" d="M14.5,64.29c-3.61-1.17-5.58-3.7-5.79-7.69-.08-1.64.23-3.3.3-5,.09-2.18.11-4.37.17-6.55,0-.1,0-.2.07-.49A23.54,23.54,0,0,1,12,45.91,15.63,15.63,0,0,1,19.48,56.5a7.47,7.47,0,0,1-2.19,7,1.82,1.82,0,0,0-.6,1.46c0,5.91,0,11.82,0,17.73v1H15c-.56,0-.43-.45-.43-.76,0-3.51,0-7,0-10.51V65C14.54,64.75,14.51,64.51,14.5,64.29ZM12,49.44C14,54.11,15.32,58.86,14.52,64h2.1C16.49,58.67,15.58,53.64,12,49.44Z"/><path class="cls-2" d="M75.87,75.26c.11,0,.36.07.6.15,3.63,1.28,6.85,6,6.66,9.84a5.29,5.29,0,0,1-2,4A19,19,0,0,0,79,80.37a8.21,8.21,0,0,0-1.25-1.66c1.37,3.36,2.33,6.77,1.74,10.5a2.94,2.94,0,0,1-2.17-.94,6.61,6.61,0,0,1-2-4.66A19.45,19.45,0,0,1,75.44,81C75.57,79.09,75.72,77.21,75.87,75.26Z"/><path class="cls-2" d="M42.23,49c-2.38-.58-3.94-2.53-4.15-5.35a25.1,25.1,0,0,1,.14-3.35c.11-1.77.24-3.54.38-5.41a9.08,9.08,0,0,1,1.31.52,11.35,11.35,0,0,1,5.91,8,5.61,5.61,0,0,1-2,5.43c-.21-3.86-.77-7.48-3.38-10.42.3.78.6,1.57.89,2.36A16,16,0,0,1,42.21,49Z"/><path class="cls-2" d="M46.63,116.41a9.55,9.55,0,0,1,7.86-4,6.76,6.76,0,0,1,5.89,3.47,28.34,28.34,0,0,0-9.06-.45,2.56,2.56,0,0,0-.89.31,56.52,56.52,0,0,1,10.16,1.39,4.44,4.44,0,0,1-3.82,2.44,8.9,8.9,0,0,1-4.74-.9C50.29,117.87,48.5,117.19,46.63,116.41Z"/><path class="cls-2" d="M13.63,66c-3.3-.49-6.51-1-9.74-.07,1.67.15,3.35.25,5,.45s3.28.53,5,.81a3.69,3.69,0,0,1-2.27,2.17,7.16,7.16,0,0,1-5.25-.12c-2.13-.82-4.2-1.77-6.39-2.7a9.35,9.35,0,0,1,6.86-3.92A6.64,6.64,0,0,1,13.63,66Z"/><path class="cls-2" d="M26.6,60a9.49,9.49,0,0,1-1.32,8.26c-1.49,2.21-3.7,3.06-6.53,3,2.5-2.39,4.82-4.69,6.11-7.79a63.78,63.78,0,0,1-7.08,7.26,3.37,3.37,0,0,1-.33-3.11,7.36,7.36,0,0,1,3.26-4C22.63,62.36,24.58,61.22,26.6,60Z"/><path class="cls-2" d="M73.28,109.86a9.58,9.58,0,0,1-1.38,8.32c-1.5,2.17-3.69,3-6.49,2.92,2.51-2.4,4.86-4.72,6.14-7.85a67.45,67.45,0,0,1-7.12,7.34,3.54,3.54,0,0,1-.29-3.21,7.3,7.3,0,0,1,3.23-3.95C69.28,112.23,71.24,111.09,73.28,109.86Z"/><path class="cls-2" d="M97.64,67.42c-.12-2.57-.63-4.92-2.37-6.83C96.1,62.78,97,65,96.45,67.43a2.75,2.75,0,0,1-2.17-1.07,4.85,4.85,0,0,1-1.06-3.82c.14-1.45.33-2.9.5-4.44a3.62,3.62,0,0,1,.71.19A8.44,8.44,0,0,1,99,62.81a3.66,3.66,0,0,1-.82,4.27A5,5,0,0,1,97.64,67.42Z"/><path class="cls-2" d="M68.23,39.15a3.39,3.39,0,0,1-3.18-3,11.48,11.48,0,0,1,0-2.62c.08-1.19.22-2.38.35-3.65,0,0,0,0,.14,0a8,8,0,0,1,5.44,6,3.22,3.22,0,0,1-1.66,3.36l0,0A10.09,10.09,0,0,0,67,32.34a13,13,0,0,1,1.22,6.83Z"/><path class="cls-2" d="M51,45.9a7,7,0,0,1-1.07,6.2,4.86,4.86,0,0,1-4.6,2,17.84,17.84,0,0,0,4.31-5.48,31,31,0,0,1-5.2,5.09,2.85,2.85,0,0,1-.07-2.7,5.77,5.77,0,0,1,2.46-2.66C48.14,47.52,49.5,46.75,51,45.9Z"/><path class="cls-2" d="M78.88,90.78a20,20,0,0,0-7.11-.21l7.31.94a2.83,2.83,0,0,1-2.5,1.86,7.89,7.89,0,0,1-2.83-.27c-1.62-.52-3.17-1.25-4.83-1.93A6.78,6.78,0,0,1,74,88.3,5.12,5.12,0,0,1,78.88,90.78Z"/><path class="cls-2" d="M86.81,89.14l-5.09,5.09a2.63,2.63,0,0,1-.12-2.71,7.64,7.64,0,0,1,2-2.36c1.43-1,3-1.84,4.64-2.79a6.75,6.75,0,0,1-.82,5.84,5.09,5.09,0,0,1-4.81,2.33A18.66,18.66,0,0,0,86.81,89.14Z"/><path class="cls-2" d="M41.46,50.1c-2-.06-4.06-.12-6.08-.15a3.37,3.37,0,0,0-.85.21l7.31.89A3.25,3.25,0,0,1,39,52.94a6.72,6.72,0,0,1-2.52-.31c-1.6-.54-3.15-1.25-4.79-1.93a6.79,6.79,0,0,1,5.07-2.85A5,5,0,0,1,41.46,50.1Z"/><path class="cls-2" d="M79.44,89.43H81c0,.21.07.42.07.62V102.7c0,1-.1,1.08-1.06.94a.74.74,0,0,1-.49-.51C79.44,98.6,79.44,94.06,79.44,89.43Z"/><path class="cls-2" d="M42.21,49h1.48V63.13l-.94.07c-.4,0-.57-.14-.57-.56,0-4.56,0-9.13,0-13.69Z"/><path class="cls-2" d="M69.94,42.57a1.71,1.71,0,0,1,.06-2,9,9,0,0,1,2-1.7c.89-.57,1.88-1,2.91-1.51a4.07,4.07,0,0,1-4.07,5.39l3.11-3.44-.19-.17Z"/><path class="cls-2" d="M103.14,65.72A4,4,0,0,1,99,71.05c.57-.57,1.13-1.09,1.64-1.65A8.62,8.62,0,0,0,102,67.5l-3.75,3.43a1.52,1.52,0,0,1,0-1.89,7.29,7.29,0,0,1,1.82-1.73A32,32,0,0,1,103.14,65.72Z"/><path class="cls-2" d="M62.5,40.08l5.35.62A2.81,2.81,0,0,1,65,42a7.55,7.55,0,0,1-1.85-.44c-1-.32-2-.69-3-1.07a5.21,5.21,0,0,1,3.91-1.91A3.52,3.52,0,0,1,67.37,40H62.51Z"/><path class="cls-2" d="M88.51,68.87c1.38-2.35,5.65-2.62,7.18-.48H90.56l5.53.62a1.87,1.87,0,0,1-1.79,1.28A11,11,0,0,1,91.56,70C90.53,69.69,89.56,69.25,88.51,68.87Z"/><path class="cls-2" d="M87.46,28.1a5,5,0,0,1,3.71,4.11,2.34,2.34,0,0,1-1,2.1,6.46,6.46,0,0,0-1.54-4.54A22.36,22.36,0,0,1,89.22,32a21.58,21.58,0,0,1,.23,2.3,2.46,2.46,0,0,1-2.29-2.42,10,10,0,0,1,.11-1.43C87.33,29.68,87.4,28.92,87.46,28.1Z"/><path class="cls-2" d="M69.33,39.14v9.51h-1.1v-9.5l0,0h1.15Z"/><path class="cls-2" d="M96.51,67.64h1V77h-1Z"/><path class="cls-2" d="M91.09,36.74l2-2.09L93,34.53l-2.36,2-.21-.25c-.14-2.3,2.19-2.19,3.4-3.35a2.6,2.6,0,0,1-.19,2.51A2.55,2.55,0,0,1,91.09,36.74Z"/><path class="cls-2" d="M84,35.21a3.2,3.2,0,0,1,4.9-.37h-3V35L89,35.3l0,.28C87.31,37,85.72,35.47,84,35.21Z"/><path class="cls-2" d="M89.66,34.41c.14.19.4.37.4.56,0,1.82,0,3.63,0,5.45,0,.16-.23.31-.35.47-.11-.15-.3-.3-.3-.45,0-1.94,0-3.89,0-5.83Z"/></g></g></svg>