<?xml version="1.0" encoding="UTF-8"?>
<!DOCTYPE svg PUBLIC "-//W3C//DTD SVG 1.1//EN" "http://www.w3.org/Graphics/SVG/1.1/DTD/svg11.dtd">
<!-- Creator: CorelDRAW 2020 -->
<svg xmlns="http://www.w3.org/2000/svg" xml:space="preserve" width="176px" height="151px" version="1.1" style="shape-rendering:geometricPrecision; text-rendering:geometricPrecision; image-rendering:optimizeQuality; fill-rule:evenodd; clip-rule:evenodd"
viewBox="0 0 52.273 44.679"
 xmlns:xlink="http://www.w3.org/1999/xlink"
 xmlns:xodm="http://www.corel.com/coreldraw/odm/2003">
 <defs>
  <style type="text/css">
   <![CDATA[
    .fil0 {fill:#EDEDED;fill-rule:nonzero}
   ]]>
  </style>
 </defs>
 <g id="Layer_x0020_1">
  <metadata id="CorelCorpID_0Corel-Layer"/>
  <g id="Layer_17" data-name="Layer 17">
   <path class="fil0" d="M52.185 19.317c-0.129,0.103 -0.204,0.26 -0.204,0.425 0,0.024 0.001,0.048 0.005,0.071 0,0.04 -0.043,0.085 -0.064,0.13 -0.042,-0.029 -0.103,-0.047 -0.125,-0.085 -0.277,-0.487 -0.726,-0.811 -1.114,-1.192 -0.2,-0.149 -0.412,-0.284 -0.631,-0.402 -0.146,-0.112 -0.284,-0.239 -0.408,-0.374 -0.115,-0.104 -0.26,-0.169 -0.414,-0.184 -0.206,-0.049 -0.403,-0.128 -0.586,-0.235 -0.12,-0.078 -0.236,-0.164 -0.346,-0.256 -0.047,-0.037 -0.104,-0.059 -0.164,-0.063 -0.264,0 -0.529,-0.015 -0.793,0 -0.09,0.016 -0.173,0.061 -0.235,0.129 -0.093,0.099 -0.223,0.155 -0.359,0.155 -0.015,0 -0.03,-0.001 -0.045,-0.002 -0.078,-0.004 -0.157,-0.007 -0.235,-0.007 -0.079,0 -0.158,0.003 -0.236,0.007 -0.31,0.019 -0.621,0.042 -0.94,0.075 -0.244,0.079 -0.418,0.293 -0.445,0.548 0,0.726 0,1.453 0,2.18 0,0.303 -0.131,0.432 -0.437,0.442 -0.081,0 -0.161,0.017 -0.235,0.049 -0.282,0.137 -0.56,0.287 -0.842,0.426 -0.311,0.168 -0.569,0.42 -0.745,0.726 -0.125,0.192 -0.192,0.415 -0.192,0.643 0,0.015 0.001,0.03 0.001,0.044 0,0.005 0,0.01 0,0.015 0,0.174 0.075,0.34 0.205,0.455 0.181,0.172 0.176,0.207 0,0.377 -0.144,0.169 -0.224,0.385 -0.224,0.608 0,0.14 0.032,0.279 0.092,0.405 0.19,0.341 0.195,0.383 -0.092,0.647 -0.169,0.139 -0.268,0.346 -0.268,0.566 0,0.034 0.003,0.068 0.007,0.102 0.012,0.087 0.018,0.175 0.018,0.263 0,0.395 -0.12,0.782 -0.342,1.108 -0.184,0.304 -0.418,0.577 -0.689,0.806 -0.143,0.085 -0.231,0.238 -0.231,0.404 0,0.143 0.065,0.278 0.177,0.367 0.131,0.134 0.275,0.252 0.402,0.386 0.023,0.03 0.036,0.067 0.036,0.105 0,0.014 -0.002,0.029 -0.006,0.043 -0.107,0.172 -0.252,0.317 -0.423,0.426 -0.198,0.113 -0.376,0.257 -0.529,0.426 -0.053,0.077 -0.081,0.169 -0.081,0.263 0,0.116 0.043,0.229 0.121,0.315 0.172,0.172 0.36,0.327 0.559,0.506 -0.097,0.158 -0.248,0.277 -0.425,0.333 -0.223,0.048 -0.383,0.243 -0.386,0.471 0,0.216 0,0.433 0,0.649 0.001,0.007 0.001,0.014 0.001,0.022 0,0.2 -0.162,0.362 -0.362,0.362 -0.007,0 -0.015,-0.001 -0.022,-0.001 -0.037,-0.004 -0.074,-0.006 -0.111,-0.006 -0.207,0 -0.41,0.061 -0.583,0.175 -0.213,0.128 -0.446,0.221 -0.688,0.276 -0.327,0.12 -0.617,0.326 -0.838,0.594 -0.127,0.132 -0.091,0.64 0.036,0.786 0.127,0.146 0.098,0.183 -0.033,0.282 -0.32,0.247 -0.363,0.47 -0.214,0.854 0.002,0.013 0.003,0.027 0.003,0.04 0,0.053 -0.018,0.103 -0.053,0.143 -0.138,0.155 -0.289,0.303 -0.442,0.449 -0.099,0.08 -0.156,0.201 -0.156,0.329 0,0.018 0.001,0.036 0.003,0.054 0.011,0.053 0.016,0.107 0.016,0.161 0,0.275 -0.138,0.531 -0.368,0.681 -0.197,0.149 -0.312,0.381 -0.312,0.627 0,0.032 0.002,0.064 0.006,0.095 0.005,0.041 0.008,0.083 0.008,0.125 0,0.292 -0.133,0.568 -0.361,0.75 -0.378,0.241 -0.608,0.658 -0.608,1.107 0,0.093 0.01,0.185 0.03,0.276 0.006,0.044 0.009,0.09 0.009,0.135 0,0.045 -0.003,0.09 -0.009,0.135 -0.008,0.039 -0.011,0.078 -0.011,0.118 0,0.196 0.091,0.381 0.246,0.5 0.113,0.087 0.113,0.186 0,0.29 -0.228,0.22 -0.4,0.493 -0.499,0.795 -0.092,0.219 -0.225,0.42 -0.39,0.592 -0.105,0.119 -0.164,0.272 -0.164,0.43 0,0.087 0.018,0.172 0.051,0.252 0.092,0.158 0.021,0.235 -0.094,0.306 -0.115,0.07 -0.254,0.176 -0.388,0.254 -0.064,0.042 -0.138,0.067 -0.214,0.073 -0.409,0 -0.818,0 -1.227,0 -0.015,0.003 -0.029,0.005 -0.044,0.005 -0.015,0 -0.029,-0.002 -0.043,-0.005 -0.377,-0.212 -0.786,-0.116 -1.176,-0.132 -0.308,-0.012 -0.623,0.04 -0.915,-0.122 -0.056,-0.033 -0.143,0 -0.212,-0.026 -0.102,-0.022 -0.202,-0.057 -0.296,-0.104 -0.214,-0.113 -0.426,-0.235 -0.637,-0.36 -0.086,-0.039 -0.166,-0.093 -0.235,-0.157 -0.224,-0.27 -0.431,-0.555 -0.652,-0.828 -0.105,-0.138 -0.224,-0.266 -0.352,-0.383 -0.206,-0.191 -0.368,-0.427 -0.471,-0.689 -0.013,-0.034 -0.028,-0.067 -0.047,-0.099 -0.204,-0.263 -0.395,-0.54 -0.621,-0.783 -0.653,-0.705 -1.321,-1.375 -1.984,-2.062 -0.11,-0.134 -0.27,-0.219 -0.442,-0.235 -0.235,-0.017 -0.471,-0.346 -0.518,-0.583 -0.035,-0.099 -0.083,-0.194 -0.143,-0.28 -0.049,-0.111 -0.094,-0.235 -0.139,-0.334 -0.027,-0.096 -0.066,-0.188 -0.117,-0.273 -0.108,-0.134 -0.247,-0.235 -0.362,-0.374 -0.106,-0.15 -0.278,-0.239 -0.461,-0.239 -0.024,0 -0.047,0.001 -0.071,0.004 -0.014,0.005 -0.029,0.007 -0.045,0.007 -0.015,0 -0.03,-0.002 -0.044,-0.007 -0.33,-0.235 -0.748,-0.287 -1.035,-0.604 -0.388,-0.426 -0.814,-0.819 -1.218,-1.23 -0.1,-0.113 -0.244,-0.178 -0.394,-0.178 -0.012,0 -0.025,0.001 -0.036,0.002 -0.098,0.004 -0.199,0.007 -0.298,0.007 -0.099,0 -0.199,-0.003 -0.297,-0.008 -0.014,-0.001 -0.029,-0.002 -0.043,-0.002 -0.137,0 -0.268,0.061 -0.357,0.165 -0.155,0.175 -0.378,0.275 -0.612,0.275 -0.022,0 -0.044,-0.001 -0.065,-0.003 -0.198,0 -0.398,0 -0.595,0 -0.011,0 -0.021,-0.001 -0.031,-0.001 -0.135,0 -0.263,0.058 -0.353,0.159 -0.141,0.148 -0.289,0.289 -0.432,0.435 -0.118,0.131 -0.285,0.206 -0.461,0.206 -0.012,0 -0.025,-0.001 -0.038,-0.001 -0.045,-0.005 -0.09,-0.007 -0.135,-0.007 -0.045,0 -0.09,0.002 -0.135,0.007 -0.024,0.002 -0.049,0.003 -0.073,0.003 -0.205,0 -0.401,-0.087 -0.539,-0.239 -0.149,-0.105 -0.321,-0.174 -0.503,-0.199 -0.071,-0.01 -0.143,-0.015 -0.215,-0.015 -0.072,0 -0.144,0.005 -0.215,0.014 -0.029,0.004 -0.058,0.005 -0.088,0.005 -0.2,0 -0.392,-0.074 -0.54,-0.209 -0.07,-0.053 -0.155,-0.082 -0.242,-0.082 -0.014,0 -0.027,0.001 -0.04,0.002 -0.022,0.002 -0.044,0.002 -0.066,0.002 -0.235,0 -0.462,-0.084 -0.64,-0.237 -0.192,-0.151 -0.409,-0.271 -0.592,-0.43 -0.184,-0.16 -0.186,-0.264 -0.031,-0.471 0.072,-0.119 0.111,-0.256 0.111,-0.395 0,-0.139 -0.039,-0.276 -0.111,-0.395 -0.061,-0.093 -0.098,-0.2 -0.108,-0.31 -0.016,-0.205 0,-0.409 0,-0.614 0.001,-0.012 0.002,-0.025 0.002,-0.037 0,-0.202 -0.164,-0.367 -0.367,-0.367 -0.011,0 -0.023,0.001 -0.035,0.002 -0.019,0.002 -0.038,0.002 -0.057,0.002 -0.185,0 -0.362,-0.08 -0.484,-0.221 -0.144,-0.168 -0.316,-0.313 -0.507,-0.425 -0.21,-0.153 -0.463,-0.236 -0.722,-0.236 -0.02,0.003 -0.041,0.004 -0.061,0.004 -0.193,0 -0.371,-0.103 -0.468,-0.269 -0.169,-0.187 -0.263,-0.43 -0.263,-0.682 0,-0.039 0.002,-0.077 0.006,-0.115 0.004,-0.051 0.006,-0.102 0.006,-0.153 0,-0.369 -0.106,-0.731 -0.304,-1.042 -0.037,-0.087 -0.057,-0.181 -0.059,-0.275 -0.026,-0.306 0.044,-0.614 -0.125,-0.912 -0.073,-0.13 -0.019,-0.33 -0.023,-0.497 0,-0.073 0,-0.162 -0.024,-0.211 -0.146,-0.198 -0.103,-0.421 -0.127,-0.64 -0.012,-0.117 -0.058,-0.227 -0.134,-0.317 -0.206,-0.234 -0.429,-0.456 -0.663,-0.661 -0.104,-0.073 -0.225,-0.12 -0.35,-0.139 -0.051,-0.003 -0.102,-0.004 -0.153,-0.004 -0.051,0 -0.103,0.001 -0.153,0.004 -0.054,-0.011 -0.108,-0.017 -0.163,-0.017 -0.237,0 -0.461,0.107 -0.611,0.29 -0.04,0.054 -0.148,0.061 -0.223,0.087 -0.009,0.002 -0.018,0.003 -0.027,0.003 -0.009,0 -0.018,-0.001 -0.027,-0.003 -0.074,-0.015 -0.15,-0.023 -0.226,-0.023 -0.374,0 -0.724,0.19 -0.927,0.505 -0.062,0.092 -0.142,0.172 -0.235,0.235 -0.105,0.071 -0.222,0.122 -0.345,0.151 -0.236,0.054 -0.506,0.07 -0.671,0.296 -0.345,0.47 -0.851,0.442 -1.352,0.423 -0.043,0 -0.084,-0.017 -0.115,-0.047 -0.113,-0.114 -0.268,-0.179 -0.429,-0.179 -0.051,0 -0.102,0.006 -0.152,0.019 -0.425,0.073 -0.63,-0.223 -0.853,-0.484 -0.163,-0.188 -0.308,-0.393 -0.471,-0.586 -0.047,-0.061 -0.112,-0.108 -0.16,-0.169 -0.047,-0.054 -0.073,-0.124 -0.073,-0.195 0,-0.092 0.043,-0.179 0.116,-0.235 0.214,-0.193 0.428,-0.388 0.628,-0.593 0.09,-0.132 0.139,-0.289 0.139,-0.449 0,-0.16 -0.049,-0.317 -0.139,-0.449 -0.059,-0.051 -0.113,-0.108 -0.16,-0.17 -0.07,-0.099 -0.117,-0.213 -0.139,-0.333 -0.019,-0.28 0,-0.565 0,-0.847 0,-0.008 -0.001,-0.015 -0.001,-0.023 0,-0.139 0.09,-0.263 0.222,-0.306 0.176,-0.08 0.336,-0.198 0.513,-0.28 0.089,-0.047 0.188,-0.071 0.289,-0.071 0.011,0 0.022,0 0.033,0.001 0.035,0.005 0.071,0.008 0.106,0.008 0.22,0 0.427,-0.106 0.557,-0.284 0.073,-0.106 0.193,-0.169 0.322,-0.169 0.024,0 0.049,0.002 0.073,0.007 0.059,0.007 0.12,0.01 0.179,0.01 0.266,0 0.528,-0.066 0.762,-0.193 0.352,-0.165 0.757,-0.278 1.006,-0.633 0.118,-0.143 0.249,-0.277 0.39,-0.397 0.184,-0.171 0.333,-0.376 0.44,-0.602 0.133,-0.247 0.299,-0.477 0.49,-0.682 0.098,-0.111 0.157,-0.252 0.166,-0.4 0.026,-0.292 0.04,-0.595 0.304,-0.811 0.074,-0.084 0.115,-0.192 0.117,-0.304 0.007,-0.122 0.011,-0.246 0.011,-0.369 0,-0.122 -0.004,-0.247 -0.01,-0.369 -0.001,-0.009 -0.001,-0.017 -0.001,-0.026 0,-0.179 0.074,-0.35 0.205,-0.472 0.167,-0.165 0.336,-0.327 0.496,-0.499 0.147,-0.15 0.349,-0.235 0.56,-0.235 0.008,0 0.016,0 0.023,0 0.583,0 1.176,0 1.75,0 0.127,-0.012 0.248,-0.06 0.35,-0.137 0.194,-0.159 0.428,-0.262 0.677,-0.296 0.105,-0.019 0.202,-0.071 0.275,-0.148 0.261,-0.247 0.508,-0.512 0.769,-0.759 0.119,-0.098 0.244,-0.189 0.374,-0.271 0.118,-0.082 0.235,-0.167 0.355,-0.235 0.12,-0.068 0.196,-0.106 0.292,-0.162 0.079,-0.039 0.155,-0.086 0.223,-0.141 0.16,-0.148 0.311,-0.304 0.471,-0.459 0.033,-0.047 0.087,-0.075 0.145,-0.075 0.058,0 0.113,0.028 0.146,0.075 0.32,0.278 0.642,0.55 0.971,0.816 0.069,0.05 0.151,0.078 0.235,0.082 0.144,0.015 0.287,0 0.433,0 0.022,0.003 0.044,0.005 0.066,0.005 0.135,0 0.265,-0.053 0.362,-0.146 0.054,-0.037 0.115,-0.063 0.179,-0.075 0.144,-0.03 0.284,-0.08 0.416,-0.146 0.289,-0.197 0.555,-0.43 0.84,-0.637 0.103,-0.063 0.213,-0.117 0.327,-0.158 0.062,-0.018 0.122,-0.044 0.178,-0.077 0.2,-0.162 0.388,-0.339 0.588,-0.501 0.092,-0.075 0.192,-0.139 0.299,-0.191 0.317,-0.16 0.581,-0.411 0.757,-0.719 0.075,-0.166 0.131,-0.341 0.167,-0.52 0.022,-0.054 0.048,-0.108 0.077,-0.16 0.041,-0.096 0.089,-0.191 0.142,-0.282 0.058,-0.112 0.138,-0.212 0.235,-0.294 0.308,-0.218 0.291,-0.529 0.265,-0.844 -0.011,-0.16 -0.235,-0.341 -0.392,-0.381 -0.118,-0.029 -0.229,-0.081 -0.327,-0.153 -0.174,-0.131 -0.332,-0.284 -0.47,-0.397 0.159,-0.177 0.331,-0.379 0.515,-0.567 0.108,-0.092 0.171,-0.228 0.171,-0.371 0,-0.014 -0.001,-0.028 -0.002,-0.043 -0.005,-0.031 -0.008,-0.064 -0.008,-0.096 0,-0.167 0.07,-0.327 0.194,-0.44 0.077,-0.101 0.12,-0.225 0.12,-0.353 0,-0.127 -0.043,-0.251 -0.12,-0.352 -0.066,-0.078 -0.138,-0.152 -0.214,-0.219 -0.123,-0.112 -0.194,-0.27 -0.194,-0.436 0,-0.007 0.001,-0.015 0.001,-0.023 -0.033,-0.428 0.235,-0.543 0.588,-0.59 0.113,-0.002 0.228,-0.011 0.341,-0.026 0.395,-0.087 0.618,-0.402 0.837,-0.705 0.153,-0.202 0.033,-0.802 -0.148,-0.988l-0.064 -0.063c-0.331,-0.332 -0.322,-0.365 -0.052,-0.746 0.151,-0.181 0.234,-0.409 0.236,-0.644 0.008,-0.155 0.032,-0.309 0.072,-0.459 0.024,-0.164 0.047,-0.329 0.064,-0.496 0.016,-0.167 0.092,-0.221 0.247,-0.2 0.183,0.038 0.371,0.057 0.558,0.057 0.015,0 0.031,0 0.046,0 0.001,0 0.002,0 0.002,0 0.238,0 0.472,0.069 0.671,0.2 0.109,0.043 0.223,0.075 0.338,0.094 0.047,0.003 0.094,0.012 0.139,0.026 0.409,0.235 0.849,0.12 1.27,0.091 0.188,-0.014 0.374,-0.199 0.541,-0.329 0.101,-0.077 0.153,-0.082 0.235,0 0.28,0.304 0.658,0.395 1.039,0.511 0.259,0.059 0.513,0.147 0.753,0.261 0.235,0.141 0.512,0.218 0.738,0.381 0.037,0.031 0.083,0.051 0.132,0.056 0.376,0 0.752,-0.021 1.129,-0.035 0.035,0 0.077,-0.029 0.105,-0.019 0.168,0.055 0.332,0.128 0.487,0.214 0.174,0.115 0.313,0.284 0.489,0.397 0.169,0.091 0.345,0.17 0.525,0.235 0.093,0.033 0.182,0.077 0.265,0.13 0.236,0.176 0.337,0.458 0.511,0.679 0.334,0.43 0.708,0.83 1.112,1.194 0.179,0.165 0.47,0.2 0.705,0.311 0.191,0.084 0.371,0.192 0.536,0.318 0.16,0.129 0.29,0.28 0.527,0.261 0.093,0.008 0.178,0.054 0.235,0.127 0.247,0.296 0.555,0.537 0.901,0.705 0.277,0.119 0.533,0.284 0.755,0.487 0.031,0.028 0.071,0.043 0.113,0.043 0.006,0 0.012,0 0.019,-0.001 0.369,-0.047 0.618,0.2 0.888,0.374 0.117,0.089 0.26,0.137 0.406,0.137 0.008,0 0.017,0 0.025,-0.001 0.039,-0.005 0.079,-0.008 0.119,-0.008 0.206,0 0.405,0.071 0.565,0.199 0.134,0.102 0.298,0.158 0.467,0.158 0.011,0 0.023,0 0.034,-0.001 0.36,-0.04 0.593,0.184 0.87,0.323 0.105,0.047 0.214,0.088 0.324,0.122 0.126,0.029 0.246,0.079 0.356,0.146 0.104,0.093 0.239,0.145 0.379,0.145 0.022,0 0.045,-0.002 0.067,-0.004 0.041,-0.007 0.083,-0.01 0.125,-0.01 0.224,0 0.436,0.098 0.581,0.269 0.179,0.161 0.412,0.251 0.653,0.251 0.001,0 0.002,0 0.003,0 0.118,0.027 0.234,0.065 0.345,0.113 0.192,0.076 0.392,0.132 0.595,0.164 0.457,0.024 0.913,0 1.371,0 0.005,0 0.009,0 0.013,0 0.134,0 0.262,0.053 0.357,0.146 0.207,0.179 0.43,0.337 0.644,0.508 0.047,0.052 0.089,0.108 0.125,0.167 -0.091,0.034 -0.179,0.076 -0.262,0.125 -0.151,0.119 -0.24,0.301 -0.24,0.494 0,0.175 0.073,0.342 0.201,0.461 0.093,0.07 0.205,0.11 0.322,0.115 0.005,0 0.01,0 0.015,0 0.134,0 0.262,0.057 0.352,0.157 0.03,0.036 0.072,0.064 0.101,0.101 0.174,0.26 0.467,0.416 0.78,0.416 0.054,0 0.107,-0.004 0.16,-0.013 0.304,0.016 0.559,0.235 0.621,0.533 0.029,0.178 0.176,0.312 0.355,0.325 0.193,0 0.386,0 0.578,0 0.149,0 0.21,0.073 0.222,0.221 0.004,0.029 0.006,0.059 0.006,0.089 0,0.187 -0.081,0.365 -0.223,0.487 -0.105,0.119 -0.163,0.273 -0.163,0.432 0,0.158 0.058,0.312 0.163,0.431l0.299 0.322c-0.052,0.016 -0.106,0.028 -0.16,0.036 -0.018,-0.002 -0.037,-0.003 -0.056,-0.003 -0.328,0 -0.595,0.266 -0.595,0.595 0,0.029 0.003,0.058 0.007,0.087 0.002,0.045 0.003,0.09 0.003,0.135 0,0.045 -0.001,0.091 -0.003,0.135 -0.004,0.028 -0.006,0.057 -0.006,0.085 0,0.197 0.089,0.384 0.241,0.508 0.078,0.094 0.123,0.212 0.127,0.334 0,0.005 -0.001,0.011 -0.001,0.017 0,0.27 0.22,0.489 0.49,0.489 0.007,0 0.014,0 0.021,-0.001l1.065 0.001c0.433,0 0.365,-0.052 0.384,0.369 0.016,0.12 0.064,0.233 0.141,0.326 0.059,0.058 0.138,0.091 0.221,0.092 0.006,0 0.012,0 0.017,0 0.225,0 0.44,0.096 0.59,0.264 0.155,0.195 0.366,0.178 0.611,0.174 -0.029,0.057 -0.062,0.113 -0.096,0.166 -0.083,0.092 -0.129,0.212 -0.129,0.336 0,0.141 0.059,0.275 0.164,0.37 0.082,0.087 0.169,0.172 0.254,0.256 0.033,0.029 0.052,0.071 0.052,0.116 0,0.059 -0.034,0.113 -0.088,0.138l0 0z"/>
  </g>
 </g>
</svg>
