<?xml version="1.0" encoding="UTF-8"?>
<!DOCTYPE svg PUBLIC "-//W3C//DTD SVG 1.1//EN" "http://www.w3.org/Graphics/SVG/1.1/DTD/svg11.dtd">
<!-- Creator: CorelDRAW 2020 -->
<svg xmlns="http://www.w3.org/2000/svg" xml:space="preserve" width="158px" height="83px" version="1.1" style="shape-rendering:geometricPrecision; text-rendering:geometricPrecision; image-rendering:optimizeQuality; fill-rule:evenodd; clip-rule:evenodd"
viewBox="0 0 64.864 33.928"
 xmlns:xlink="http://www.w3.org/1999/xlink"
 xmlns:xodm="http://www.corel.com/coreldraw/odm/2003">
 <defs>
  <style type="text/css">
   <![CDATA[
    .fil0 {fill:#EDEDED;fill-rule:nonzero}
   ]]>
  </style>
 </defs>
 <g id="Layer_x0020_1">
  <metadata id="CorelCorpID_0Corel-Layer"/>
  <g id="Layer_19" data-name="Layer 19">
   <path class="fil0" d="M64.826 7.098c0.005,0.036 0.008,0.072 0.008,0.109 0,0.135 -0.036,0.268 -0.105,0.385 -0.025,0.036 -0.014,0.097 -0.025,0.147 -0.035,0.122 -0.064,0.248 -0.083,0.373 -0.02,0.198 -0.018,0.396 -0.02,0.593 0.007,0.051 0.02,0.101 0.038,0.149 -0.071,-0.026 -0.144,-0.048 -0.218,-0.066 -0.239,-0.047 -0.395,0.095 -0.52,0.265 -0.078,0.105 -0.163,0.205 -0.253,0.299 -0.219,0.208 -0.342,0.498 -0.342,0.8 0,0.007 0,0.015 0,0.022 0,0.414 -0.05,0.825 -0.053,1.236 0,0.311 0.035,0.621 0.061,0.931 0.008,0.061 0.036,0.116 0.079,0.159 0.198,0.186 0.395,0.373 0.609,0.541 0.18,0.141 0.198,0.198 0.032,0.348 -0.197,0.147 -0.314,0.379 -0.314,0.625 0,0.038 0.003,0.077 0.009,0.115 0.008,0.108 0.012,0.217 0.012,0.326 0,0.109 -0.004,0.218 -0.012,0.326 0,0.009 -0.001,0.018 -0.001,0.026 0,0.114 0.049,0.222 0.133,0.297 0.151,0.133 0.261,0.306 0.319,0.498 0.039,0.136 0.198,0.243 0.295,0.356 0.185,0.197 0.187,0.197 0,0.383 -0.154,0.123 -0.254,0.3 -0.279,0.495 -0.014,0.168 -0.117,0.334 -0.117,0.519 0,0.038 -0.04,0.082 -0.067,0.115 -0.154,0.16 -0.299,0.33 -0.433,0.506 -0.148,0.22 -0.338,0.433 -0.277,0.738 0.003,0.02 0.005,0.04 0.005,0.06 0,0.02 -0.002,0.041 -0.005,0.06 -0.018,0.117 -0.089,0.147 -0.178,0.068 -0.107,-0.092 -0.209,-0.193 -0.303,-0.299 -0.108,-0.118 -0.262,-0.186 -0.423,-0.186 -0.005,0 -0.011,0 -0.016,0 -0.02,-0.001 -0.041,-0.002 -0.062,-0.002 -0.266,0 -0.516,0.126 -0.673,0.34 -0.057,0.069 -0.091,0.154 -0.095,0.244 -0.012,0.302 0,0.607 0,0.909 0,0.02 0,0.04 0,0.061 0.022,0.198 0.506,0.635 0.706,0.639 0.035,0.002 0.071,0.003 0.106,0.003 0.035,0 0.07,-0.001 0.106,-0.003 0.314,-0.04 0.478,0.138 0.61,0.395 0.075,0.143 0.114,0.301 0.115,0.461 0.016,0.094 0.059,0.182 0.125,0.251 0.078,0.079 0.122,0.186 0.122,0.298 0,0.117 -0.049,0.229 -0.134,0.309 -0.146,0.181 -0.362,0.292 -0.593,0.305 -0.07,0.012 -0.133,0.046 -0.18,0.098 -0.198,0.198 -0.396,0.378 -0.579,0.58 -0.147,0.164 -0.271,0.346 -0.396,0.52 -0.089,0.114 -0.164,0.098 -0.257,0 -0.107,-0.162 -0.273,-0.275 -0.463,-0.317 -0.025,-0.003 -0.048,-0.017 -0.063,-0.037 -0.239,-0.295 -0.569,-0.152 -0.864,-0.176 0,0 -0.001,0 -0.001,0 -0.015,0 -0.029,0.005 -0.04,0.014 -0.198,0.122 -0.396,0.241 -0.582,0.371 -0.104,0.07 -0.166,0.186 -0.166,0.311 0,0.014 0.001,0.028 0.002,0.041 0.012,0.23 -0.031,0.467 0.144,0.663 0.026,0.043 0.04,0.092 0.04,0.142 0,0.011 -0.001,0.021 -0.002,0.032 -0.001,0.017 -0.002,0.034 -0.002,0.05 0,0.134 0.035,0.266 0.101,0.383 0.021,0.036 0.032,0.076 0.032,0.118 0,0.083 -0.044,0.16 -0.115,0.202 -0.191,0.137 -0.376,0.286 -0.552,0.443 -0.069,0.083 -0.11,0.186 -0.116,0.295 -0.007,0.087 -0.011,0.176 -0.011,0.263 0,0.088 0.004,0.177 0.01,0.264 0.001,0.009 0.001,0.018 0.001,0.026 0,0.119 -0.049,0.232 -0.137,0.313 -0.229,0.239 -0.456,0.482 -0.67,0.735 -0.064,0.082 -0.099,0.183 -0.101,0.287 0,0.642 -0.089,0.441 0.372,0.919 0.273,0.283 0.547,0.566 0.791,0.866 0.12,0.137 0.293,0.216 0.476,0.216 0.05,0 0.101,-0.006 0.15,-0.018 0.134,-0.02 0.266,-0.048 0.396,-0.085 0.024,-0.007 0.05,-0.011 0.075,-0.011 0.148,0 0.267,0.119 0.267,0.267 0,0.004 0,0.008 0,0.013 0,0.15 0,0.302 0,0.454 0,0.087 -0.044,0.113 -0.123,0.113 -0.152,0 -0.304,0.014 -0.454,0 -0.315,-0.039 -0.534,0.123 -0.76,0.303 -0.225,0.18 -0.494,0.379 -0.749,0.555 -0.016,0.004 -0.033,0.006 -0.05,0.006 -0.048,0 -0.094,-0.016 -0.132,-0.045 -0.106,-0.103 -0.248,-0.161 -0.395,-0.161 -0.148,0 -0.29,0.058 -0.396,0.161 -0.053,0.057 -0.128,0.09 -0.206,0.09 -0.039,0 -0.077,-0.008 -0.112,-0.023 -0.117,-0.049 -0.135,-0.15 -0.135,-0.263 0,-0.198 0.026,-0.376 -0.14,-0.534 -0.125,-0.138 -0.303,-0.216 -0.49,-0.216 -0.01,0 -0.02,0 -0.03,0.001 -0.846,0.029 -1.692,0.043 -2.539,0.067 0,0 0,0 -0.001,0 -0.12,0 -0.236,-0.045 -0.325,-0.125 -0.084,-0.068 -0.187,-0.108 -0.294,-0.114 -0.851,0 -1.699,0 -2.549,0 -0.314,0 -0.362,-0.048 -0.362,-0.37 0,-0.008 -0.001,-0.015 -0.001,-0.023 0,-0.008 0.001,-0.015 0.001,-0.023 0.071,-0.395 -0.158,-0.626 -0.472,-0.749 -0.207,-0.064 -0.407,-0.154 -0.593,-0.265 -0.069,-0.025 -0.141,-0.039 -0.214,-0.039 -0.048,0 -0.096,0.006 -0.142,0.017 -0.006,0 -0.013,0.001 -0.019,0.001 -0.161,0 -0.313,-0.08 -0.404,-0.212 -0.234,-0.244 -0.477,-0.475 -0.724,-0.704 -0.054,-0.036 -0.118,-0.056 -0.183,-0.056 -0.005,0 -0.01,0 -0.015,0 -0.283,0 -0.565,-0.015 -0.848,0 -0.139,0.014 -0.273,0.056 -0.395,0.123 -0.042,0.029 -0.092,0.044 -0.143,0.044 -0.076,0 -0.148,-0.034 -0.196,-0.093 -0.106,-0.107 -0.209,-0.22 -0.324,-0.319 -0.088,-0.065 -0.182,-0.124 -0.279,-0.176 -0.045,-0.027 -0.112,-0.037 -0.144,-0.077 -0.103,-0.118 -0.252,-0.187 -0.409,-0.187 -0.037,0 -0.073,0.004 -0.109,0.011 -0.117,0 -0.233,0 -0.35,0 -0.016,-0.001 -0.032,-0.001 -0.048,-0.001 -0.163,0 -0.323,0.045 -0.462,0.13 -0.167,0.117 -0.365,0.18 -0.569,0.18 -0.008,0 -0.016,0 -0.024,0 -0.261,-0.02 -0.524,0 -0.791,0 -0.079,-0.002 -0.156,-0.027 -0.222,-0.071 -0.108,-0.081 -0.24,-0.125 -0.376,-0.125 -0.166,0 -0.326,0.066 -0.444,0.184 -0.161,0.21 -0.411,0.334 -0.677,0.334 -0.038,0 -0.076,-0.003 -0.114,-0.008 -0.021,0 -0.043,-0.001 -0.065,-0.001 -0.169,0 -0.337,0.022 -0.5,0.064 -0.076,0.027 -0.144,0.072 -0.198,0.131 -0.143,0.158 -0.334,0.264 -0.544,0.3 -0.103,0.01 -0.198,0.111 -0.293,0.17 -0.067,0.04 -0.138,0.111 -0.197,0.109 -0.156,0.003 -0.309,0.046 -0.445,0.123 -0.125,0.059 -0.267,0.083 -0.395,0.14 -0.079,0.044 -0.153,0.098 -0.218,0.16 -0.16,0.127 -0.312,0.267 -0.484,0.378 -0.039,0.02 -0.082,0.03 -0.125,0.03 -0.043,0 -0.086,-0.01 -0.124,-0.03 -0.13,-0.091 -0.285,-0.14 -0.444,-0.14 -0.044,0 -0.088,0.004 -0.132,0.011 -0.024,0.003 -0.048,0.004 -0.073,0.004 -0.162,0 -0.319,-0.056 -0.445,-0.158 -0.11,-0.069 -0.238,-0.106 -0.368,-0.106 -0.171,0 -0.336,0.063 -0.462,0.177l-1.888 1.887c-0.147,0.146 -0.188,0.158 -0.315,0 -0.165,-0.194 -0.408,-0.306 -0.663,-0.306 -0.017,0 -0.034,0 -0.05,0.001 -0.345,-0.016 -0.514,0.216 -0.74,0.378 -0.101,0.08 -0.195,0.17 -0.281,0.267 -0.03,0.041 -0.077,0.065 -0.128,0.065 -0.041,0 -0.08,-0.016 -0.109,-0.044 -0.091,-0.056 -0.194,-0.091 -0.301,-0.1 -0.16,-0.018 -0.324,0 -0.484,0 -0.014,-0.002 -0.029,-0.003 -0.044,-0.003 -0.135,0 -0.264,0.061 -0.351,0.165 -0.244,0.251 -0.495,0.492 -0.738,0.741 -0.078,0.085 -0.188,0.133 -0.304,0.133 -0.006,0 -0.012,0 -0.018,0 -0.688,0 -1.376,0 -2.062,0 -0.085,0 -0.167,0.026 -0.238,0.073 -0.111,0.074 -0.242,0.114 -0.376,0.114 -0.16,0 -0.316,-0.057 -0.438,-0.162 -0.183,-0.156 -0.411,-0.252 -0.651,-0.273 -0.067,-0.012 -0.134,-0.032 -0.197,-0.057 0.028,-0.064 0.061,-0.127 0.097,-0.188 0.031,-0.039 0.066,-0.076 0.104,-0.108 0.128,-0.107 0.202,-0.264 0.202,-0.431 0,-0.166 -0.074,-0.323 -0.202,-0.43 -0.182,-0.181 -0.358,-0.371 -0.551,-0.541 -0.085,-0.066 -0.188,-0.107 -0.295,-0.117 -0.088,-0.006 -0.177,-0.01 -0.265,-0.01 -0.088,0 -0.177,0.004 -0.265,0.01 -0.012,0.001 -0.024,0.001 -0.036,0.001 -0.146,0 -0.285,-0.06 -0.385,-0.165 -0.134,-0.139 -0.308,-0.231 -0.498,-0.265 -0.035,-0.004 -0.069,-0.018 -0.097,-0.039 -0.243,-0.24 -0.564,-0.175 -0.819,-0.113 -0.217,0.051 -0.417,0.227 -0.658,0.277 -0.04,0 -0.075,0.051 -0.101,0.089 -0.198,0.265 -0.461,0.235 -0.739,0.186 -0.157,-0.028 -0.321,-0.014 -0.479,-0.036 -0.113,-0.007 -0.224,-0.04 -0.322,-0.097 -0.305,-0.174 -0.651,-0.265 -1.001,-0.265 -0.032,0 -0.065,0 -0.096,0.002 -0.018,0.002 -0.036,0.003 -0.053,0.003 -0.256,0 -0.47,-0.192 -0.499,-0.446 -0.071,-0.29 -0.248,-0.545 -0.496,-0.712 -0.049,-0.035 -0.108,-0.054 -0.168,-0.055 -0.182,0 -0.364,0 -0.546,0 -0.072,0.003 -0.141,0.028 -0.198,0.073 -0.411,0.362 -0.82,0.726 -1.224,1.096 -0.146,0.132 -0.273,0.284 -0.423,0.411 -0.076,0.061 -0.168,0.1 -0.265,0.11 -0.227,0.014 -0.456,0 -0.682,0 -0.112,0.008 -0.22,0.051 -0.308,0.121 -0.297,0.257 -0.576,0.536 -0.87,0.791 -0.073,0.066 -0.168,0.103 -0.266,0.103 -0.001,0 -0.002,0 -0.003,0 -0.358,-0.04 -0.607,0.162 -0.858,0.364 -0.03,0.026 -0.059,0.054 -0.085,0.084 -0.135,0.125 -0.198,0.127 -0.321,0 -0.03,-0.026 -0.058,-0.056 -0.084,-0.086 -0.254,-0.321 -0.594,-0.327 -0.963,-0.295l-0.016 0c-0.277,0.165 -0.504,0.402 -0.657,0.686 -0.059,0.129 -0.095,0.265 -0.15,0.396 -0.172,0.169 -0.382,0.296 -0.613,0.369 -0.379,0 -0.757,0 -1.137,0 -0.094,0.003 -0.185,0.037 -0.257,0.097 -0.15,0.14 -0.292,0.293 -0.419,0.455 -0.049,0.094 -0.146,0.153 -0.252,0.153 -0.036,0 -0.072,-0.007 -0.106,-0.021 -0.114,-0.039 -0.251,-0.017 -0.369,-0.057 -0.109,-0.035 -0.209,-0.094 -0.293,-0.172 -0.265,-0.249 -0.518,-0.51 -0.775,-0.769 -0.125,-0.125 -0.136,-0.176 0,-0.283 0.243,-0.198 0.218,-0.453 0.166,-0.692 -0.024,-0.113 -0.184,-0.213 -0.302,-0.283 -0.066,-0.039 -0.111,-0.061 -0.099,-0.136 0.002,-0.018 0.003,-0.036 0.003,-0.054 0,-0.145 -0.07,-0.283 -0.187,-0.369 -0.125,-0.113 -0.235,-0.237 -0.358,-0.352 -0.052,-0.054 -0.116,-0.096 -0.186,-0.123 -0.189,-0.073 -0.353,-0.2 -0.47,-0.366 -0.015,-0.028 -0.023,-0.059 -0.023,-0.09 0,-0.032 0.008,-0.063 0.023,-0.091 0.255,-0.36 0.251,-0.631 -0.052,-0.949 -0.115,-0.121 -0.111,-0.198 0,-0.293 0.131,-0.096 0.215,-0.244 0.229,-0.405 0.014,-0.186 0.42,-0.501 0.604,-0.473 0.349,0.053 0.533,-0.168 0.731,-0.395 0.153,-0.153 0.239,-0.361 0.239,-0.578 0,-0.042 -0.003,-0.085 -0.01,-0.126 -0.001,-0.013 -0.002,-0.026 -0.002,-0.039 0,-0.104 0.046,-0.204 0.125,-0.272 0.126,-0.135 0.248,-0.279 0.36,-0.427 0.037,-0.053 0.058,-0.116 0.061,-0.182 0,-0.215 0.01,-0.435 0,-0.65 -0.012,-0.083 -0.045,-0.162 -0.095,-0.229 -0.052,-0.056 -0.081,-0.13 -0.081,-0.206 0,-0.076 0.029,-0.15 0.081,-0.206 0.045,-0.087 0.079,-0.179 0.101,-0.274 0,-0.022 0,-0.05 0,-0.076 0.075,-0.373 -0.099,-0.634 -0.378,-0.858 -0.113,-0.072 -0.245,-0.11 -0.379,-0.11 -0.135,0 -0.266,0.038 -0.38,0.11 -0.039,0.039 -0.082,0.075 -0.128,0.105 -0.028,0.023 -0.062,0.035 -0.098,0.035 -0.08,0 -0.146,-0.062 -0.151,-0.142 -0.01,-0.039 -0.012,-0.089 -0.038,-0.112 -0.225,-0.232 -0.443,-0.471 -0.688,-0.68 -0.127,-0.109 -0.471,-0.036 -0.607,0.075 -0.057,0.045 -0.166,0.104 -0.198,0.081 -0.054,-0.059 -0.092,-0.133 -0.107,-0.212 -0.025,-0.093 -0.047,-0.189 -0.063,-0.285l0.285 0.001c0.007,0 0.015,0 0.022,0 0.176,0 0.319,-0.142 0.319,-0.318 0,-0.007 -0.001,-0.014 -0.001,-0.021 0.001,-0.015 0.001,-0.031 0.001,-0.046 0,-0.265 -0.108,-0.518 -0.3,-0.701 -0.076,-0.074 -0.119,-0.176 -0.119,-0.283 0,-0.038 0.006,-0.076 0.017,-0.112 0.037,-0.198 0,-0.424 0.041,-0.631 0.012,-0.064 0.018,-0.128 0.018,-0.193 0,-0.348 -0.172,-0.673 -0.459,-0.869 -0.097,-0.101 -0.232,-0.159 -0.373,-0.159 -0.007,0 -0.015,0.001 -0.022,0.001 -0.023,0.003 -0.045,0.005 -0.068,0.005 -0.141,0 -0.274,-0.067 -0.357,-0.181 -0.128,-0.138 -0.295,-0.233 -0.479,-0.271 -0.219,-0.065 -0.433,-0.144 -0.662,-0.198 -0.115,-0.018 -0.199,-0.118 -0.199,-0.234 0,-0.08 0.041,-0.155 0.108,-0.199 0.13,-0.099 0.206,-0.253 0.206,-0.416 0,-0.032 -0.003,-0.063 -0.008,-0.094 -0.07,-0.35 0.16,-0.539 0.383,-0.729 0.053,-0.035 0.114,-0.054 0.177,-0.054 0.003,0 0.005,0 0.007,0 0.198,0 0.405,0 0.605,0 0.094,-0.004 0.184,-0.038 0.257,-0.097 0.206,-0.186 0.406,-0.387 0.594,-0.593 0.049,-0.078 0.084,-0.164 0.104,-0.255 0.02,-0.09 0,-0.02 0,-0.032 0,-0.593 0,-0.593 0.465,-1 0.027,-0.033 0.068,-0.053 0.111,-0.053 0.044,0 0.085,0.02 0.112,0.053 0.281,0.243 0.514,0.233 0.777,-0.029l0.15 -0.151c0.133,-0.115 0.209,-0.283 0.209,-0.459 0,-0.012 0,-0.025 -0.001,-0.037 -0.012,-0.249 0.083,-0.342 0.328,-0.38 0.139,-0.021 0.249,-0.127 0.275,-0.265 0.05,-0.194 0.201,-0.346 0.396,-0.395 0.278,-0.102 0.476,-0.352 0.512,-0.647 -0.01,-0.286 -0.038,-0.571 -0.064,-0.856 -0.003,-0.045 -0.021,-0.088 -0.051,-0.122 -0.085,-0.094 -0.131,-0.216 -0.131,-0.342 0,-0.018 0.001,-0.036 0.002,-0.054 -0.008,-0.194 -0.031,-0.389 -0.067,-0.581 -0.019,-0.076 -0.06,-0.145 -0.118,-0.198 -0.287,-0.277 -0.576,-0.549 -0.87,-0.82 -0.064,-0.06 -0.06,-0.099 -0.012,-0.164 0.07,-0.077 0.109,-0.177 0.109,-0.281 0,-0.12 -0.052,-0.233 -0.141,-0.313 -0.13,-0.142 -0.119,-0.183 0.067,-0.233 0.175,-0.055 0.297,-0.213 0.307,-0.395 0.001,-0.023 0.002,-0.046 0.002,-0.068 0,-0.023 -0.001,-0.046 -0.002,-0.069 0,-0.091 0.035,-0.138 0.126,-0.124 0.019,0.002 0.039,0.003 0.058,0.003 0.151,0 0.292,-0.075 0.375,-0.201 0.019,-0.024 0.041,-0.045 0.066,-0.063 0.296,-0.198 0.318,-0.492 0.282,-0.805 -0.011,-0.059 -0.036,-0.115 -0.073,-0.162 -0.154,-0.198 -0.314,-0.395 -0.47,-0.605 -0.026,-0.025 -0.043,-0.056 -0.05,-0.091 0.014,-0.239 -0.172,-0.35 -0.3,-0.5 -0.048,-0.056 -0.109,-0.162 -0.089,-0.198 0.051,-0.064 0.127,-0.103 0.209,-0.109 0.149,-0.001 0.292,-0.062 0.396,-0.17 0.134,-0.122 0.308,-0.192 0.49,-0.197 0.093,-0.014 0.18,-0.053 0.251,-0.113 0.075,-0.081 0.18,-0.126 0.29,-0.126 0.012,0 0.024,0 0.036,0.001 0.044,0.009 0.089,0.014 0.134,0.014 0.215,0 0.418,-0.101 0.548,-0.273 0.067,-0.063 0.156,-0.099 0.248,-0.099 0.002,0 0.004,0.001 0.005,0.001 0.023,0 0.046,0.001 0.068,0.001 0.193,0 0.383,-0.041 0.559,-0.12 0.205,-0.107 0.424,-0.186 0.65,-0.236 0.094,-0.017 0.189,-0.027 0.284,-0.027 0.071,0 0.143,0.006 0.213,0.016 0.026,0.001 0.053,0.001 0.08,0.001 0.289,0 0.577,-0.046 0.851,-0.136 0.026,-0.003 0.05,-0.014 0.069,-0.031 0.109,-0.098 0.251,-0.153 0.397,-0.153 0.036,0 0.072,0.004 0.108,0.01 0.197,0 0.395,0 0.593,0 0.001,0 0.002,0 0.004,0 0.077,0 0.153,-0.025 0.215,-0.073 0.178,-0.198 0.421,-0.198 0.653,-0.221 0.085,-0.005 0.171,-0.007 0.257,-0.007 0.085,0 0.172,0.002 0.257,0.007 0.009,0.001 0.019,0.001 0.028,0.001 0.036,0 0.072,-0.006 0.106,-0.017 0.263,-0.113 0.522,-0.233 0.791,-0.344 0.076,-0.037 0.16,-0.057 0.245,-0.059 0.441,-0.011 0.876,-0.122 1.27,-0.323 0.062,-0.027 0.129,-0.042 0.197,-0.043 0.222,0 0.445,0 0.667,0 0.016,0.001 0.033,0.001 0.05,0.001 0.211,0 0.416,-0.079 0.572,-0.221 0.06,-0.05 0.135,-0.077 0.213,-0.077 0.002,0 0.003,0 0.005,0 0.131,-0.007 0.264,-0.012 0.395,-0.012 0.132,0 0.265,0.005 0.395,0.012 0.257,0.024 0.463,-0.105 0.688,-0.178 0.078,-0.033 0.16,-0.055 0.244,-0.065 0.698,0 1.394,0 2.092,0 0.039,0 0.091,0 0.118,0.012 0.263,0.18 0.56,0.083 0.841,0.113 0.111,0.018 0.222,0.045 0.33,0.077 0.056,0.019 0.115,0.033 0.174,0.039 0.445,0 0.89,0.012 1.332,0 0.117,-0.016 0.226,-0.069 0.311,-0.15 0.198,-0.17 0.186,-0.174 0.395,-0.032 0.063,0.041 0.135,0.064 0.21,0.066 0.504,0 1.01,0.015 1.514,0 0.149,-0.018 0.291,-0.077 0.408,-0.171 0.119,-0.084 0.262,-0.13 0.409,-0.13 0.03,0 0.061,0.002 0.091,0.006 0.013,0.001 0.026,0.001 0.039,0.001 0.142,0 0.28,-0.047 0.392,-0.134 0.244,-0.167 0.527,-0.27 0.822,-0.298 0.099,-0.014 0.189,-0.063 0.254,-0.138 0.143,-0.185 0.364,-0.293 0.597,-0.293 0.036,0 0.071,0.003 0.106,0.008 0.593,0.035 1.187,0.041 1.78,0.065 0.362,0.016 0.723,0.038 1.083,0.061 0.145,0 0.289,0.04 0.433,0.06 0.022,0.004 0.045,0.006 0.068,0.006 0.121,0 0.235,-0.056 0.31,-0.151 0.022,-0.031 0.057,-0.052 0.095,-0.055 0.028,0.012 0.055,0.026 0.081,0.041l0.012 0.012c0.014,0.016 0.031,0.028 0.043,0.044 0.198,0.284 0.493,0.245 0.781,0.198 0.089,-0.018 0.179,-0.03 0.269,-0.036l1.471 0c0.046,0 0.101,-0.014 0.135,0 0.155,0.081 0.328,0.124 0.503,0.124 0.021,0 0.042,0 0.062,-0.001 0.148,0.009 0.299,0.047 0.447,0.047 0.565,0 1.131,0 1.696,0 0.038,0.005 0.073,0.022 0.099,0.049 0.03,0.035 0.057,0.072 0.081,0.111 0.162,0.255 0.443,0.409 0.744,0.409 0.016,0 0.032,-0.001 0.047,-0.002 1.001,-0.029 2.003,-0.049 3.001,0 2.48,0.117 4.957,0.03 7.437,0.05 2.479,0.02 4.962,0 7.444,0 0.036,0.003 0.073,0.004 0.109,0.004 0.298,0 0.587,-0.096 0.826,-0.273 0.052,-0.047 0.118,-0.077 0.188,-0.083 0.147,-0.009 0.284,-0.081 0.375,-0.198 0.354,-0.338 0.712,-0.672 1.068,-1.008 0.099,-0.091 0.198,-0.156 0.322,-0.024 0.048,0.036 0.105,0.059 0.164,0.067 0.149,0.031 0.255,0.162 0.255,0.314 0,0 0,0.001 0,0.001 0.003,0.03 0.004,0.06 0.004,0.091 0,0.03 -0.001,0.061 -0.004,0.091 -0.004,0.027 -0.006,0.054 -0.006,0.081 0,0.165 0.075,0.322 0.204,0.425 0.085,0.095 0.207,0.15 0.335,0.15 0.014,0 0.029,-0.001 0.043,-0.002 0.013,-0.002 0.026,-0.003 0.04,-0.003 0.097,0 0.188,0.049 0.243,0.13 0.173,0.201 0.364,0.392 0.565,0.567 0.08,0.058 0.176,0.09 0.275,0.091 0.31,0.012 0.395,0.079 0.421,0.386 0.013,0.073 0.046,0.141 0.095,0.197 0.069,0.087 0.158,0.156 0.229,0.241 0.048,0.045 0.079,0.104 0.089,0.169 0,0.005 0,0.012 0,0.018 0,0.146 0.06,0.286 0.166,0.387 0.224,0.261 0.453,0.514 0.672,0.777 0.057,0.08 0.105,0.166 0.143,0.257 0.063,0.124 0.117,0.257 0.198,0.378 0.101,0.172 0.217,0.336 0.326,0.502 0.041,0.063 0.079,0.128 0.122,0.197 0.091,0.131 0.198,0.257 0.275,0.396 0.059,0.083 0.097,0.18 0.111,0.281 -0.03,0.257 -0.04,0.545 -0.038,0.834z"/>
  </g>
 </g>
</svg>
