<?xml version="1.0" encoding="UTF-8"?>
<!DOCTYPE svg PUBLIC "-//W3C//DTD SVG 1.1//EN" "http://www.w3.org/Graphics/SVG/1.1/DTD/svg11.dtd">
<!-- Creator: CorelDRAW 2020 -->
<svg xmlns="http://www.w3.org/2000/svg" xml:space="preserve" width="79px" height="50px" version="1.1" style="shape-rendering:geometricPrecision; text-rendering:geometricPrecision; image-rendering:optimizeQuality; fill-rule:evenodd; clip-rule:evenodd"
viewBox="0 0 15.485 9.713"
 xmlns:xlink="http://www.w3.org/1999/xlink"
 xmlns:xodm="http://www.corel.com/coreldraw/odm/2003">
 <defs>
  <style type="text/css">
   <![CDATA[
    .fil0 {fill:#EDEDED;fill-rule:nonzero}
   ]]>
  </style>
 </defs>
 <g id="Layer_x0020_1">
  <metadata id="CorelCorpID_0Corel-Layer"/>
  <g id="Layer_14" data-name="Layer 14">
   <path class="fil0" d="M15.425 7.074c-0.083,0.09 -0.171,0.176 -0.262,0.257 -0.052,0.034 -0.111,0.055 -0.173,0.064 -0.108,0.026 -0.22,0.045 -0.33,0.07 -0.11,0.025 -0.216,0.045 -0.321,0.077 -0.173,0.052 -0.342,0.115 -0.514,0.166 -0.045,0.014 -0.091,0.021 -0.138,0.021 -0.075,0 -0.15,-0.018 -0.217,-0.053 -0.116,-0.049 -0.24,-0.077 -0.365,-0.084 -0.084,-0.01 -0.17,-0.015 -0.255,-0.015 -0.085,0 -0.17,0.005 -0.254,0.015 -0.211,0.033 -0.25,0.279 -0.163,0.449 0.009,0.017 0.028,0.029 0.036,0.046 0.031,0.059 0.096,0.155 0.079,0.172 -0.06,0.08 -0.142,0.14 -0.236,0.174 -0.154,0.031 -0.31,0.049 -0.466,0.056 -0.023,0.002 -0.046,0.009 -0.066,0.02 -0.205,0.131 -0.407,0.263 -0.61,0.394 -0.107,0.085 -0.223,0.16 -0.345,0.222 -0.133,0.047 -0.274,0.072 -0.416,0.073 -0.265,0.01 -0.53,0 -0.796,0 -0.265,0 -0.523,0 -0.785,0 -0.003,0 -0.005,0 -0.008,0 -0.122,0 -0.232,-0.074 -0.278,-0.188 -0.064,-0.117 -0.097,-0.25 -0.097,-0.384 0,-0.024 0.001,-0.047 0.003,-0.07 0,-0.123 0,-0.245 0,-0.37 0,-0.003 0,-0.007 0,-0.011 0,-0.171 -0.139,-0.31 -0.311,-0.31 -0.003,0 -0.006,0 -0.009,0 -0.117,0 -0.242,-0.028 -0.329,0.089 -0.014,0.018 -0.039,0.035 -0.042,0.056 -0.025,0.197 -0.186,0.296 -0.31,0.42 -0.137,0.147 -0.221,0.337 -0.238,0.537 -0.015,0.123 -0.186,0.31 -0.31,0.321 -0.118,0.004 -0.222,0.08 -0.261,0.191 -0.018,0.039 -0.04,0.077 -0.067,0.11 -0.141,0.165 -0.208,0.156 -0.374,0.027 -0.065,-0.048 -0.142,-0.077 -0.223,-0.084 -0.155,-0.014 -0.396,-0.183 -0.424,-0.331 -0.046,-0.163 -0.13,-0.313 -0.243,-0.439 -0.046,-0.065 -0.078,-0.14 -0.094,-0.219 -0.015,-0.133 -0.069,-0.259 -0.155,-0.363 -0.066,-0.076 -0.119,-0.163 -0.155,-0.257 -0.085,-0.225 -0.273,-0.354 -0.439,-0.505 -0.166,-0.15 -0.376,-0.31 -0.545,-0.473 -0.09,-0.112 -0.226,-0.178 -0.37,-0.178 -0.019,0 -0.039,0.002 -0.058,0.004 -0.019,0.005 -0.038,0.007 -0.058,0.007 -0.079,0 -0.153,-0.04 -0.197,-0.106 -0.058,-0.055 -0.135,-0.086 -0.215,-0.087 -0.007,0 -0.014,0.001 -0.021,0.001 -0.13,0 -0.236,-0.106 -0.236,-0.236 0,-0.044 0.013,-0.088 0.036,-0.125 0.028,-0.074 0.042,-0.152 0.042,-0.231 0,-0.14 -0.045,-0.277 -0.129,-0.39 -0.135,-0.144 -0.276,-0.284 -0.42,-0.421 -0.07,-0.055 -0.156,-0.086 -0.245,-0.086 -0.089,0 -0.175,0.031 -0.244,0.086 -0.183,0.163 -0.289,0.156 -0.466,0 -0.158,-0.152 -0.285,-0.336 -0.372,-0.538 -0.018,-0.038 -0.027,-0.08 -0.027,-0.123 0,-0.004 0,-0.009 0,-0.014 0,-0.277 0,-0.555 0,-0.831 0.001,-0.008 0.001,-0.015 0.001,-0.023 0,-0.14 -0.113,-0.254 -0.254,-0.254 -0.006,0 -0.011,0 -0.017,0 -0.054,-0.005 -0.107,-0.022 -0.155,-0.049 -0.085,-0.048 -0.163,-0.109 -0.245,-0.156 -0.123,-0.077 -0.102,-0.215 -0.137,-0.329 -0.051,-0.17 -0.035,-0.357 -0.125,-0.523 -0.024,-0.043 0.018,-0.145 0.06,-0.194 0.114,-0.131 0.238,-0.257 0.368,-0.372 0.116,-0.11 0.182,-0.264 0.182,-0.424 0,-0.059 -0.009,-0.117 -0.027,-0.173 -0.011,-0.067 -0.023,-0.132 -0.031,-0.199 -0.015,-0.13 0,-0.239 0.171,-0.248 0.021,-0.002 0.04,-0.012 0.053,-0.028 0.122,-0.163 0.324,-0.184 0.49,-0.269 0.033,-0.015 0.068,-0.022 0.104,-0.022 0.011,0 0.023,0 0.034,0.002 0.029,0.001 0.058,0.001 0.087,0.001 0.247,0 0.494,-0.036 0.731,-0.107 0.161,-0.042 0.32,-0.095 0.475,-0.155 0.041,-0.013 0.084,-0.02 0.127,-0.02l0.546 0c0.129,-0.006 0.255,-0.028 0.378,-0.067 0.223,-0.045 0.451,-0.068 0.678,-0.068 0.008,0 0.016,0 0.023,0l0.014 0c0.008,0.002 0.015,0.006 0.02,0.012 0.027,0.029 0.043,0.067 0.043,0.107 0,0.034 -0.011,0.067 -0.032,0.094 -0.027,0.039 -0.057,0.076 -0.088,0.111 -0.037,0.041 -0.062,0.091 -0.073,0.145 0,0.236 -0.059,0.486 0.115,0.695 0.027,0.035 0.043,0.077 0.045,0.121 0.012,0.177 0.024,0.355 0.023,0.532 0,0.005 0,0.009 0,0.014 0,0.095 0.039,0.185 0.108,0.25 0.165,0.174 0.347,0.33 0.543,0.466l0.001 0 0.014 0.011 0.051 0.032c0.062,0.039 0.127,0.074 0.194,0.103 0.058,0.027 0.122,0.042 0.186,0.043l0.02 0c0.106,0.033 0.185,-0.036 0.256,-0.115 0.033,-0.038 0.08,-0.063 0.131,-0.068 0.014,0.002 0.028,0.003 0.043,0.003 0.114,0 0.222,-0.056 0.289,-0.149 0.116,-0.155 0.257,-0.155 0.434,-0.119 0.117,0.019 0.225,0.073 0.311,0.155l0 0 0.023 0.032c0.02,0.025 0.043,0.048 0.067,0.069 0.126,0.151 0.292,0.263 0.479,0.324l0 0c0.166,0.058 0.339,0.099 0.514,0.123 0.167,0.052 0.34,0.084 0.515,0.093 0.036,0.006 0.068,0.024 0.092,0.051 0.087,0.086 0.205,0.135 0.327,0.135 0.018,0 0.036,-0.001 0.053,-0.003 0.077,0 0.155,0 0.237,0 0.023,-0.003 0.047,-0.004 0.07,-0.004 0.165,0 0.324,0.063 0.446,0.175 0.153,0.164 0.367,0.259 0.592,0.26 0.001,0 0.003,0 0.004,0 0.026,0 0.052,0.008 0.074,0.024 0.129,0.088 0.253,0.184 0.386,0.268 0.068,0.044 0.144,0.072 0.224,0.082 0.147,0.004 0.288,0.059 0.399,0.155 0.047,0.046 0.109,0.075 0.175,0.081 0.091,0.004 0.177,0.041 0.244,0.103 0.131,0.11 0.294,0.177 0.465,0.191 0.075,0.014 0.148,0.038 0.216,0.072 0.068,0.034 0,0 0.009,0.008 0.208,0.042 0.37,0.214 0.599,0.205 0.106,0.009 0.211,0.031 0.311,0.065 0.036,0.013 0.075,0.021 0.113,0.025 0.199,-0.011 0.405,0.048 0.588,-0.082 0.025,-0.019 0.07,-0.011 0.104,-0.011l0.477 0c0.203,0 0.246,0.093 0.155,0.284 -0.044,0.125 -0.077,0.254 -0.098,0.385 -0.003,0.009 -0.005,0.019 -0.005,0.029 0,0.009 0.002,0.019 0.005,0.028 0.079,0.156 0.168,0.307 0.268,0.45 0.1,0.102 0.156,0.239 0.156,0.381 0,0 0,0.001 0,0.001 -0.006,0.033 -0.008,0.066 -0.008,0.1 0,0.105 0.027,0.209 0.079,0.3 0.017,0.029 0.026,0.062 0.026,0.095 0,0.052 -0.022,0.101 -0.06,0.137z"/>
  </g>
 </g>
</svg>
