<?xml version="1.0" encoding="UTF-8"?>
<!DOCTYPE svg PUBLIC "-//W3C//DTD SVG 1.1//EN" "http://www.w3.org/Graphics/SVG/1.1/DTD/svg11.dtd">
<!-- Creator: CorelDRAW 2020 -->
<svg xmlns="http://www.w3.org/2000/svg" xml:space="preserve" width="53px" height="51px" version="1.1" style="shape-rendering:geometricPrecision; text-rendering:geometricPrecision; image-rendering:optimizeQuality; fill-rule:evenodd; clip-rule:evenodd"
viewBox="0 0 5.294 5.061"
 xmlns:xlink="http://www.w3.org/1999/xlink"
 xmlns:xodm="http://www.corel.com/coreldraw/odm/2003">
 <defs>
  <style type="text/css">
   <![CDATA[
    .fil0 {fill:#EDEDED;fill-rule:nonzero}
   ]]>
  </style>
 </defs>
 <g id="Layer_x0020_1">
  <metadata id="CorelCorpID_0Corel-Layer"/>
  <g id="Layer_13" data-name="Layer 13">
   <path class="fil0" d="M5.294 3.449c-0.064,0.058 -0.127,0.117 -0.194,0.171 -0.01,0.009 -0.037,0 -0.056,-0.005 -0.022,-0.01 -0.046,-0.016 -0.071,-0.016 -0.068,0 -0.129,0.041 -0.156,0.103 -0.046,0.062 -0.1,0.118 -0.159,0.167 -0.036,0.027 -0.069,0.059 -0.098,0.093 -0.067,0.104 -0.166,0.182 -0.282,0.223 -0.013,0.005 -0.03,0.005 -0.039,0.014 -0.042,0.041 -0.098,0.065 -0.156,0.065 -0.01,0 -0.02,-0.001 -0.029,-0.002 -0.008,-0.001 -0.016,-0.001 -0.024,-0.001 -0.008,0 -0.016,0 -0.024,0.001l0 0 -0.016 0c-0.011,-0.002 -0.023,-0.003 -0.035,-0.003 -0.08,0 -0.155,0.039 -0.203,0.103l-0.01 0.012c-0.008,0.009 -0.016,0.018 -0.025,0.026 -0.008,0.008 0,0 0,0l-0.039 0.038c-0.026,0.029 -0.063,0.045 -0.101,0.045 -0.027,0 -0.054,-0.008 -0.076,-0.023 -0.08,-0.053 -0.173,-0.081 -0.269,-0.081 -0.012,0 -0.024,0.001 -0.036,0.002 -0.079,0 -0.159,0 -0.238,0 -0.011,-0.002 -0.022,-0.002 -0.033,-0.002 -0.05,0 -0.098,0.013 -0.141,0.039l-0.011 0.005c-0.012,0.004 -0.024,0.006 -0.036,0.006 -0.002,0 -0.004,0 -0.005,0 -0.127,0 -0.255,0 -0.383,0 -0.066,0 -0.131,-0.019 -0.197,-0.021 -0.004,-0.001 -0.007,-0.001 -0.01,-0.001 -0.088,0 -0.159,0.071 -0.159,0.159 0,0.004 0,0.008 0,0.012l0 0.397c0,0.066 -0.017,0.079 -0.079,0.083 -0.02,0.002 -0.041,0.003 -0.061,0.003 -0.02,0 -0.04,-0.001 -0.06,-0.003 -0.038,-0.004 -0.073,-0.018 -0.103,-0.041 -0.033,-0.035 -0.079,-0.055 -0.127,-0.055 -0.007,0 -0.014,0 -0.02,0.001 -0.017,0.004 -0.035,0.006 -0.052,0.006 -0.09,0 -0.172,-0.05 -0.213,-0.13 -0.058,-0.102 -0.158,-0.066 -0.247,-0.069 -0.03,0 -0.071,0.015 -0.092,0 -0.052,-0.037 -0.1,-0.08 -0.141,-0.129 -0.026,-0.038 -0.048,-0.079 -0.067,-0.121 -0.034,-0.068 -0.052,-0.143 -0.052,-0.218 0,-0.034 0.004,-0.067 0.01,-0.099 0,-0.029 0.036,-0.057 0.059,-0.079 0.045,-0.044 0.071,-0.104 0.071,-0.167 0,-0.096 -0.06,-0.183 -0.15,-0.217 -0.044,-0.019 -0.084,-0.046 -0.118,-0.079 -0.032,-0.036 -0.078,-0.057 -0.127,-0.057 -0.004,0 -0.009,0 -0.013,0 -0.007,0.001 -0.014,0.002 -0.021,0.002 -0.043,0 -0.086,-0.017 -0.118,-0.047 -0.031,-0.019 -0.065,-0.031 -0.101,-0.037 -0.117,-0.035 -0.137,-0.066 -0.141,-0.185 0,-0.096 -0.018,-0.192 -0.02,-0.289 0.001,-0.031 0.013,-0.061 0.034,-0.085 0.048,-0.055 0.101,-0.105 0.154,-0.159 0.095,-0.076 0.15,-0.192 0.15,-0.314 0,-0.013 0,-0.026 -0.001,-0.039 -0.002,-0.005 -0.002,-0.01 -0.002,-0.015 0,-0.005 0,-0.01 0.002,-0.015 0.037,-0.079 0.079,-0.165 0.114,-0.247 0.017,-0.037 0.038,-0.073 0.057,-0.109l0.068 -0.141c0.009,-0.018 0.025,-0.036 0.024,-0.054 0,-0.099 0.024,-0.2 -0.037,-0.295 -0.026,-0.05 -0.044,-0.103 -0.053,-0.159 -0.004,-0.011 -0.006,-0.023 -0.006,-0.035 0,-0.012 0.002,-0.024 0.005,-0.036 0.027,-0.079 0.06,-0.159 0.089,-0.238 0.041,-0.113 0.123,-0.208 0.109,-0.344 -0.006,-0.055 0.043,-0.116 0.067,-0.174 0.022,-0.039 0.038,-0.081 0.047,-0.125 0.003,-0.02 0.004,-0.041 0.004,-0.062 0,-0.068 -0.014,-0.135 -0.041,-0.197 -0.008,-0.036 -0.012,-0.074 -0.012,-0.11 0,-0.03 0.002,-0.059 0.007,-0.087 0.016,-0.005 0.033,-0.008 0.049,-0.008 0.041,0 0.081,0.016 0.11,0.044 0.005,0.007 0.012,0.012 0.02,0.015 0.119,0.022 0.181,0.13 0.278,0.184 0.052,0.022 0.105,0.039 0.159,0.051 0.027,0.006 0.054,0.014 0.08,0.024 0.074,0.039 0.148,0.079 0.219,0.122 0.059,0.034 0.115,0.074 0.167,0.118 0.087,0.08 0.168,0.159 0.248,0.247 0.041,0.048 0.102,0.076 0.165,0.076 0.004,0 0.007,0 0.011,0 0.006,-0.001 0.013,-0.001 0.02,-0.001 0.062,0 0.123,0.011 0.181,0.031 0.042,0.024 0.076,0.059 0.098,0.101 0.047,0.07 0.088,0.143 0.191,0.131 0.004,0 0.009,0 0.011,0 0.08,-0.079 0.176,-0.014 0.263,-0.023 0.029,-0.001 0.056,-0.01 0.08,-0.027 0.028,-0.031 0.069,-0.049 0.111,-0.049 0.01,0 0.019,0.001 0.028,0.003 0.08,0.004 0.159,0.019 0.211,-0.059 0.015,-0.022 0.025,-0.045 0.038,-0.068 0.014,-0.022 0.019,-0.026 0.027,-0.039 0.014,0.012 0.038,0.021 0.039,0.033 0.007,0.071 0.061,0.106 0.098,0.159 0.024,0.038 0.042,0.08 0.055,0.124 0.012,0.032 0.017,0.066 0.026,0.1 0.011,0.03 0.018,0.061 0.021,0.093 -0.001,0.011 -0.002,0.022 -0.002,0.032 0,0.057 0.021,0.111 0.059,0.152 0.01,0.013 0.016,0.029 0.017,0.045 0.01,0.079 0.013,0.159 0.027,0.238 0.01,0.036 0.028,0.07 0.053,0.097 0.053,0.061 0.126,0.105 0.121,0.2 0.002,0.013 0.008,0.024 0.017,0.032 0.217,0.255 0.418,0.525 0.67,0.748 0.033,0.024 0.073,0.038 0.114,0.038 0.01,0 0.019,-0.001 0.028,-0.002 0.105,0 0.108,0.007 0.115,0.107 0.007,0.039 0.022,0.075 0.044,0.108 0.032,0.054 0.071,0.103 0.102,0.158 0.022,0.055 0.075,0.091 0.134,0.091 0.004,0 0.007,0 0.011,0l0.001 0.015z"/>
  </g>
 </g>
</svg>
