<?xml version="1.0" encoding="UTF-8"?>
<!DOCTYPE svg PUBLIC "-//W3C//DTD SVG 1.1//EN" "http://www.w3.org/Graphics/SVG/1.1/DTD/svg11.dtd">
<!-- Creator: CorelDRAW 2020 -->
<svg xmlns="http://www.w3.org/2000/svg" xml:space="preserve" width="120px" height="162px" version="1.1" style="shape-rendering:geometricPrecision; text-rendering:geometricPrecision; image-rendering:optimizeQuality; fill-rule:evenodd; clip-rule:evenodd"
viewBox="0 0 51.799 69.895"
 xmlns:xlink="http://www.w3.org/1999/xlink"
 xmlns:xodm="http://www.corel.com/coreldraw/odm/2003">
 <defs>
  <style type="text/css">
   <![CDATA[
    .fil0 {fill:#EDEDED;fill-rule:nonzero}
   ]]>
  </style>
 </defs>
 <g id="Layer_x0020_1">
  <metadata id="CorelCorpID_0Corel-Layer"/>
  <g id="Layer_11" data-name="Layer 11">
   <path class="fil0" d="M51.776 38.381c0.003,0.017 0.004,0.034 0.004,0.052 0,0.045 -0.008,0.091 -0.023,0.135 -0.157,0.275 -0.327,0.533 -0.484,0.803 -0.063,0.118 -0.121,0.242 -0.17,0.368 -0.007,0.041 -0.018,0.082 -0.031,0.121 -0.164,0.244 -0.316,0.502 -0.448,0.765 -0.111,0.231 -0.173,0.483 -0.184,0.739 0,0.644 0.044,1.287 0.077,1.925 0.022,0.424 0.091,0.85 0.071,1.273 0.001,0.025 0.001,0.052 0.001,0.077 0,0.399 -0.071,0.795 -0.21,1.169 -0.07,0.233 -0.11,0.475 -0.118,0.718 0,0.036 0,0.077 0,0.104 -0.166,0.336 -0.356,0.663 -0.569,0.971 -0.125,0.143 -0.194,0.327 -0.194,0.518 0,0.214 0.088,0.42 0.243,0.568 0.101,0.058 0.209,0.099 0.322,0.124 0.069,0.028 0.135,0.064 0.204,0.097 -0.039,0.076 -0.058,0.181 -0.119,0.225 -0.09,0.061 -0.197,0.094 -0.307,0.094 -0.002,0 -0.004,-0.001 -0.006,-0.001 -0.011,0 -0.022,0 -0.032,0 -0.26,0 -0.51,0.098 -0.7,0.275 -0.301,0.219 -0.552,0.501 -0.734,0.825 -0.122,0.192 -0.196,0.412 -0.214,0.638 0.024,0.385 0.176,0.752 0.429,1.043 0.206,0.289 0.239,0.465 0.03,0.75 -0.056,0.084 -0.096,0.177 -0.118,0.275 -0.042,0.165 -0.113,0.251 -0.303,0.245 -0.385,-0.014 -0.773,0 -1.16,0 -0.007,0 -0.013,0 -0.02,0 -0.252,0 -0.456,0.204 -0.456,0.456 0,0.005 0,0.01 0,0.014 -0.006,0.04 -0.009,0.08 -0.009,0.12 0,0.257 0.12,0.5 0.325,0.656 0.289,0.236 0.55,0.487 0.844,0.726 0.167,0.126 0.363,0.207 0.57,0.236 0.21,0.087 0.405,0.209 0.574,0.361 0.012,0.011 0.019,0.027 0.019,0.043 0,0.005 -0.001,0.01 -0.002,0.014 -0.099,0.223 -0.198,0.449 -0.305,0.669 -0.039,0.082 -0.135,0.151 -0.141,0.231 -0.064,0.37 -0.275,0.7 -0.585,0.913 -0.394,0.349 -0.781,0.704 -1.199,1.023 -0.311,0.248 -0.667,0.435 -1.048,0.55 -0.269,0.112 -0.513,0.279 -0.715,0.489 -0.275,0.226 -0.3,0.234 -0.55,0 -0.217,-0.259 -0.48,-0.475 -0.776,-0.638 -0.128,-0.08 -0.226,-0.203 -0.275,-0.346 -0.072,-0.204 -0.264,-0.34 -0.479,-0.34 -0.145,0 -0.282,0.062 -0.379,0.169 -0.265,0.298 -0.601,0.525 -0.976,0.66 -0.304,0.179 -0.582,0.399 -0.825,0.655 -0.061,0.046 -0.107,0.126 -0.176,0.148 -0.473,0.14 -0.743,0.55 -1.075,0.85 -0.154,0.143 -0.303,0.294 -0.449,0.448 -0.12,0.173 -0.317,0.277 -0.528,0.277 -0.016,0 -0.033,-0.001 -0.049,-0.002 -0.001,0 -0.001,0 -0.002,0 -0.056,0 -0.109,0.02 -0.152,0.055 -0.187,0.134 -0.411,0.206 -0.641,0.206 -0.051,0 -0.103,-0.003 -0.154,-0.011 -0.536,0 -1.069,0 -1.603,0 -0.021,-0.002 -0.042,-0.003 -0.063,-0.003 -0.021,0 -0.042,0.001 -0.063,0.003 -0.302,0.099 -0.615,0.167 -0.93,0.199 -0.072,0 -0.157,0.11 -0.22,0.184 -0.322,0.388 -0.635,0.781 -0.963,1.166 -0.199,0.201 -0.312,0.474 -0.312,0.759 0,0.032 0.002,0.066 0.005,0.099 0.024,0.209 0,0.423 0,0.632 0,0.009 0,0.019 0,0.028 0,0.264 -0.088,0.521 -0.251,0.728 -0.133,0.266 -0.248,0.543 -0.343,0.825 -0.042,0.122 -0.097,0.24 -0.165,0.35 -0.106,0.121 -0.22,0.237 -0.339,0.346 -0.058,0.05 -0.104,0.113 -0.134,0.184 -0.132,0.512 -0.597,0.743 -0.913,1.1 -0.077,0.067 -0.174,0.107 -0.275,0.116 -0.281,0.052 -0.55,0.159 -0.789,0.313 -0.194,0.091 -0.405,0.14 -0.619,0.143 -0.008,0 -0.015,0 -0.023,0 -0.176,0 -0.344,0.07 -0.467,0.195 -0.133,0.152 -0.326,0.238 -0.528,0.238 -0.025,0 -0.051,-0.001 -0.077,-0.004 -0.019,-0.002 -0.04,-0.003 -0.059,-0.003 -0.149,0 -0.292,0.055 -0.403,0.154 -0.125,0.091 -0.262,0.164 -0.407,0.218 -0.137,0.058 -0.187,-0.05 -0.184,-0.154 -0.013,-0.178 -0.073,-0.351 -0.173,-0.498 -0.157,-0.24 -0.245,-0.519 -0.256,-0.806 0.012,-0.111 0.019,-0.224 0.019,-0.337 0,-0.112 -0.007,-0.225 -0.019,-0.337 -0.011,-0.155 -0.07,-0.304 -0.168,-0.426 -0.245,-0.275 -0.465,-0.575 -0.849,-0.663 -0.041,-0.012 -0.077,-0.037 -0.102,-0.071 -0.369,-0.446 -0.877,-0.311 -1.315,-0.25 -0.275,0.038 -0.5,0.162 -0.756,-0.02 -0.044,-0.03 -0.124,0 -0.187,0 -0.484,0 -0.968,0 -1.452,0 -0.002,0 -0.004,0.001 -0.006,0.001 -0.102,0 -0.201,-0.03 -0.286,-0.086 -0.211,-0.154 -0.393,-0.344 -0.602,-0.495 -0.186,-0.121 -0.381,-0.233 -0.58,-0.332 -0.186,-0.072 -0.361,-0.169 -0.52,-0.289 -0.291,-0.314 -0.64,-0.248 -0.979,-0.198 -0.225,0.03 -0.431,0.151 -0.654,0.195 -0.035,0.007 -0.071,0.011 -0.106,0.011 -0.094,0 -0.187,-0.026 -0.268,-0.074 -0.223,-0.143 -0.479,-0.229 -0.743,-0.251 -0.118,-0.03 -0.232,-0.077 -0.338,-0.14 -0.095,-0.057 -0.188,-0.121 -0.275,-0.19 -0.349,-0.255 -0.753,-0.165 -1.141,-0.167 -0.005,0 -0.011,0 -0.016,0 -0.176,0 -0.346,-0.066 -0.476,-0.185 -0.113,-0.088 -0.251,-0.14 -0.394,-0.151 -0.071,-0.013 -0.143,-0.019 -0.215,-0.019 -0.202,0 -0.402,0.05 -0.58,0.146 -0.079,0.049 -0.236,0 -0.354,-0.028 -0.137,-0.045 -0.279,-0.079 -0.421,-0.101 -0.679,0 -1.375,0.027 -2.043,-0.017 -0.347,-0.055 -0.69,-0.148 -1.017,-0.275 -0.132,-0.058 -0.271,-0.099 -0.413,-0.121 -0.687,0 -1.375,0 -2.068,0 -0.252,-0.004 -0.496,-0.087 -0.699,-0.237 -0.275,-0.167 -0.533,-0.327 -0.8,-0.492 -0.114,-0.08 -0.234,-0.151 -0.36,-0.211 -0.314,-0.151 -0.644,-0.272 -0.982,-0.358 -0.15,-0.015 -0.303,-0.024 -0.454,-0.024 -0.151,0 -0.303,0.009 -0.453,0.024 -0.076,0.01 -0.15,0.037 -0.215,0.077 -0.086,0.065 -0.191,0.1 -0.298,0.1 -0.158,0 -0.307,-0.075 -0.4,-0.202 -0.295,-0.297 -0.597,-0.594 -0.894,-0.896 -0.104,-0.117 -0.253,-0.183 -0.41,-0.183 -0.013,0 -0.026,0 -0.038,0.001 -0.135,0 -0.275,0 -0.402,0 -0.523,0 -0.737,-0.165 -0.905,-0.662 -0.099,-0.297 -0.258,-0.581 -0.198,-0.911 0.019,-0.113 0.063,-0.222 0.13,-0.316 0.12,-0.165 0.259,-0.317 0.412,-0.451 0.085,-0.071 0.19,-0.113 0.3,-0.121 0.275,0 0.591,-0.06 0.852,0.135 0.045,0.02 0.093,0.031 0.141,0.031 0.016,0 0.031,-0.002 0.046,-0.004l1.601 0c0.011,0.001 0.022,0.002 0.033,0.002 0.059,0 0.117,-0.014 0.171,-0.04 0.173,-0.102 0.358,-0.187 0.549,-0.253 0.209,-0.089 0.435,-0.136 0.662,-0.136 0.066,0 0.133,0.004 0.199,0.012 0.037,0.005 0.074,0.008 0.112,0.008 0.224,0 0.437,-0.094 0.589,-0.258 0.121,-0.121 0.286,-0.189 0.457,-0.189 0.042,0 0.085,0.005 0.126,0.013 0.034,0.004 0.067,0.006 0.101,0.006 0.235,0 0.459,-0.103 0.612,-0.281 0.126,-0.132 0.298,-0.211 0.481,-0.22 0.41,0.022 0.74,-0.201 1.114,-0.275 0.323,-0.046 0.65,-0.073 0.976,-0.075 0.051,0.002 0.099,0.022 0.135,0.058 0.181,0.201 0.418,0.179 0.66,0.193 0.066,0.006 0.133,0.01 0.199,0.01 0.313,0 0.621,-0.073 0.901,-0.214 0.238,-0.135 0.457,-0.304 0.649,-0.5 0.44,-0.448 0.869,-0.913 1.289,-1.375 0.075,-0.097 0.116,-0.215 0.116,-0.337 0,-0.002 0,-0.005 0,-0.007 0,-0.624 0,-1.251 0,-1.875 0.03,-0.42 0.372,-0.749 0.792,-0.765 0.044,0.004 0.088,0.006 0.132,0.006 0.473,0 0.92,-0.217 1.213,-0.589 0.115,-0.172 0.177,-0.375 0.177,-0.583 0,-0.103 -0.015,-0.206 -0.046,-0.305 -0.155,-0.407 -0.42,-0.764 -0.764,-1.031 -0.148,-0.106 -0.306,-0.198 -0.47,-0.275 -0.068,-0.036 -0.132,-0.079 -0.19,-0.13 -0.135,-0.123 -0.25,-0.275 -0.39,-0.382 -0.213,-0.168 -0.337,-0.425 -0.337,-0.696 0,-0.011 0.001,-0.022 0.001,-0.033 -0.051,-0.224 -0.145,-0.437 -0.275,-0.627 -0.04,-0.101 -0.089,-0.2 -0.146,-0.294 -0.082,-0.143 -0.181,-0.277 -0.294,-0.399 -0.134,-0.132 -0.211,-0.312 -0.214,-0.5 -0.035,-0.416 -0.096,-0.833 -0.18,-1.243 -0.04,-0.119 -0.114,-0.223 -0.214,-0.3 -0.122,-0.098 -0.193,-0.247 -0.193,-0.404 0,-0.021 0.001,-0.042 0.004,-0.063 0.002,-0.03 0.004,-0.059 0.004,-0.089 0,-0.282 -0.122,-0.55 -0.334,-0.736 -0.279,-0.375 -0.72,-0.597 -1.187,-0.597 -0.079,0 -0.158,0.007 -0.235,0.019 -0.07,0.009 -0.14,0.014 -0.21,0.014 -0.071,0 -0.141,-0.005 -0.211,-0.014 -0.101,-0.004 -0.198,-0.042 -0.275,-0.107 -0.262,-0.263 -0.576,-0.471 -0.921,-0.608 -0.162,-0.075 -0.265,-0.237 -0.265,-0.416 0,-0.107 0.037,-0.211 0.105,-0.293 0.413,-0.435 0.825,-0.869 1.274,-1.26 0.204,-0.146 0.438,-0.246 0.684,-0.294 0.332,-0.097 0.672,-0.171 1.015,-0.218 0.346,-0.046 0.72,0.072 1.039,-0.156 0.045,-0.033 0.124,-0.017 0.188,-0.017 0.275,0 0.577,0 0.863,0 0.204,-0.027 0.408,-0.066 0.608,-0.115 0.095,-0.025 0.193,-0.041 0.291,-0.047 0.572,0 1.153,-0.027 1.725,0 0.249,0.049 0.494,0.129 0.726,0.234 0.115,0.046 0.236,0.076 0.36,0.088 0.33,0 0.662,0 0.99,0 0.399,-0.022 0.743,-0.291 0.861,-0.674 0.008,-0.034 0.021,-0.067 0.038,-0.099 0.16,-0.258 0.33,-0.509 0.47,-0.775 0.039,-0.125 0.065,-0.253 0.077,-0.382 0.04,-0.137 0.087,-0.273 0.14,-0.405 0.031,-0.077 0.097,-0.146 0.105,-0.223 0.038,-0.41 0.063,-0.825 0.091,-1.232 0,-0.071 0,-0.159 0.022,-0.206 0.198,-0.275 0.126,-0.591 0.154,-0.897 0.019,-0.146 0.075,-0.287 0.162,-0.406 0.11,-0.121 0.171,-0.279 0.171,-0.443 0,-0.005 0,-0.009 0,-0.014 0,-0.176 0,-0.352 0,-0.528 -0.003,-0.057 -0.004,-0.115 -0.004,-0.173 0,-0.522 0.104,-1.041 0.306,-1.523 0.063,-0.174 0.162,-0.336 0.234,-0.507 0.025,-0.063 0.044,-0.13 0.057,-0.198 0.007,-0.068 0.027,-0.135 0.058,-0.197 0.242,-0.392 0.428,-0.817 0.55,-1.26 0.116,-0.36 0.212,-0.751 0.55,-0.996 0.091,-0.063 0.118,-0.211 0.179,-0.318 0.045,-0.094 0.102,-0.182 0.168,-0.262 0.275,-0.275 0.55,-0.55 0.825,-0.825 0.079,-0.112 0.147,-0.232 0.203,-0.357 0.129,-0.22 0.275,-0.435 0.396,-0.66 0.121,-0.225 0.182,-0.402 0.275,-0.599 0.036,-0.118 0.091,-0.229 0.162,-0.328 0.309,-0.302 0.494,-0.71 0.515,-1.141 0,-0.001 0,-0.003 0,-0.004 0,-0.033 0.006,-0.067 0.019,-0.098 0.071,-0.208 0.174,-0.406 0.302,-0.586 0.314,-0.393 0.686,-0.738 1.101,-1.022 0.318,-0.21 0.626,-0.441 0.915,-0.69 0.275,-0.196 0.525,-0.388 0.789,-0.581 0.129,-0.093 0.275,-0.176 0.396,-0.275 0.171,-0.17 0.401,-0.268 0.641,-0.275 0.077,-0.003 0.151,-0.032 0.209,-0.083 0.157,-0.115 0.308,-0.242 0.46,-0.365 0.33,-0.275 0.651,-0.55 0.992,-0.803 0.105,-0.058 0.223,-0.089 0.343,-0.089 0.011,0 0.023,0 0.034,0.001 0.019,0.002 0.039,0.003 0.058,0.003 0.313,0 0.567,-0.254 0.567,-0.567 0,-0.02 -0.001,-0.04 -0.004,-0.06 0,-0.402 0,-0.801 0,-1.202 0.029,-0.365 0.162,-0.714 0.385,-1.004 0.077,-0.129 0.143,-0.275 0.215,-0.396 0.034,-0.053 0.065,-0.108 0.091,-0.165 0.064,-0.141 0.114,-0.289 0.148,-0.44 0.011,-0.052 0.016,-0.105 0.016,-0.158 0,-0.245 -0.114,-0.476 -0.307,-0.626 -0.18,-0.158 -0.334,-0.344 -0.457,-0.55 -0.184,-0.297 -0.308,-0.632 -0.492,-0.929 -0.146,-0.276 -0.223,-0.583 -0.223,-0.896 0,-0.145 0.017,-0.291 0.05,-0.432 0.132,-0.949 0.033,-1.892 0.063,-2.838 -0.011,-0.137 -0.044,-0.272 -0.096,-0.399 -0.014,-0.052 -0.058,-0.102 -0.061,-0.154 -0.035,-0.347 -0.156,-0.681 -0.349,-0.971 -0.01,-0.01 -0.017,-0.022 -0.022,-0.036 -0.115,-0.381 -0.183,-0.778 -0.201,-1.176 0.061,-0.334 0.167,-0.658 0.314,-0.963 0.08,-0.215 0.291,-0.383 0.275,-0.655 0.001,-0.05 0.024,-0.097 0.063,-0.129 0.294,-0.275 0.495,-0.638 0.913,-0.751 0.081,-0.027 0.153,-0.075 0.209,-0.14 0.129,-0.151 0.318,-0.239 0.517,-0.239 0.034,0 0.068,0.003 0.102,0.008 0.368,0.025 0.728,0.025 1.02,-0.275 0.065,-0.04 0.14,-0.062 0.217,-0.062 0.019,0 0.039,0.002 0.058,0.004 0.199,-0.005 0.392,-0.073 0.55,-0.195 0.239,-0.154 0.498,-0.275 0.748,-0.399 0.111,-0.034 0.215,-0.089 0.305,-0.162 0.405,-0.487 0.96,-0.792 1.414,-1.215 0.125,-0.101 0.211,-0.242 0.244,-0.399 0.051,-0.115 0.153,-0.199 0.275,-0.229 0.179,-0.022 0.36,-0.035 0.54,-0.035 0.043,0 0.089,0.001 0.132,0.003 0.027,0 0.057,0.027 0.082,0.049 0.168,0.145 0.383,0.225 0.605,0.225 0.132,0 0.262,-0.028 0.382,-0.082 0.117,-0.042 0.238,-0.075 0.36,-0.096 0.152,-0.039 0.308,-0.066 0.46,-0.116 0.208,-0.066 0.414,-0.147 0.613,-0.239 0.143,-0.071 0.258,-0.195 0.401,-0.275 0.06,-0.021 0.122,-0.032 0.186,-0.032 0.03,0 0.06,0.003 0.089,0.007 0.237,0 0.471,0.047 0.707,0.053 0.146,0 0.256,0 0.275,0.195 0.031,0.092 0.086,0.175 0.16,0.239 0.22,0.256 0.456,0.498 0.659,0.762 0.107,0.162 0.2,0.335 0.276,0.514 0,0.014 0,0.028 0.013,0.039 0.176,0.275 0.361,0.55 0.526,0.841 0.054,0.117 0.096,0.24 0.123,0.366 0.029,0.125 0.069,0.248 0.121,0.366 0.223,0.368 0.465,0.728 0.699,1.1 0.151,0.233 0.305,0.464 0.448,0.703 0.035,0.083 0.063,0.169 0.083,0.256 0.038,0.11 0.085,0.218 0.126,0.325 0.041,0.107 0.132,0.234 0.118,0.344 -0.001,0.028 -0.003,0.057 -0.003,0.085 0,0.362 0.155,0.707 0.424,0.949 0.117,0.12 0.182,0.282 0.182,0.45 0,0.008 0,0.015 0,0.023 0,0.877 -0.014,1.757 0,2.634 0.013,1.023 0.046,2.046 0.087,3.069 0.023,0.143 0.096,0.274 0.207,0.369 0.189,0.141 0.301,0.364 0.301,0.601 0,0.033 -0.002,0.067 -0.007,0.1 -0.001,0.012 -0.002,0.024 -0.002,0.036 0,0.051 0.013,0.101 0.038,0.145 0.169,0.346 0.407,0.654 0.698,0.905 0.091,0.063 0.198,0.101 0.308,0.11 0.275,0.014 0.575,0.014 0.864,0 0.124,-0.016 0.247,-0.044 0.366,-0.083 -0.028,0.308 0.198,0.449 0.382,0.622 0.271,0.232 0.437,0.565 0.459,0.921 -0.003,0.027 -0.004,0.055 -0.004,0.082 0,0.189 0.067,0.373 0.188,0.518 0.116,0.115 0.08,0.256 0,0.385 -0.139,0.182 -0.262,0.378 -0.365,0.582 -0.039,0.121 -0.059,0.247 -0.059,0.374 0,0.041 0.002,0.082 0.006,0.122 0,0.003 0,0.006 0,0.009 0,0.164 -0.06,0.322 -0.17,0.444 -0.076,0.128 -0.134,0.266 -0.171,0.41 -0.049,0.135 -0.093,0.275 -0.14,0.402 -0.051,0.104 -0.087,0.215 -0.107,0.33 -0.014,0.308 0,0.618 0,0.926 -0.001,0.014 -0.002,0.027 -0.002,0.041 0,0.17 0.073,0.333 0.2,0.446 0.302,0.303 0.3,0.366 0.025,0.677 -0.28,0.283 -0.489,0.631 -0.608,1.012 -0.072,0.34 -0.111,0.688 -0.113,1.036 0,0.005 0,0.01 0,0.015 0,0.171 -0.069,0.334 -0.192,0.453 -0.245,0.231 -0.476,0.478 -0.718,0.712 -0.125,0.113 -0.196,0.273 -0.196,0.441 0,0.009 0,0.018 0.001,0.027 0,0.569 0.038,1.141 0,1.707 -0.042,0.507 0.244,0.765 0.599,0.996 0.217,0.138 0.449,0.256 0.687,0.352 0.16,0.079 0.337,0.121 0.515,0.123 0.599,-0.046 0.662,0.507 0.511,0.875 -0.069,0.14 -0.162,0.268 -0.275,0.377 -0.129,0.112 -0.204,0.275 -0.204,0.447 0,0.171 0.075,0.334 0.204,0.447 0.13,0.112 0,0 0.014,0.013l0.19 0.35c-0.121,0.038 -0.242,0.068 -0.358,0.118 -0.451,0.192 -0.913,0.39 -1.166,0.839 -0.02,0.065 -0.031,0.133 -0.031,0.201 0,0.101 0.023,0.2 0.067,0.291 0.101,0.204 0.218,0.401 0.346,0.588 0.21,0.455 0.456,0.896 0.734,1.313 0.31,0.34 0.655,0.65 1.027,0.92 0.06,0.037 0.13,0.057 0.2,0.058 0.362,0.034 0.639,0.338 0.639,0.701 0,0.007 -0.001,0.015 -0.001,0.022 -0.019,0.38 -0.019,0.768 -0.022,1.153z"/>
  </g>
 </g>
</svg>
