<?xml version="1.0" encoding="UTF-8"?>
<!DOCTYPE svg PUBLIC "-//W3C//DTD SVG 1.1//EN" "http://www.w3.org/Graphics/SVG/1.1/DTD/svg11.dtd">
<!-- Creator: CorelDRAW 2020 -->
<svg xmlns="http://www.w3.org/2000/svg" xml:space="preserve" width="139px" height="84px" version="1.1" style="shape-rendering:geometricPrecision; text-rendering:geometricPrecision; image-rendering:optimizeQuality; fill-rule:evenodd; clip-rule:evenodd"
viewBox="0 0 125.433 75.697"
 xmlns:xlink="http://www.w3.org/1999/xlink"
 xmlns:xodm="http://www.corel.com/coreldraw/odm/2003">
 <defs>
  <style type="text/css">
   <![CDATA[
    .fil0 {fill:#EDEDED;fill-rule:nonzero}
   ]]>
  </style>
 </defs>
 <g id="Layer_x0020_1">
  <metadata id="CorelCorpID_0Corel-Layer"/>
  <g id="Layer_12" data-name="Layer 12">
   <path class="fil0" d="M125.055 23.537c-0.25,0.224 -0.492,0.465 -0.716,0.716 -0.453,0.695 -1.228,1.114 -2.057,1.114 -0.117,0 -0.234,-0.009 -0.35,-0.025 -0.006,0 -0.012,0 -0.019,0 -0.23,0 -0.453,0.084 -0.626,0.236 -0.716,0.602 -1.432,1.268 -2.148,1.863 -0.324,0.207 -0.667,0.382 -1.024,0.523 -0.591,0.266 -1.163,0.584 -1.705,0.938 -0.953,0.717 -1.841,1.498 -2.773,2.228 -0.205,0.17 -0.453,0.281 -0.716,0.322 -1.032,0.108 -2.063,0.165 -3.095,0.244 -0.018,-0.001 -0.037,-0.001 -0.056,-0.001 -0.164,0 -0.326,0.027 -0.481,0.08 -0.608,0.252 -1.263,0.383 -1.923,0.383 -0.608,0 -1.212,-0.11 -1.78,-0.326 -1.074,-0.301 -2.235,-0.444 -3.102,0.652 -0.565,0.716 -1.232,1.354 -1.783,2.07 -0.236,0.348 -0.394,0.745 -0.459,1.16 -0.14,0.821 -0.753,1.482 -1.562,1.684 -0.313,0.078 -0.605,0.228 -0.852,0.437 -0.838,0.788 -1.662,1.59 -2.435,2.443 -0.247,0.304 -0.394,0.677 -0.423,1.067 -0.057,0.91 0,1.833 0,2.743 -0.002,0.029 -0.004,0.058 -0.004,0.087 0,0.504 0.34,0.945 0.828,1.074 0.386,0.129 0.444,0.337 0.501,0.659 0.057,0.322 0.201,0.802 0.301,1.203 0,0.086 0.072,0.18 0.093,0.266l0 0.236c0,0.788 -0.064,1.576 0.623,2.149 0.222,0.473 0.473,0.938 0.667,1.433 0.292,0.482 0.652,0.921 1.067,1.303 0.184,0.23 0.357,0.469 0.516,0.717 0.566,0.86 1.074,1.755 1.69,2.579 0.213,0.316 0.328,0.69 0.328,1.072 0,0.121 -0.012,0.241 -0.034,0.36 -0.05,0.716 -0.151,1.433 -0.194,2.149 0.001,0.007 0.001,0.015 0.001,0.022 0,0.607 -0.482,1.105 -1.089,1.124 -0.946,0 -1.383,0.616 -1.77,1.326 -0.107,0.186 -0.129,0.444 -0.272,0.587 -0.981,0.996 -0.523,2.235 -0.58,3.388 0,0.151 0.15,0.323 0.258,0.466 0.107,0.143 0.258,0.265 0.372,0.401 0.853,0.996 1.669,2.013 2.558,2.973 0.41,0.375 0.853,0.721 1.317,1.031 0.075,0.069 0.142,0.146 0.201,0.229 -0.016,0.059 -0.028,0.119 -0.036,0.179 -0.652,0.058 -1.296,0.115 -1.941,0.187 -0.234,0.006 -0.465,0.065 -0.674,0.172 -0.608,0.401 -1.182,0.845 -1.769,1.26 -0.165,0.115 -0.351,0.301 -0.516,0.287 -0.766,-0.072 -1.275,0.487 -1.919,0.716 -0.823,0.272 -1.607,0.661 -2.321,1.154 -0.315,0.222 -0.852,0.093 -1.275,0.179 -0.351,0.046 -0.688,0.165 -0.989,0.351 -0.18,0.185 -0.428,0.29 -0.687,0.29 -0.207,0 -0.408,-0.067 -0.573,-0.19 -1.068,-0.845 -2.293,-0.716 -3.503,-0.659 -0.266,0.034 -0.515,0.146 -0.717,0.322 -0.247,0.214 -0.564,0.333 -0.891,0.333 -0.243,0 -0.482,-0.066 -0.692,-0.189 -0.145,-0.068 -0.297,-0.126 -0.451,-0.172 -0.658,-0.288 -1.256,-0.702 -1.755,-1.218 -0.206,-0.233 -0.429,-0.453 -0.666,-0.652l-0.101 -0.086c-0.668,-0.504 -1.485,-0.777 -2.322,-0.777 -0.052,0 -0.105,0.002 -0.156,0.003 -0.244,0 -0.48,0 -0.717,0 -0.084,-0.013 -0.171,-0.02 -0.257,-0.02 -0.527,0 -1.023,0.253 -1.333,0.679 -0.303,0.435 -0.801,0.694 -1.332,0.694 -0.101,0 -0.201,-0.009 -0.301,-0.028 -0.068,-0.017 -0.138,-0.025 -0.208,-0.025 -0.43,0 -0.793,0.317 -0.852,0.742 -0.183,-0.057 -0.363,-0.127 -0.537,-0.208l-1.626 -1.117c-0.201,-0.137 -0.393,-0.289 -0.573,-0.452 -0.54,-0.454 -0.851,-1.124 -0.851,-1.83 0,-0.135 0.012,-0.271 0.034,-0.405 0.038,-0.22 0.057,-0.444 0.057,-0.668 0,-0.824 -0.258,-1.628 -0.737,-2.298 -0.131,-0.252 -0.2,-0.533 -0.2,-0.818 0,-0.425 0.152,-0.836 0.429,-1.158 0.227,-0.336 0.382,-0.718 0.451,-1.118 0.02,-0.172 0.03,-0.346 0.03,-0.519 0,-0.173 -0.01,-0.348 -0.029,-0.519 -0.023,-0.488 -0.294,-0.932 -0.717,-1.175l0 0c-0.234,-0.156 -0.51,-0.238 -0.791,-0.238 -0.02,0 -0.041,0 -0.062,0.001l-1.132 0.05 -0.107 0c-0.373,0 -0.717,0 -1.118,0 -0.353,0.016 -0.709,0.05 -1.06,0.1l-0.566 0.036c-0.017,-0.003 -0.035,-0.005 -0.053,-0.005 -0.018,0 -0.036,0.002 -0.054,0.006 -1.146,0.716 -2.421,0.329 -3.639,0.415 -0.24,0.014 -0.479,0.044 -0.716,0.086 -0.166,0.004 -0.33,0.033 -0.487,0.086 -0.157,0.054 0,0 0,0 -0.222,0.043 -0.444,0.093 -0.666,0.158 -1.906,0.53 -3.811,1.246 -5.853,0.996 -0.561,-0.101 -1.129,-0.171 -1.697,-0.209 -1.066,0.071 -2.078,0.504 -2.866,1.225 -0.754,0.487 -1.209,1.324 -1.209,2.221 0,0.142 0.012,0.283 0.034,0.423 0.071,0.545 0.108,1.099 0.108,1.65 0,0.03 0,0.061 0,0.09 0,0.014 0.001,0.028 0.001,0.042 0,0.179 -0.053,0.354 -0.152,0.503 -0.924,1.203 -1.06,1.203 -2.149,0.179 -0.413,-0.31 -0.916,-0.478 -1.432,-0.478 -0.517,0 -1.02,0.168 -1.433,0.478 -0.423,0.401 -0.845,0.81 -1.282,1.196 -0.043,0.034 -0.096,0.054 -0.151,0.058l0 0c-0.349,-0.495 -0.756,-0.948 -1.211,-1.347 -0.252,-0.1 -0.521,-0.152 -0.792,-0.152 -0.145,0 -0.29,0.015 -0.432,0.044 -0.574,0.043 -1.089,0.717 -1.211,1.498 -0.036,0 -0.086,0 -0.1,-0.036 -0.381,-0.677 -1.097,-1.095 -1.873,-1.095 -0.153,0 -0.306,0.017 -0.455,0.049 -1.512,0.236 -2.636,-0.487 -3.639,-1.504 -0.179,-0.187 -0.38,-0.344 -0.537,-0.545 -0.781,-0.917 -1.816,-1.583 -2.973,-1.913 -0.695,-0.309 -1.369,-0.673 -2.013,-1.075 -0.222,-0.115 -0.501,-0.115 -0.716,-0.236 -0.559,-0.323 -1.11,-0.674 -1.64,-1.039 -0.53,-0.366 -0.831,-0.659 -1.254,-0.974 -0.115,-0.092 -0.255,-0.147 -0.402,-0.157 -0.917,0.115 -1.433,-0.595 -2.041,-1.017 -0.609,-0.423 -1.24,-0.824 -1.82,-1.283 -0.507,-0.361 -0.965,-0.788 -1.361,-1.267 -0.68,-0.91 -1.597,-0.924 -2.557,-0.817 -0.273,0.051 -0.525,0.186 -0.717,0.387 -0.437,0.387 -0.838,0.81 -1.253,1.232 -0.098,0.135 -0.256,0.215 -0.423,0.215 -0.167,0 -0.324,-0.08 -0.422,-0.215 -0.365,-0.27 -0.58,-0.698 -0.58,-1.151 0,-0.046 0.002,-0.093 0.006,-0.139 0.018,-0.112 0.026,-0.226 0.026,-0.34 0,-0.709 -0.33,-1.378 -0.892,-1.808 -0.295,-0.245 -0.466,-0.609 -0.466,-0.992 0,-0.044 0.003,-0.089 0.007,-0.133 0.018,-0.217 0.027,-0.437 0.027,-0.655 0,-0.218 -0.009,-0.439 -0.026,-0.655 -0.018,-0.307 -0.096,-0.607 -0.23,-0.882 -0.13,-0.23 -0.199,-0.491 -0.199,-0.756 0,-0.264 0.069,-0.525 0.199,-0.755 0.139,-0.271 0.218,-0.57 0.229,-0.874 0.036,-0.244 0.055,-0.491 0.055,-0.738 0,-0.685 -0.141,-1.364 -0.413,-1.992 -0.052,-0.145 -0.078,-0.299 -0.078,-0.454 0,-0.063 0.005,-0.127 0.014,-0.19 0,-2.866 0,-5.731 0,-8.596 0.003,-0.04 0.004,-0.08 0.004,-0.12 0,-0.44 -0.189,-0.859 -0.52,-1.148 -0.492,-0.426 -0.807,-1.023 -0.881,-1.669 -0.196,-0.661 -0.552,-1.267 -1.031,-1.763 -0.602,-0.759 -1.297,-1.432 -1.913,-2.149 -0.172,-0.207 -0.267,-0.468 -0.267,-0.737 0,-0.019 0.001,-0.039 0.001,-0.058 0.041,-0.215 0.061,-0.434 0.061,-0.653 0,-1.205 -0.608,-2.331 -1.615,-2.993 -0.865,-0.654 -1.488,-1.581 -1.769,-2.629 -0.018,-0.071 -0.047,-0.139 -0.086,-0.2 -0.15,-0.28 -0.459,-0.595 -0.408,-0.831 0.05,-0.237 0.444,-0.437 0.68,-0.66 0.237,-0.222 0.401,-0.379 0.588,-0.58 0.48,-0.648 1.234,-1.038 2.041,-1.053 1.046,-0.079 1.985,-0.676 2.5,-1.59 0.123,-0.256 0.187,-0.537 0.187,-0.822 0,-0.057 -0.003,-0.116 -0.008,-0.174 0,-1.432 0.093,-1.54 1.569,-1.54l1.203 0c4.551,0.072 9.1,0.148 13.646,0.23 0.308,0.01 0.607,0.102 0.867,0.265 0.397,0.257 0.861,0.394 1.334,0.394 0.018,0 0.038,0 0.056,0 4.508,0 9.011,0 13.51,0 1.139,0 2.285,0.186 3.431,0.193 0.033,0.001 0.067,0.002 0.1,0.002 0.819,0 1.593,-0.376 2.099,-1.019 0.407,-0.53 1.038,-0.842 1.706,-0.842 0.093,0 0.186,0.007 0.279,0.018 0.173,0.014 0.349,0.022 0.523,0.022 0.174,0 0.349,-0.008 0.523,-0.022 0.06,-0.007 0.122,-0.01 0.183,-0.01 0.452,0 0.886,0.185 1.199,0.512 0.27,0.201 0.589,0.328 0.924,0.365 0.28,0.057 0.588,0 0.874,0 0.032,0.001 0.064,0.002 0.096,0.002 0.427,0 0.837,-0.165 1.143,-0.461 0.292,-0.232 0.646,-0.375 1.018,-0.408 0.945,-0.057 1.905,0 2.865,-0.036 0.372,-0.026 0.733,-0.147 1.046,-0.351 0.206,-0.183 0.472,-0.285 0.748,-0.285 0.276,0 0.543,0.102 0.749,0.285 0.312,0.206 0.673,0.327 1.046,0.351 0.812,0.005 1.618,0.174 2.364,0.495 0.681,0.308 1.597,0.1 2.407,0.1 0.179,0 0.365,-0.143 0.53,-0.122 1.103,0.151 2.149,-0.294 3.173,-0.473 0.192,-0.048 0.374,-0.136 0.53,-0.258 0.151,-0.107 0.286,-0.235 0.401,-0.379 0.991,-1.214 2.326,-2.106 3.825,-2.558 0.698,-0.304 1.348,-0.716 1.92,-1.217 0.331,-0.261 0.633,-0.56 0.895,-0.889 0.367,-0.539 0.978,-0.863 1.631,-0.863 0.089,0 0.179,0.006 0.268,0.018 0.035,0.004 0.071,0.007 0.106,0.007 0.23,0 0.45,-0.093 0.61,-0.258 0.552,-0.716 1.433,-0.845 2.149,-1.253 0,0 0.072,0 0.1,0 0.827,-0.674 1.749,-1.23 2.73,-1.647 0.264,-0.148 0.553,-0.25 0.852,-0.302 0.626,-0.05 1.219,-0.302 1.691,-0.716 0.249,-0.17 0.516,-0.315 0.795,-0.43 0.379,-0.208 0.752,-0.437 1.132,-0.645l2.041 -1.132c0.115,-0.064 0.236,-0.165 0.344,-0.157 0.694,-0.065 1.342,-0.381 1.819,-0.888 0.603,-0.588 1.414,-0.918 2.257,-0.918 0.078,0 0.158,0.003 0.236,0.008 0.15,0.039 0.305,0.059 0.46,0.059 0.493,0 0.966,-0.2 1.309,-0.553 0.026,-0.025 0.059,-0.043 0.094,-0.05 0.78,-0.179 1.561,-0.387 2.356,-0.537 0.967,-0.187 1.984,-0.129 2.83,-0.81 0.369,-0.228 0.796,-0.349 1.23,-0.349 0.3,0 0.598,0.058 0.876,0.17 0.472,0.131 0.951,0.238 1.433,0.316 0.452,0.05 0.917,0 1.369,0 0.257,0.003 0.508,0.089 0.715,0.243 0.304,0.268 0.695,0.416 1.1,0.416 0.054,0 0.108,-0.003 0.161,-0.008 0.473,0 0.953,0 1.433,0 0.09,-0.006 0.183,-0.01 0.274,-0.01 0.744,0 1.473,0.215 2.097,0.618 0.653,0.309 1.368,0.472 2.092,0.474 0.47,0.008 0.922,0.195 1.26,0.523 1.204,1.232 2.428,2.45 3.653,3.653 0.298,0.257 0.469,0.631 0.469,1.025 0,0.03 -0.001,0.062 -0.003,0.092 -0.009,0.055 -0.013,0.109 -0.013,0.164 0,0.162 0.036,0.321 0.106,0.467 0.58,0.852 0.594,1.841 0.809,2.793 0.301,1.354 0.824,2.658 1.146,4.005 0.121,0.79 0.351,1.564 0.681,2.293 0.194,0.351 0,0.895 0.058,1.346 0.03,0.337 0.154,0.66 0.357,0.931 0.522,0.608 1.094,1.182 1.697,1.711 0.452,0.387 1.003,0.659 1.433,1.053 0.559,0.495 0.531,0.717 0.036,1.262z"/>
  </g>
 </g>
</svg>
