<?xml version="1.0" encoding="UTF-8"?>
<!DOCTYPE svg PUBLIC "-//W3C//DTD SVG 1.1//EN" "http://www.w3.org/Graphics/SVG/1.1/DTD/svg11.dtd">
<!-- Creator: CorelDRAW 2020 -->
<svg xmlns="http://www.w3.org/2000/svg" xml:space="preserve" width="72px" height="68px" version="1.1" style="shape-rendering:geometricPrecision; text-rendering:geometricPrecision; image-rendering:optimizeQuality; fill-rule:evenodd; clip-rule:evenodd"
viewBox="0 0 18.523 17.59"
 xmlns:xlink="http://www.w3.org/1999/xlink"
 xmlns:xodm="http://www.corel.com/coreldraw/odm/2003">
 <defs>
  <style type="text/css">
   <![CDATA[
    .fil0 {fill:#EDEDED;fill-rule:nonzero}
   ]]>
  </style>
 </defs>
 <g id="Layer_x0020_1">
  <metadata id="CorelCorpID_0Corel-Layer"/>
  <g id="Layer_16" data-name="Layer 16">
   <path class="fil0" d="M18.511 3.712c0.008,0.032 0.012,0.064 0.012,0.097 0,0.164 -0.096,0.313 -0.244,0.383 -0.078,0.052 -0.147,0.117 -0.204,0.192 -0.095,0.128 -0.244,0.204 -0.403,0.204 -0.002,0 -0.004,0 -0.006,0 -0.073,0 -0.149,0.079 -0.226,0.116 -0.09,0.055 -0.188,0.095 -0.29,0.12 -0.184,0.005 -0.331,0.155 -0.331,0.339 0,0.001 0,0.001 0,0.002 0,0.247 -0.042,0.502 0.123,0.723 0.065,0.085 0.128,0.173 0.204,0.261 0.093,0.102 0.174,0.216 0.239,0.339 0.095,0.214 0.234,0.406 0.408,0.563 0.045,0.049 0.07,0.114 0.07,0.181 0,0.008 0,0.015 -0.001,0.023 -0.026,0.114 -0.128,0.11 -0.23,0.088 -0.241,-0.057 -0.48,-0.049 -0.625,0.185 -0.145,0.235 -0.233,0.451 -0.355,0.678 -0.045,0.122 -0.106,0.239 -0.179,0.347 -0.158,0.171 -0.082,0.388 -0.08,0.583 0.002,0.196 0.047,0.409 0.051,0.613 -0.001,0.008 -0.001,0.017 -0.001,0.025 0,0.118 0.051,0.23 0.14,0.307 0.236,0.219 0.477,0.433 0.712,0.653 0.133,0.121 0.208,0.292 0.208,0.471 0,0.062 -0.009,0.123 -0.026,0.183 -0.022,0.103 -0.034,0.209 -0.034,0.315 0,0.08 0.007,0.16 0.019,0.24 0.041,0.105 0.12,0.191 0.221,0.24 0.132,0.103 0.209,0.261 0.209,0.429 0,0.083 -0.019,0.166 -0.056,0.241 -0.036,0.036 -0.078,0.065 -0.125,0.086 -0.114,0.056 -0.223,0.125 -0.324,0.204 -0.28,0.265 -0.543,0.547 -0.817,0.816 -0.078,0.053 -0.164,0.095 -0.255,0.124 -0.084,0.035 -0.164,0.079 -0.238,0.131 -0.205,0.171 -0.394,0.353 -0.594,0.526 -0.051,0.036 -0.105,0.067 -0.161,0.092 -0.09,0.036 -0.174,0.084 -0.252,0.141 -0.187,0.172 -0.363,0.359 -0.544,0.537 -0.087,0.075 -0.137,0.184 -0.137,0.298 0,0.012 0.001,0.024 0.002,0.037 0,0.077 0,0.157 0,0.234 0.041,0.239 -0.11,0.376 -0.265,0.511 -0.082,0.071 -0.154,0.036 -0.241,0 -0.15,-0.075 -0.308,-0.135 -0.47,-0.178 -0.025,-0.006 -0.051,-0.009 -0.078,-0.009 -0.106,0 -0.206,0.048 -0.273,0.131 -0.216,0.179 -0.372,0.422 -0.443,0.694 -0.035,0.209 -0.216,0.362 -0.428,0.362 -0.129,0 -0.252,-0.058 -0.335,-0.158 -0.119,-0.108 -0.233,-0.223 -0.341,-0.343 -0.171,-0.204 -0.385,-0.204 -0.622,-0.167 -0.207,0.037 -0.418,0.056 -0.628,0.056 -0.262,0 -0.524,-0.029 -0.78,-0.086 -0.143,-0.035 -0.284,-0.08 -0.425,-0.121 -0.035,-0.008 -0.068,-0.025 -0.095,-0.049 -0.186,-0.228 -0.464,-0.241 -0.715,-0.316 -0.03,0 -0.071,0 -0.09,-0.021 -0.161,-0.169 -0.395,-0.163 -0.591,-0.247 -0.151,-0.065 -0.325,-0.073 -0.478,-0.13 -0.192,-0.072 -0.367,-0.188 -0.561,-0.247 -0.304,-0.094 -0.612,-0.225 -0.937,-0.168 -0.204,0.035 -0.204,0.035 -0.345,-0.132 -0.14,-0.168 -0.408,-0.233 -0.626,-0.308 -0.098,-0.035 -0.194,-0.078 -0.292,-0.119 -0.098,-0.041 -0.214,-0.081 -0.316,-0.132 -0.186,-0.086 -0.368,-0.185 -0.541,-0.292 -0.204,-0.139 -0.408,-0.298 -0.613,-0.449 -0.035,-0.021 -0.069,-0.046 -0.099,-0.074 -0.216,-0.239 -0.484,-0.428 -0.782,-0.551 -0.239,-0.126 -0.494,-0.22 -0.741,-0.33 -0.02,-0.006 -0.039,-0.015 -0.057,-0.027 -0.239,-0.187 -0.477,-0.377 -0.712,-0.569 -0.033,-0.027 -0.057,-0.062 -0.07,-0.102 -0.07,-0.255 -0.189,-0.495 -0.35,-0.704 -0.034,-0.055 -0.051,-0.118 -0.051,-0.183 0,-0.082 0.029,-0.162 0.081,-0.225 0.044,-0.051 0.091,-0.1 0.141,-0.145 0.103,-0.081 0.164,-0.204 0.164,-0.336 0,-0.016 -0.001,-0.033 -0.003,-0.05 -0.005,-0.027 -0.007,-0.056 -0.007,-0.083 0,-0.125 0.047,-0.244 0.132,-0.335 0.038,-0.059 0.058,-0.128 0.058,-0.199 0,-0.011 0,-0.023 -0.001,-0.034 -0.003,-0.026 -0.004,-0.052 -0.004,-0.077 0,-0.226 0.087,-0.443 0.242,-0.607 0.113,-0.127 0.209,-0.27 0.284,-0.422 0.029,-0.06 0.044,-0.127 0.044,-0.193 0,-0.016 -0.001,-0.032 -0.003,-0.048 0,-0.003 0,-0.006 0,-0.009 0,-0.127 0.047,-0.249 0.133,-0.342 0.185,-0.195 0.335,-0.421 0.443,-0.667 0.081,-0.249 0.269,-0.408 0.357,-0.639 0.132,-0.335 0.361,-0.612 0.481,-0.961 0.088,-0.259 0.359,-0.459 0.559,-0.678 0.083,-0.074 0.172,-0.143 0.266,-0.204 0.032,-0.024 0.071,-0.065 0.106,-0.063 0.279,0 0.408,-0.237 0.612,-0.355 0.069,-0.039 0.149,-0.063 0.218,-0.106 0.133,-0.078 0.258,-0.166 0.388,-0.247l0.325 -0.204c0.038,-0.016 0.075,-0.036 0.108,-0.061 0.097,-0.12 0.239,-0.193 0.392,-0.205 0.065,0 0.136,-0.073 0.187,-0.128 0.252,-0.263 0.511,-0.52 0.739,-0.802 0.186,-0.229 0.435,-0.255 0.688,-0.306 0.112,-0.025 0.222,-0.068 0.335,-0.102 0.089,-0.035 0.181,-0.063 0.275,-0.082 0.179,-0.009 0.321,-0.155 0.323,-0.335 0.003,-0.054 0.005,-0.109 0.005,-0.163 0,-0.054 -0.002,-0.109 -0.006,-0.163 -0.003,-0.082 -0.031,-0.161 -0.079,-0.227 -0.067,-0.074 -0.104,-0.171 -0.104,-0.271 0,-0.166 0.1,-0.315 0.253,-0.378 0.07,-0.045 0.15,-0.072 0.233,-0.079 0.169,-0.007 0.326,-0.093 0.422,-0.233 0.165,-0.182 0.394,-0.316 0.441,-0.588 0.006,-0.051 0.016,-0.103 0.028,-0.153 0.016,-0.04 0.035,-0.079 0.057,-0.116 0.035,0.027 0.084,0.045 0.103,0.082 0.041,0.07 0.07,0.148 0.085,0.228 0.098,0.336 0.38,0.586 0.725,0.643 0.009,0.001 0.018,0.001 0.027,0.001 0.128,0 0.241,-0.083 0.279,-0.205 0.026,-0.084 0.069,-0.1 0.147,-0.1l2.093 0c0.007,-0.001 0.014,-0.001 0.02,-0.001 0.03,0 0.059,0.007 0.085,0.021 0.251,0.204 0.498,0.409 0.751,0.596 0.136,0.103 0.28,0.197 0.428,0.282 0.049,0.024 0.102,0.037 0.157,0.037 0.007,0 0.014,0 0.021,0 0.281,0 0.563,0 0.845,0 0.105,0.009 0.205,0.049 0.287,0.116 0.217,0.165 0.421,0.349 0.627,0.528 0.141,0.123 0.267,0.262 0.408,0.376 0.146,0.122 0.307,0.228 0.478,0.312 0.1,0.027 0.204,0.04 0.308,0.04 0.03,0 0.06,-0.001 0.09,-0.003 0.033,0.005 0.066,0.008 0.1,0.008 0.149,0 0.293,-0.051 0.408,-0.145 0.058,-0.036 0.126,-0.056 0.195,-0.056 0.105,0 0.204,0.044 0.274,0.122 0.166,0.133 0.263,0.334 0.263,0.547 0,0.051 -0.005,0.101 -0.016,0.15 0.001,0.045 0.004,0.089 0.01,0.133l0 0z"/>
  </g>
 </g>
</svg>
