<?xml version="1.0" encoding="UTF-8"?>
<!DOCTYPE svg PUBLIC "-//W3C//DTD SVG 1.1//EN" "http://www.w3.org/Graphics/SVG/1.1/DTD/svg11.dtd">
<!-- Creator: CorelDRAW 2020 -->
<svg xmlns="http://www.w3.org/2000/svg" xml:space="preserve" width="66px" height="53px" version="1.1" style="shape-rendering:geometricPrecision; text-rendering:geometricPrecision; image-rendering:optimizeQuality; fill-rule:evenodd; clip-rule:evenodd"
viewBox="0 0 8.874 7.06"
 xmlns:xlink="http://www.w3.org/1999/xlink"
 xmlns:xodm="http://www.corel.com/coreldraw/odm/2003">
 <defs>
  <style type="text/css">
   <![CDATA[
    .fil0 {fill:#EDEDED;fill-rule:nonzero}
   ]]>
  </style>
 </defs>
 <g id="Layer_x0020_1">
  <metadata id="CorelCorpID_0Corel-Layer"/>
  <g id="Layer_15" data-name="Layer 15">
   <path class="fil0" d="M8.873 2.007c0,0.1 0,0.201 0,0.3 0.001,0.004 0.001,0.008 0.001,0.011 0,0.049 -0.036,0.09 -0.084,0.095 -0.046,0.015 -0.088,0.04 -0.122,0.073 -0.139,0.134 -0.272,0.273 -0.409,0.407 -0.075,0.071 -0.154,0.135 -0.235,0.199 -0.025,0.014 -0.052,0.026 -0.08,0.034 -0.077,0.037 -0.152,0.076 -0.227,0.114 -0.006,0 -0.008,0.01 -0.013,0.011 -0.123,0.044 -0.236,0.114 -0.331,0.205 -0.125,0.089 -0.295,0.096 -0.394,0.225 -0.013,0.015 -0.032,0.024 -0.051,0.025 -0.188,0.011 -0.258,0.178 -0.373,0.285 -0.004,0.004 -0.007,0.009 -0.008,0.014 0,0.185 -0.145,0.297 -0.22,0.444 -0.009,0.025 -0.016,0.051 -0.02,0.078 -0.01,0.032 -0.023,0.064 -0.039,0.095 -0.064,0.106 -0.132,0.212 -0.198,0.313 -0.066,0.1 -0.131,0.212 -0.192,0.318 -0.036,0.062 -0.057,0.133 -0.092,0.196 -0.084,0.153 -0.171,0.302 -0.257,0.453 -0.038,0.068 -0.076,0.135 -0.111,0.204 -0.01,0.025 -0.017,0.05 -0.02,0.077 0,0.021 0.005,0.048 0,0.063 -0.069,0.101 -0.042,0.221 -0.07,0.327 -0.044,0.126 -0.1,0.249 -0.166,0.365 -0.009,0.021 -0.028,0.039 -0.04,0.059 -0.039,0.07 -0.085,0.086 -0.137,0.028 -0.106,-0.12 -0.264,-0.152 -0.388,-0.237 -0.009,-0.006 -0.022,-0.008 -0.029,-0.017 -0.135,-0.155 -0.306,-0.106 -0.473,-0.08 -0.053,0.012 -0.108,0.018 -0.162,0.018 -0.149,0 -0.294,-0.047 -0.414,-0.134 -0.003,-0.004 -0.008,-0.007 -0.013,-0.01 -0.119,-0.042 -0.238,-0.081 -0.357,-0.125 -0.153,-0.056 -0.318,-0.096 -0.434,-0.219 -0.043,-0.047 -0.104,-0.074 -0.168,-0.074 -0.007,0 -0.014,0 -0.021,0.001 -0.041,0.002 -0.083,0.003 -0.125,0.003 -0.042,0 -0.084,-0.001 -0.126,-0.003 -0.021,-0.003 -0.042,-0.004 -0.063,-0.004 -0.112,0 -0.221,0.036 -0.31,0.103 -0.04,0.022 -0.085,0.033 -0.131,0.033 -0.056,0 -0.111,-0.017 -0.158,-0.049 -0.071,-0.04 -0.15,-0.067 -0.232,-0.08 -0.128,-0.004 -0.256,-0.018 -0.382,-0.041 -0.122,-0.041 -0.272,-0.044 -0.353,-0.171 -0.024,-0.029 -0.041,-0.063 -0.05,-0.099 -0.018,-0.212 -0.031,-0.424 -0.046,-0.636l0.011 0c0,-0.111 0,-0.223 0,-0.333 -0.001,-0.006 -0.001,-0.012 -0.001,-0.018 0,-0.018 0.003,-0.037 0.009,-0.054 0.085,-0.167 0.169,-0.334 0.262,-0.496 0.048,-0.082 0.136,-0.142 0.127,-0.253 0.001,-0.005 0.003,-0.01 0.008,-0.013 0.106,-0.099 0.08,-0.227 0.081,-0.35 0.001,-0.123 -0.007,-0.244 0,-0.365 0.021,-0.281 -0.159,-0.438 -0.351,-0.588 -0.023,-0.015 -0.049,-0.024 -0.076,-0.026 -0.205,-0.028 -0.318,-0.158 -0.394,-0.336 -0.046,-0.082 -0.102,-0.159 -0.166,-0.228 -0.097,-0.124 -0.076,-0.223 0.064,-0.291 0.02,-0.007 0.038,-0.019 0.054,-0.035 0.057,-0.076 0.106,-0.047 0.153,0.011 0.051,0.065 0.129,0.104 0.212,0.106 0.09,0.02 0.18,0.048 0.266,0.083 0.164,0.055 0.311,0.154 0.424,0.286 0.025,0.025 0.057,0.041 0.091,0.046 0.125,0.014 0.251,0.026 0.378,0.034 0.086,0.011 0.164,0.056 0.218,0.125 0.046,0.06 0.116,0.098 0.192,0.106 0.124,0.007 0.184,-0.077 0.253,-0.15 0.097,-0.106 0.188,-0.212 0.282,-0.313 0.043,-0.062 0.065,-0.136 0.065,-0.211 0,-0.061 -0.014,-0.121 -0.042,-0.175 -0.046,-0.056 -0.082,-0.112 -0.049,-0.183 0.035,-0.079 0.111,-0.132 0.197,-0.138 0.165,-0.016 0.332,-0.023 0.498,-0.035 0.024,-0.001 0.048,-0.006 0.071,-0.014 0.105,-0.041 0.216,-0.064 0.328,-0.065 0.023,0 0.048,0 0.071,0 0.008,-0.001 0.015,-0.001 0.022,-0.001 0.008,0 0.015,0 0.023,0.001l0.007 0 0.013 0c0.054,0.01 0.108,0.024 0.161,0.043l0.008 0 0.042 0.018c0.034,0.016 0.07,0.03 0.106,0.04 0.017,0.009 0.035,0.015 0.054,0.018 0.039,0.006 0.078,0.009 0.118,0.009l0.1 0c0.049,-0.009 0.096,-0.028 0.139,-0.053 0.01,-0.005 0.018,-0.012 0.024,-0.021l0.005 -0.007c0.036,-0.029 0.068,-0.065 0.092,-0.106 0.002,-0.003 0.005,-0.006 0.009,-0.008 0.081,-0.065 0.182,-0.103 0.287,-0.106 0.02,0.001 0.04,0.001 0.06,0.001 0.02,0 0.04,0 0.06,-0.001l0.021 0c0.003,0 0.005,0 0.008,0 0.026,0 0.051,-0.006 0.075,-0.017l0 0c0.021,-0.006 0.041,-0.015 0.06,-0.027l0 0 0.006 0c0.004,-0.002 0.007,-0.005 0.01,-0.008l0.01 -0.007c0.09,-0.022 0.173,-0.066 0.244,-0.126 0.007,-0.003 0.012,-0.007 0.017,-0.011 0.057,-0.047 0.121,-0.083 0.19,-0.106 0.152,-0.04 0.28,-0.156 0.457,-0.12 0.086,0.018 0.184,-0.097 0.189,-0.188 0,-0.003 0,-0.006 0,-0.009 0,-0.121 0.098,-0.219 0.219,-0.219 0.009,0 0.018,0 0.027,0.001 0.009,0.001 0.018,0.002 0.027,0.002 0.088,0 0.172,-0.04 0.227,-0.108 0.052,-0.059 0.112,-0.112 0.167,-0.167 0.023,-0.03 0.059,-0.048 0.097,-0.048 0.028,0 0.055,0.01 0.077,0.028 0.035,0.019 0.068,0.043 0.098,0.069 0.143,0.134 0.299,0.255 0.464,0.361 0.016,0.017 0.026,0.04 0.026,0.063 0,0.002 -0.001,0.005 -0.001,0.007 -0.001,0.012 -0.002,0.025 -0.002,0.037 0,0.103 0.043,0.202 0.119,0.273 0.091,0.116 0.173,0.24 0.244,0.37 0.045,0.067 0.087,0.139 0.124,0.212 0.015,0.048 0.028,0.098 0.038,0.148 0.009,0.036 0.026,0.07 0.049,0.099 0.045,0.061 0.099,0.114 0.161,0.158 0.075,0.04 0.157,0.067 0.241,0.08 0.058,0.027 0.07,0.052 0.068,0.102z"/>
  </g>
 </g>
</svg>
