<?xml version="1.0" encoding="UTF-8"?>
<!DOCTYPE svg PUBLIC "-//W3C//DTD SVG 1.1//EN" "http://www.w3.org/Graphics/SVG/1.1/DTD/svg11.dtd">
<!-- Creator: CorelDRAW 2020 -->
<svg xmlns="http://www.w3.org/2000/svg" xml:space="preserve" width="166px" height="129px" version="1.1" style="shape-rendering:geometricPrecision; text-rendering:geometricPrecision; image-rendering:optimizeQuality; fill-rule:evenodd; clip-rule:evenodd"
viewBox="0 0 243.728 189.201"
 xmlns:xlink="http://www.w3.org/1999/xlink"
 xmlns:xodm="http://www.corel.com/coreldraw/odm/2003">
 <defs>
  <style type="text/css">
   <![CDATA[
    .fil0 {fill:#EDEDED;fill-rule:nonzero}
   ]]>
  </style>
 </defs>
 <g id="Layer_x0020_1">
  <metadata id="CorelCorpID_0Corel-Layer"/>
  <g id="Layer_18" data-name="Layer 18">
   <path class="fil0" d="M243.691 64.293c-0.177,0.917 -0.616,1.765 -1.265,2.437 -0.125,0.124 -0.208,0.284 -0.236,0.457 -0.183,1.791 -1.211,3.047 -2.43,4.297 -0.716,0.569 -1.314,1.274 -1.76,2.072 -0.571,1.455 -1.805,2.247 -2.727,3.344 -0.106,0.138 -0.274,0.282 -0.282,0.434 -0.058,0.64 -0.355,1.236 -0.83,1.669 -0.11,0.141 -0.169,0.315 -0.169,0.494 0,0.015 0,0.031 0.001,0.046 -0.005,0.658 -0.181,1.304 -0.51,1.874 -0.192,0.546 -0.34,1.107 -0.442,1.676 -0.053,0.206 -0.114,0.404 -0.167,0.61 -0.107,0.381 -0.206,0.762 -0.298,1.158 0,0.167 0,0.381 -0.083,0.503 -0.278,0.469 -0.425,1.005 -0.425,1.551 0,0.156 0.012,0.313 0.036,0.467 0,3.154 0,6.307 0,9.461 0,0.214 0,0.48 0.069,0.625 0.291,0.508 0.445,1.084 0.445,1.67 0,0.206 -0.019,0.413 -0.057,0.615 -0.005,0.062 -0.008,0.125 -0.008,0.187 0,0.491 0.176,0.965 0.496,1.337 0.299,0.397 0.461,0.88 0.461,1.378 0,0.222 -0.032,0.443 -0.096,0.656 -0.093,0.835 -0.145,1.688 -0.145,2.532 0,0.044 0,0.09 0,0.133 0,0.922 -0.259,1.257 -1.142,1.486 -1.01,0.418 -1.728,1.335 -1.889,2.415 0.008,0.094 0.013,0.188 0.013,0.282 0,0.847 -0.353,1.656 -0.973,2.232 -0.321,0.342 -0.5,0.794 -0.5,1.262 0,0.451 0.164,0.885 0.462,1.221 0.112,0.107 0.217,0.222 0.312,0.343 0.213,0.305 0.099,0.473 -0.221,0.633 -0.444,0.178 -0.852,0.437 -1.203,0.761 -1.463,1.6 -1.92,1.372 -3.726,0.572 -0.898,-0.5 -1.904,-0.788 -2.932,-0.838 -0.213,-0.023 -0.414,-0.108 -0.579,-0.244 -0.892,-0.67 -1.775,-1.363 -2.651,-2.049 -0.294,-0.234 -0.577,-0.49 -0.838,-0.762 -0.366,-0.472 -0.927,-0.753 -1.524,-0.762 -0.337,-0.062 -0.643,-0.237 -0.868,-0.494 -0.417,-0.441 -0.998,-0.69 -1.604,-0.69 -0.606,0 -1.186,0.249 -1.604,0.69 -0.77,0.724 -1.605,1.385 -2.489,1.964 -0.63,0.325 -1.306,0.546 -2.004,0.655 -0.661,0.077 -1.279,0.372 -1.753,0.838 -0.327,0.384 -0.805,0.604 -1.309,0.604 -0.025,0 -0.052,0 -0.077,-0.002 -0.518,0.057 -1.029,0.167 -1.524,0.328 -0.105,0.045 -0.215,0.082 -0.327,0.107 -1.181,0.083 -2.354,0.152 -3.535,0.243 -0.845,0.069 -1.691,0.153 -2.529,0.275 -0.285,0.051 -0.549,0.184 -0.762,0.38 -0.364,0.344 -0.847,0.535 -1.348,0.535 -0.086,0 -0.173,-0.005 -0.259,-0.017 -0.762,0 -1.478,0 -2.217,0 -0.106,-0.007 -0.213,-0.011 -0.319,-0.011 -1.101,0 -2.163,0.415 -2.971,1.162 -0.046,0.038 -0.092,0.091 -0.145,0.099 -0.787,0.219 -1.486,0.68 -1.997,1.318 -0.18,0.146 -0.406,0.227 -0.639,0.228 -0.716,0 -1.44,0 -2.163,0 -0.002,0 -0.004,0 -0.006,0 -0.21,0 -0.415,-0.069 -0.581,-0.198 -0.342,-0.332 -0.799,-0.518 -1.275,-0.518 -0.112,0 -0.223,0.01 -0.332,0.031 -0.038,0.002 -0.076,0.003 -0.114,0.003 -0.451,0 -0.883,-0.176 -1.204,-0.491 -0.309,-0.249 -0.686,-0.4 -1.082,-0.434 -0.384,-0.022 -0.779,-0.034 -1.166,-0.034 -0.386,0 -0.781,0.012 -1.165,0.033 -0.051,0.007 -0.103,0.01 -0.154,0.01 -0.424,0 -0.825,-0.195 -1.088,-0.527 -0.405,-0.587 -1.073,-0.938 -1.786,-0.938 -0.137,0 -0.274,0.014 -0.408,0.039 -0.076,0 -0.152,0 -0.228,0 -1.189,0.175 -2.011,-0.35 -2.949,-1.097 -0.937,-0.747 -2.003,-1.752 -3.047,-2.613 -0.221,-0.16 -0.488,-0.248 -0.761,-0.251 -2.102,0 -4.205,0 -6.308,0 -0.006,0 -0.013,0 -0.02,0 -0.204,0 -0.408,0.041 -0.597,0.122 -0.579,0.337 -1.187,0.636 -1.805,0.891 -0.708,0.221 -1.478,0.236 -2.209,0.396 -0.373,0.052 -0.729,0.193 -1.036,0.411 -0.63,0.633 -1.488,0.989 -2.381,0.989 -0.067,0 -0.135,-0.002 -0.202,-0.006 -0.184,-0.02 -0.37,-0.032 -0.556,-0.032 -0.186,0 -0.372,0.012 -0.556,0.032 -0.319,0.045 -0.626,0.157 -0.899,0.328 -0.762,0.503 -1.417,1.158 -2.438,1.09 -0.212,0.018 -0.411,0.116 -0.556,0.273 -0.525,0.488 -1.051,0.99 -1.523,1.524 -0.472,0.533 -0.435,3.329 0,3.862 0.761,0.846 1.523,1.661 2.247,2.521 0.184,0.264 0.343,0.545 0.473,0.839 0.104,0.244 0.237,0.478 0.395,0.693 1.524,1.645 3.047,3.298 4.67,4.898 0.489,0.441 0.768,1.07 0.768,1.729 0,0.056 -0.002,0.112 -0.006,0.167 -0.061,1.12 0,2.286 0,3.383 -0.01,0.478 -0.125,0.949 -0.335,1.379 -0.25,0.53 -0.379,1.11 -0.379,1.696 0,0.197 0.015,0.395 0.044,0.589 0.083,1.013 -0.564,1.524 -1.242,2.011 -0.678,0.487 -1.295,1.082 -1.92,1.653 -0.559,0.547 -0.875,1.298 -0.875,2.081 0,0.155 0.013,0.311 0.038,0.463 0.121,1.699 0.152,3.406 0.251,5.104 0.003,0.045 0.005,0.09 0.005,0.134 0,0.465 -0.199,0.907 -0.546,1.215 -0.829,0.73 -1.526,1.6 -2.057,2.567 -0.476,0.658 -1.024,1.27 -1.623,1.82 -0.338,0.438 -0.651,0.903 -0.93,1.379 -0.122,0.219 -0.26,0.431 -0.41,0.632 -0.259,0.289 -0.548,0.549 -0.823,0.83 -0.725,0.56 -1.259,1.333 -1.524,2.21 -0.191,0.505 -0.493,0.961 -0.884,1.333 -0.282,0.351 -0.632,0.64 -0.944,0.96 -1.859,1.905 -1.463,1.09 -1.524,3.634 0.013,0.324 0.096,0.641 0.245,0.929 0.145,0.195 0.223,0.433 0.223,0.676 0,0.353 -0.165,0.686 -0.444,0.901 -0.404,0.419 -0.823,0.823 -1.235,1.242 -0.039,0.044 -0.082,0.085 -0.129,0.122l-2.476 1.279c-0.053,0 -0.114,0 -0.16,0.061 -1.226,0.815 -2.613,0.602 -3.953,0.61 -0.587,0 -1.174,0 -1.752,0 -1.12,-0.046 -1.714,0.594 -2.286,1.47 -0.807,1.196 -1.706,2.407 -3.443,2.285 -0.465,0 -0.945,0.061 -1.402,0 -0.161,-0.024 -0.326,-0.036 -0.489,-0.036 -1.061,0 -2.059,0.51 -2.68,1.369 -0.561,0.666 -1.389,1.052 -2.26,1.052 -0.099,0 -0.2,-0.006 -0.299,-0.016 -0.039,0 -0.077,0 -0.115,0 -1.277,0 -2.558,0.08 -3.825,0.235 -0.377,0.069 -0.719,0.272 -0.959,0.573 -0.495,0.682 -1.288,1.086 -2.132,1.086 -0.158,0 -0.317,-0.014 -0.473,-0.042 -0.223,-0.014 -0.449,-0.021 -0.674,-0.021 -0.225,0 -0.451,0.007 -0.674,0.02 -0.043,-0.004 -0.087,-0.007 -0.13,-0.007 -0.648,0 -1.173,0.526 -1.173,1.173 0,0.046 0.003,0.092 0.007,0.137 0.168,1.455 -0.761,2.118 -1.774,2.796 -0.64,0.434 -1.25,0.922 -1.859,1.394 -0.215,0.228 -0.516,0.358 -0.83,0.358 -0.342,0 -0.667,-0.154 -0.884,-0.419 -0.313,-0.21 -0.645,-0.391 -0.99,-0.541 -0.355,-0.148 -0.694,-0.338 -1.006,-0.563 -0.595,-0.694 -1.362,-1.22 -2.224,-1.524 -0.644,-0.266 -1.212,-0.688 -1.653,-1.227 -0.382,-0.438 -0.935,-0.69 -1.516,-0.69 -0.046,0 -0.092,0.002 -0.137,0.005 -0.602,0.053 -1.204,0 -1.805,0 -0.039,0.003 -0.077,0.004 -0.115,0.004 -0.433,0 -0.846,-0.185 -1.135,-0.507 -0.432,-0.461 -1.036,-0.722 -1.667,-0.722 -0.419,0 -0.832,0.115 -1.189,0.334 -0.232,0.133 -0.495,0.204 -0.762,0.204 -0.267,0 -0.531,-0.071 -0.762,-0.204 -0.453,-0.205 -0.944,-0.311 -1.441,-0.311 -0.747,0 -1.476,0.241 -2.079,0.684 -0.616,0.533 -1.211,1.089 -1.85,1.6 -0.218,0.177 -0.483,0.285 -0.762,0.312 -0.991,0 -1.988,0 -2.979,0 -0.272,-0.011 -0.536,-0.098 -0.762,-0.252 -0.529,-0.306 -1.132,-0.468 -1.744,-0.468 -0.612,0 -1.214,0.162 -1.744,0.468 -0.233,0.189 -0.525,0.293 -0.826,0.293 -0.348,0 -0.681,-0.138 -0.927,-0.384 -0.901,-0.821 -1.772,-1.701 -2.584,-2.615 -0.515,-0.712 -0.961,-1.48 -1.324,-2.283 -0.285,-0.53 -0.541,-1.08 -0.762,-1.639 -0.093,-0.229 -0.147,-0.475 -0.158,-0.723 -0.02,-0.402 -0.032,-0.82 -0.032,-1.226 0,-0.407 0.012,-0.824 0.032,-1.227 0.042,-0.393 0.193,-0.767 0.433,-1.081 0.313,-0.337 0.488,-0.78 0.488,-1.241 0,-0.005 0,-0.011 0,-0.016 0,-1.013 0,-2.027 0,-3.047 -0.001,-0.023 -0.001,-0.047 -0.001,-0.07 0,-0.981 0.307,-1.937 0.876,-2.734 0.508,-0.877 0.836,-1.849 0.961,-2.856 0.046,-0.491 0.072,-0.989 0.072,-1.484 0,-0.341 -0.011,-0.685 -0.034,-1.023 -0.012,-0.835 -0.48,-1.598 -1.219,-1.988 -0.625,-0.419 -1.219,-0.884 -1.859,-1.272 -0.329,-0.223 -0.704,-0.369 -1.097,-0.427 -0.868,-0.06 -1.752,0 -2.628,0 -0.105,0.01 -0.213,0.015 -0.319,0.015 -0.552,0 -1.098,-0.128 -1.593,-0.373 -0.281,-0.087 -0.575,-0.132 -0.87,-0.132 -0.129,0 -0.259,0.009 -0.387,0.026 -0.693,0 -0.762,-0.191 -0.495,-0.762 0.094,-0.149 0.152,-0.319 0.168,-0.495 -0.046,-1.173 -0.13,-2.354 -0.175,-3.535 0,-0.009 0,-0.021 0,-0.03 0,-0.333 0.036,-0.666 0.106,-0.991 0.191,-1.044 0.229,-2.034 -0.761,-2.712 -0.224,-0.165 -0.486,-0.27 -0.762,-0.304 -1.227,0 -2.453,0 -3.687,0 -0.866,0.121 -1.548,0.802 -1.668,1.668 -0.02,0.138 -0.03,0.277 -0.03,0.416 0,0.483 0.118,0.961 0.342,1.389 0.022,0.077 0.034,0.157 0.034,0.237 0,0.191 -0.066,0.377 -0.186,0.525 -0.611,0.539 -1.056,1.244 -1.28,2.027 -0.123,0.444 -0.427,0.818 -0.838,1.028 -0.096,0.013 -0.193,0.021 -0.29,0.021 -0.402,0 -0.796,-0.122 -1.127,-0.349 -1.036,-0.617 -1.981,-1.379 -3.002,-2.011 -0.358,-0.191 -0.759,-0.291 -1.165,-0.291 -0.033,0 -0.066,0.001 -0.099,0.002 -0.043,0.002 -0.087,0.003 -0.13,0.003 -0.622,0 -1.221,-0.235 -1.675,-0.658 -0.527,-0.495 -1.223,-0.771 -1.946,-0.771 -0.075,0 -0.151,0.003 -0.226,0.009 -1.523,0.068 -3.047,0 -4.616,0 -0.048,-0.005 -0.098,-0.008 -0.146,-0.008 -0.425,0 -0.826,0.191 -1.095,0.518 -0.569,0.615 -1.306,1.053 -2.118,1.257 -0.479,0.176 -0.926,0.435 -1.318,0.762 -0.321,0.312 -0.749,0.492 -1.196,0.503 -0.823,0 -1.677,-0.176 -2.43,0.365 -0.107,0.077 -0.412,0 -0.572,-0.144 -0.21,-0.171 -0.409,-0.358 -0.594,-0.556 -0.2,-0.143 -0.318,-0.374 -0.318,-0.62 0,-0.225 0.099,-0.439 0.273,-0.584 0.141,-0.182 0.259,-0.382 0.35,-0.594 0.175,-0.32 0.335,-0.64 0.518,-0.945 0.8,-1.188 1.725,-2.291 2.756,-3.283 0.433,-0.416 0.767,-0.924 0.977,-1.485 0.278,-1.015 0.497,-2.056 0.639,-3.1 0,-0.167 -0.137,-0.412 -0.274,-0.556 -0.477,-0.535 -0.989,-1.048 -1.523,-1.525 -0.26,-0.188 -0.573,-0.289 -0.894,-0.289 -0.004,0 -0.009,0 -0.013,0 -2.216,0 -4.441,0 -6.658,0 -0.998,0 -2.064,0 -2.91,-0.762 -0.166,-0.097 -0.355,-0.149 -0.548,-0.152 -1.067,-0.152 -2.133,-0.32 -3.207,-0.434 -0.602,-0.061 -1.204,0 -1.805,-0.038 -0.896,-0.195 -1.637,-0.824 -1.974,-1.676 -0.014,-0.065 -0.021,-0.132 -0.021,-0.198 0,-0.126 0.025,-0.25 0.075,-0.366 0.266,-0.559 0.594,-1.089 0.975,-1.577 1.135,-1.28 2.285,-2.514 3.504,-3.748 0.38,-0.327 0.599,-0.804 0.599,-1.306 0,-0.044 -0.002,-0.089 -0.005,-0.134 -0.011,-0.165 -0.017,-0.333 -0.017,-0.499 0,-0.165 0.006,-0.334 0.016,-0.499 0.001,-0.002 0.001,-0.004 0.001,-0.006 0,-0.585 0.416,-1.088 0.99,-1.197 1.139,-0.369 1.948,-1.383 2.057,-2.575 0,-0.899 -0.038,-1.721 -0.876,-2.247 -0.213,-0.183 -0.481,-0.291 -0.761,-0.305 -1.646,0.32 -2.667,-0.762 -3.718,-1.668 -0.762,-0.701 -1.463,-1.524 -2.247,-2.209 -0.376,-0.358 -0.588,-0.855 -0.588,-1.374 0,-0.182 0.026,-0.364 0.077,-0.538 0.106,-0.57 0.16,-1.15 0.16,-1.729 0,0 0,0 0,0 -0.034,-0.69 -0.503,-1.28 -1.165,-1.471 -0.323,-0.152 -0.675,-0.231 -1.032,-0.231 -0.543,0 -1.071,0.184 -1.497,0.521 -0.084,0.076 -0.168,0.137 -0.259,0.205 0.434,-0.762 0.129,-1.622 0.243,-2.407 0.094,-0.421 0.23,-0.832 0.404,-1.226 0.061,-0.16 0.251,-0.304 0.244,-0.449 0,-0.632 0.328,-0.876 0.823,-1.181 0.519,-0.374 0.983,-0.825 1.372,-1.334 0.114,-0.178 0.176,-0.385 0.176,-0.597 0,-0.019 -0.001,-0.039 -0.002,-0.058 0,-1.417 0,-2.841 0,-4.258 -0.045,-0.34 -0.171,-0.664 -0.366,-0.945 -0.159,-0.22 -0.349,-0.418 -0.563,-0.586 -0.435,-0.366 -0.442,-0.693 0,-1.113 0.363,-0.338 0.57,-0.813 0.57,-1.31 0,-0.545 -0.249,-1.062 -0.677,-1.401 -0.27,-0.212 -0.602,-0.332 -0.945,-0.343 -1.34,-0.038 -2.688,0 -4.029,0 -0.037,0.003 -0.075,0.004 -0.112,0.004 -0.416,0 -0.811,-0.179 -1.084,-0.491 -0.153,-0.176 -0.336,-0.328 -0.488,-0.503 -0.314,-0.424 -0.811,-0.674 -1.339,-0.674 -0.061,0 -0.123,0.004 -0.184,0.01 -0.166,-0.014 -0.329,-0.059 -0.48,-0.128 0.053,-0.176 0.053,-0.404 0.175,-0.519 0.846,-0.883 1.714,-1.759 2.598,-2.605 0.167,-0.152 0.464,-0.16 0.693,-0.244 0.486,-0.112 0.956,-0.293 1.394,-0.533 0.484,-0.389 0.767,-0.977 0.767,-1.599 0,-0.543 -0.216,-1.064 -0.6,-1.448 -0.64,-0.647 -1.302,-1.272 -1.866,-1.82 0.678,-0.763 1.272,-1.402 1.882,-2.05 0.343,-0.311 0.539,-0.754 0.539,-1.218 0,-0.322 -0.095,-0.638 -0.273,-0.907 -0.133,-0.169 -0.205,-0.379 -0.205,-0.594 0,-0.317 0.156,-0.614 0.418,-0.792 0.553,-0.436 0.939,-1.051 1.09,-1.738 0.113,-0.329 0.31,-0.623 0.571,-0.853 0.618,-0.647 1.273,-1.264 1.89,-1.911 0.32,-0.434 0.494,-0.959 0.494,-1.498 0,-0.538 -0.174,-1.064 -0.494,-1.496 -0.126,-0.151 -0.264,-0.292 -0.412,-0.42 -0.869,-0.586 -0.861,-1.462 -0.762,-2.346 0.056,-0.264 0.196,-0.504 0.396,-0.686 0.867,-0.774 1.602,-1.692 2.172,-2.704 0.114,-0.2 0.182,-0.424 0.198,-0.655 0.018,-0.194 0.028,-0.391 0.028,-0.586 0,-0.196 -0.01,-0.393 -0.029,-0.587 -0.008,-0.068 -0.012,-0.137 -0.012,-0.206 0,-0.515 0.238,-1.002 0.645,-1.318 0.374,-0.422 0.664,-0.915 0.853,-1.447 0.431,-0.876 0.799,-1.788 1.09,-2.72 0.221,-0.617 0.952,-1.051 1.463,-1.562 0.438,-0.372 0.691,-0.92 0.691,-1.497 0,-0.385 -0.114,-0.763 -0.326,-1.084 -0.199,-0.343 -0.221,-0.671 0.083,-0.884 1.075,-0.762 0.922,-1.836 0.884,-2.903 0,-0.011 -0.001,-0.023 -0.001,-0.035 0,-0.591 0.398,-1.108 0.968,-1.259 0.33,-0.093 0.637,-0.254 0.9,-0.473 0.302,-0.303 0.713,-0.473 1.142,-0.473 0.02,0 0.041,0 0.061,0.001 0.31,0.026 0.622,0.04 0.933,0.04 0.312,0 0.623,-0.014 0.933,-0.04 0.414,-0.037 0.808,-0.2 1.128,-0.465 0.561,-0.577 1.072,-1.207 1.523,-1.874 0.277,-0.482 0.424,-1.03 0.424,-1.587 0,-0.36 -0.061,-0.717 -0.18,-1.056 -0.092,-0.404 -0.099,-0.617 0.411,-0.625 0.25,-0.013 0.489,-0.11 0.678,-0.274 0.539,-0.471 1.053,-0.985 1.523,-1.524 0.193,-0.26 0.297,-0.575 0.298,-0.898 0,-1.303 0,-2.613 0,-3.916 0,-0.008 0,-0.016 0,-0.024 0,-0.26 0.071,-0.516 0.206,-0.738 0.392,-0.602 0.863,-1.153 1.394,-1.637 0.466,-0.433 0.732,-1.04 0.732,-1.676 0,-1.048 -0.714,-1.962 -1.73,-2.217 0,-0.038 0,-0.092 0,-0.114 0.617,-0.907 1.196,-1.859 1.889,-2.712 0.663,-0.633 1.038,-1.51 1.038,-2.426 0,-0.042 -0.001,-0.084 -0.002,-0.126 -0.037,-0.338 -0.057,-0.678 -0.057,-1.017 0,-0.339 0.02,-0.68 0.058,-1.017 0.033,-0.413 0.196,-0.805 0.464,-1.12 0.443,-0.389 0.698,-0.951 0.698,-1.541 0,-0.075 -0.004,-0.152 -0.013,-0.226 -0.014,-0.194 -0.022,-0.389 -0.022,-0.583 0,-0.195 0.008,-0.389 0.022,-0.583 0.005,-0.053 0.008,-0.108 0.008,-0.161 0,-0.417 -0.155,-0.818 -0.434,-1.126 -0.193,-0.144 -0.307,-0.37 -0.307,-0.612 0,-0.273 0.146,-0.525 0.383,-0.66 0.537,-0.425 0.851,-1.073 0.851,-1.758 0,-0.121 -0.009,-0.241 -0.028,-0.36 -0.017,-0.164 -0.026,-0.33 -0.026,-0.496 0,-0.164 0.009,-0.331 0.026,-0.495 0.003,-0.043 0.005,-0.088 0.005,-0.132 0,-0.447 -0.19,-0.873 -0.523,-1.17 -0.61,-0.625 -0.587,-1.189 0.167,-1.631 1.227,-0.716 2.423,-1.561 3.977,-1.348 1.919,0.259 2.544,-1.219 2.666,-2.628 0.053,-0.64 0,-1.288 0,-1.927 0.061,-1.706 0.145,-3.406 0.229,-5.112 0,-0.001 0,-0.003 0,-0.005 0,-0.462 0.375,-0.837 0.837,-0.837 0.031,0 0.062,0.001 0.092,0.004 0.64,0 1.288,0 1.927,0 0.009,0.001 0.021,0.001 0.031,0.001 0.842,0 1.676,-0.189 2.437,-0.549 0.247,-0.105 0.513,-0.159 0.781,-0.159 0.173,0 0.347,0.023 0.514,0.067 0.632,0.189 1.227,0.491 1.752,0.892 0.657,0.536 1.415,0.945 2.225,1.196 0.264,0.12 0.5,0.294 0.693,0.511 2.097,1.874 4.184,3.75 6.261,5.629 0.098,0.108 0.185,0.226 0.259,0.35 -0.099,0.076 -0.213,0.221 -0.312,0.213 -1.097,-0.099 -1.676,0.762 -2.437,1.295 -0.337,0.245 -0.704,0.448 -1.089,0.602 -0.633,0.253 -1.065,0.845 -1.113,1.524 0.008,0.06 0.013,0.121 0.013,0.183 0,0.432 -0.206,0.84 -0.553,1.097 -1.12,0.762 -0.915,1.927 -0.831,3.047 0,0.267 0.305,0.533 0.503,0.762 0.503,0.578 0.571,0.99 0,1.447 -0.937,0.762 -0.762,1.699 -0.762,2.666 0.021,0.175 0.098,0.338 0.221,0.465 0.861,0.876 1.706,1.759 2.605,2.59 0.48,0.441 1.089,0.762 1.562,1.181 0.218,0.302 0.387,0.64 0.495,0.997 0.09,0.251 0.208,0.491 0.35,0.717 0.226,0.279 0.483,0.536 0.762,0.761 0.465,0.396 0.511,0.762 0.084,1.219 -0.233,0.338 -0.358,0.74 -0.358,1.151 0,0.277 0.057,0.552 0.167,0.807 0.199,0.627 0.545,1.2 1.006,1.668 1.577,1.585 3.215,3.108 4.86,4.624 0.285,0.221 0.63,0.352 0.991,0.373 0.679,0.076 1.359,0.191 2.026,0.344 1.196,0.236 2.56,0.587 3.55,-0.671 0.457,-0.571 0.975,-1.097 1.448,-1.668 0.256,-0.355 0.669,-0.565 1.107,-0.565 0.014,0 0.028,0 0.041,0.001 0.571,0.03 1.149,0.049 1.722,0.049 0.574,0 1.151,-0.019 1.722,-0.049 0.764,-0.054 1.506,-0.287 2.164,-0.678 0.892,-0.655 1.73,-1.39 2.491,-2.193 0.186,-0.261 0.318,-0.557 0.387,-0.87 0.054,-0.202 0.123,-0.401 0.207,-0.594 0.601,-0.899 1.059,-0.96 1.782,-0.168 0.405,0.496 1.012,0.784 1.651,0.784 0.1,0 0.2,-0.008 0.299,-0.022 0.328,-0.045 0.678,0.054 0.991,0 0.406,-0.072 0.794,-0.231 1.135,-0.464 0.343,-0.278 0.763,-0.446 1.203,-0.48 0.405,-0.069 0.792,-0.223 1.135,-0.449 0.26,-0.174 0.489,-0.393 0.671,-0.648 0.381,-0.487 0.965,-0.771 1.583,-0.771 0.067,0 0.134,0.003 0.199,0.01 0.405,-0.011 0.795,-0.154 1.112,-0.405 0.854,-0.655 1.684,-1.371 2.483,-2.102 0.312,-0.326 0.745,-0.511 1.196,-0.511 0.015,0 0.031,0 0.046,0 0.854,0 1.714,0 2.568,0 0.035,0.002 0.07,0.003 0.105,0.003 0.689,0 1.352,-0.275 1.837,-0.764 0.594,-0.617 1.227,-1.204 1.79,-1.844 0.411,-0.472 0.693,-1.074 1.135,-1.523 0.674,-0.669 1.39,-1.302 2.134,-1.889 0.183,-0.152 0.488,-0.145 0.762,-0.214 0.061,0.206 0.099,0.427 0.175,0.633 0.078,0.31 0.213,0.605 0.396,0.868 0.762,0.761 1.477,1.524 2.285,2.285 0.283,0.225 0.63,0.355 0.99,0.373 0.396,0.021 0.798,0.032 1.196,0.032 0.397,0 0.801,-0.011 1.195,-0.03 0.046,-0.006 0.091,-0.008 0.136,-0.008 0.409,0 0.796,0.184 1.053,0.502 0.348,0.447 0.883,0.709 1.45,0.709 0.081,0 0.162,-0.006 0.241,-0.016 0.309,-0.022 0.623,-0.034 0.934,-0.034 0.31,0 0.624,0.012 0.933,0.034 0.457,0.038 0.891,0.251 1.341,0.282 0.726,0.064 1.458,0.097 2.188,0.097 0.268,0 0.549,-0.006 0.814,-0.012 1.12,-0.061 1.988,-0.762 2.925,-1.295 0.672,-0.279 1.389,-0.442 2.117,-0.481 0.112,-0.022 0.226,-0.033 0.341,-0.033 0.618,0 1.195,0.317 1.525,0.84 0.381,0.539 1.001,0.86 1.661,0.86 0.13,0 0.261,-0.013 0.389,-0.037 0.187,-0.026 0.376,-0.04 0.565,-0.04 0.962,0 1.892,0.341 2.626,0.962 0.663,0.518 0.648,0.632 0,1.143 -0.359,0.264 -0.699,0.565 -1.006,0.89 -0.267,0.391 -0.411,0.855 -0.411,1.329 0,0.735 0.344,1.428 0.929,1.871 0.663,0.312 1.311,0.655 1.996,0.914 0.473,0.175 0.999,0.221 1.524,0.365 0.407,0.067 0.793,0.226 1.127,0.465 0.654,0.757 1.606,1.192 2.606,1.192 0.119,0 0.239,-0.006 0.358,-0.018 0.571,-0.077 1.165,0 1.744,0 0.449,-0.079 0.897,-0.185 1.334,-0.313 0.247,-0.073 0.503,-0.12 0.761,-0.137 1.965,0 3.939,0 5.904,0 0.907,0 1.805,-0.137 2.712,-0.236 0.165,-0.054 0.324,-0.129 0.472,-0.221 0.381,-0.16 0.762,-0.297 1.143,-0.48 0.279,-0.118 0.537,-0.283 0.762,-0.487 0.761,-0.762 1.561,-1.524 2.323,-2.286 0.289,-0.304 0.503,-0.373 0.876,-0.068 0.716,0.602 3.443,0.419 4.114,-0.244l1.569 -1.562c0.246,-0.3 0.614,-0.474 1.002,-0.474 0.388,0 0.756,0.174 1.002,0.474 0.314,0.335 0.754,0.525 1.214,0.525 0.05,0 0.1,-0.002 0.149,-0.007 0.212,-0.014 0.426,-0.022 0.64,-0.022 0.213,0 0.428,0.008 0.64,0.022 0.121,0.016 0.244,0.025 0.367,0.025 0.655,0 1.289,-0.233 1.789,-0.657 0.655,-0.549 1.417,-0.381 2.155,0.274 0.572,0.518 1.189,0.999 1.744,1.524 0.339,0.299 0.775,0.464 1.226,0.464 0.054,0 0.108,-0.003 0.161,-0.008 1.89,0 1.874,0 1.905,1.859 -0.001,0.034 -0.002,0.069 -0.002,0.102 0,0.887 0.364,1.734 1.007,2.344 1.478,1.409 2.918,2.864 4.342,4.335 0.365,0.453 0.916,0.718 1.497,0.718 0.065,0 0.13,-0.004 0.194,-0.01 0.175,-0.012 0.351,-0.017 0.526,-0.017 0.175,0 0.351,0.005 0.526,0.016 5.225,-0.083 10.451,-0.152 15.677,-0.259 0.361,-0.035 0.701,-0.188 0.968,-0.433 0.761,-0.663 1.211,-0.678 1.957,0.061 0.587,0.586 1.204,1.158 1.767,1.774 1.063,1.104 2.323,2.007 3.71,2.658 0.305,0.122 0.631,0.184 0.959,0.184 0.133,0 0.266,-0.011 0.398,-0.031 0.151,-0.027 0.305,-0.041 0.459,-0.041 0.831,0 1.609,0.405 2.084,1.085 0.375,0.551 0.998,0.881 1.665,0.881 0.126,0 0.253,-0.012 0.377,-0.035 0.244,0 0.503,0 0.762,0 0.044,-0.004 0.09,-0.005 0.134,-0.005 0.503,0 0.981,0.215 1.313,0.591 0.762,0.686 1.607,1.265 2.377,1.927 0.769,0.663 1.683,1.524 2.491,2.286 0.352,0.383 0.849,0.602 1.37,0.602 0.008,0 0.016,-0.001 0.024,-0.001 0.343,0.022 0.672,0.138 0.952,0.336 1.28,0.861 2.491,1.821 3.809,2.613 0.717,0.504 1.572,0.776 2.449,0.776 0.115,0 0.232,-0.005 0.347,-0.014 0.068,-0.011 0.136,-0.016 0.206,-0.016 0.406,0 0.792,0.181 1.051,0.495 0.472,0.429 1.077,0.685 1.714,0.724 0.716,0.127 1.389,0.437 1.95,0.899 1.417,1.204 2.659,2.635 4.129,3.763 0.915,0.713 1.807,1.483 2.644,2.286 0.309,0.274 0.486,0.668 0.486,1.082 0,0.11 -0.013,0.22 -0.037,0.327l0 0z"/>
  </g>
 </g>
</svg>
