<?xml version="1.0" encoding="UTF-8"?>
<!DOCTYPE svg PUBLIC "-//W3C//DTD SVG 1.1//EN" "http://www.w3.org/Graphics/SVG/1.1/DTD/svg11.dtd">
<!-- Creator: CorelDRAW 2020 -->
<svg xmlns="http://www.w3.org/2000/svg" xml:space="preserve" width="146px" height="62px" version="1.1" style="shape-rendering:geometricPrecision; text-rendering:geometricPrecision; image-rendering:optimizeQuality; fill-rule:evenodd; clip-rule:evenodd"
viewBox="0 0 90.394 38.676"
 xmlns:xlink="http://www.w3.org/1999/xlink"
 xmlns:xodm="http://www.corel.com/coreldraw/odm/2003">
 <defs>
  <style type="text/css">
   <![CDATA[
    .fil0 {fill:#EDEDED;fill-rule:nonzero}
   ]]>
  </style>
 </defs>
 <g id="Layer_x0020_1">
  <metadata id="CorelCorpID_0Corel-Layer"/>
  <g id="Layer_20" data-name="Layer 20">
   <path class="fil0" d="M90.139 29.17c-0.064,0.091 -0.099,0.199 -0.099,0.311 0,0.014 0.001,0.029 0.002,0.044 -0.005,0.172 -0.073,0.338 -0.192,0.463 -0.322,0.402 -0.629,0.819 -0.934,1.235 -0.035,0.055 -0.054,0.118 -0.054,0.183 0,0.01 0,0.02 0.001,0.03 0,0.34 -0.083,0.694 0.139,1.013 0.033,0.047 -0.018,0.195 -0.074,0.254 -0.473,0.526 -0.983,1.029 -1.515,1.493 -0.296,0.248 -0.621,0.493 -0.919,0.756 -0.077,0.068 -0.21,0.068 -0.295,0.118 -0.665,0.331 -1.38,0.295 -2.068,0.245 -3.167,-0.189 -6.337,-0.056 -9.503,-0.076 -4.848,-0.027 -9.696,0 -14.543,0 -0.102,0.006 -0.207,0.01 -0.31,0.01 -0.346,0 -0.692,-0.041 -1.028,-0.12 -0.446,-0.142 -0.928,-0.195 -1.332,-0.511 -0.182,-0.146 -0.408,-0.225 -0.641,-0.225 -0.202,0 -0.4,0.06 -0.568,0.171 -0.041,0.027 -0.121,0 -0.177,0 -0.135,-0.055 -0.276,-0.096 -0.419,-0.121 -0.863,-0.041 -1.729,-0.056 -2.591,-0.1 -0.034,-0.006 -0.068,-0.009 -0.102,-0.009 -0.278,0 -0.519,0.195 -0.578,0.467l-1.864 0c-0.004,0 -0.008,0 -0.013,0 -0.096,0 -0.191,0.014 -0.282,0.044 -0.054,0.024 -0.113,0.037 -0.172,0.037 -0.131,0 -0.255,-0.062 -0.333,-0.167 -0.195,-0.216 -0.396,-0.425 -0.727,-0.372 -0.348,-0.296 -0.859,-0.059 -1.202,-0.384 -0.078,-0.044 -0.166,-0.067 -0.255,-0.067 -0.023,0 -0.047,0.002 -0.07,0.005l-4.605 0c-0.08,0 -0.189,0 -0.237,0.038 -0.214,0.151 -0.463,0.244 -0.724,0.272 -0.219,0.084 -0.434,0.183 -0.641,0.295 -0.34,0.136 -0.682,0.26 -1.031,0.375 -0.267,0.041 -0.522,0.142 -0.744,0.296 -0.077,0.047 -0.165,0.072 -0.256,0.072 -0.013,0 -0.026,0 -0.039,-0.001 -0.05,-0.005 -0.1,-0.007 -0.15,-0.007 -0.229,0 -0.455,0.05 -0.663,0.146 -0.085,0.027 -0.173,0.042 -0.263,0.044 -0.085,0.021 -0.201,0.018 -0.254,0.071 -0.201,0.221 -0.398,0.118 -0.614,0.038 -0.138,-0.055 -0.284,-0.091 -0.431,-0.106 -0.432,-0.039 -0.866,-0.068 -1.3,-0.089 -0.014,-0.001 -0.028,-0.002 -0.042,-0.002 -0.076,0 -0.151,0.019 -0.218,0.055 -0.244,0.145 -0.522,0.221 -0.805,0.221 -0.042,0 -0.084,-0.002 -0.126,-0.005 -0.842,-0.036 -1.689,0 -2.525,-0.104 -1.477,-0.162 -2.937,-0.038 -4.405,-0.067 -0.303,0.031 -0.601,0.102 -0.886,0.209 -0.086,0.023 -0.175,0.04 -0.263,0.051 -0.399,0.029 -0.818,-0.092 -1.181,0.168 -0.023,0.006 -0.045,0.009 -0.069,0.009 -0.023,0 -0.045,-0.003 -0.067,-0.009 -0.049,-0.002 -0.099,-0.004 -0.149,-0.004 -0.393,0 -0.783,0.083 -1.142,0.243 -0.366,0.156 -0.76,0.236 -1.157,0.236 -0.097,0 -0.194,-0.005 -0.291,-0.014 -0.006,0 -0.013,0 -0.02,0 -0.4,0 -0.787,0.142 -1.091,0.401 -0.179,0.113 -0.381,0.187 -0.59,0.219 -0.207,0.036 -0.426,0 -0.633,0 -0.206,0 -0.419,0.089 -0.632,0.121 -0.26,0.062 -0.51,0.162 -0.741,0.296 -0.14,0.037 -0.284,0.056 -0.429,0.056 -0.081,0 -0.162,-0.006 -0.242,-0.018 -0.016,0 -0.034,-0.001 -0.05,-0.001 -0.265,0 -0.525,0.068 -0.756,0.196 -0.338,0.14 -0.699,0.227 -1.064,0.257 -0.067,0.01 -0.135,0.015 -0.203,0.015 -0.069,0 -0.137,-0.005 -0.204,-0.015 -0.647,-0.077 -1.214,0.189 -1.799,0.402 -0.258,0.077 -0.526,0.124 -0.795,0.139 -0.21,0.023 -0.423,0 -0.632,0 -0.003,0 -0.006,0 -0.009,0 -0.118,0 -0.233,0.031 -0.334,0.091 -0.18,0.123 -0.393,0.189 -0.612,0.189 -0.045,0 -0.09,-0.003 -0.135,-0.009 -0.154,0 -0.237,-0.05 -0.213,-0.209 0.002,-0.022 0.003,-0.045 0.003,-0.067 0,-0.263 -0.145,-0.505 -0.378,-0.627 -0.106,-0.049 -0.22,-0.082 -0.337,-0.098 -0.148,-0.044 -0.295,-0.091 -0.434,-0.148 -0.089,-0.032 -0.171,-0.091 -0.263,-0.121 -0.248,-0.057 -0.44,-0.253 -0.493,-0.502 -0.13,-0.364 -0.451,-0.626 -0.833,-0.682 -0.045,-0.007 -0.091,-0.01 -0.137,-0.01 -0.305,0 -0.592,0.145 -0.773,0.391 -0.089,0.159 -0.258,0.257 -0.44,0.257 -0.019,0 -0.038,-0.001 -0.056,-0.003 -0.123,-0.019 -0.24,-0.068 -0.34,-0.142 -0.174,-0.142 -0.316,-0.322 -0.487,-0.47 -0.172,-0.148 -0.296,-0.201 -0.435,-0.316 -0.148,-0.11 -0.277,-0.247 -0.378,-0.402 -0.141,-0.345 -0.477,-0.57 -0.85,-0.57 -0.012,0 -0.024,0 -0.036,0 -0.393,0 -0.788,-0.026 -1.181,0 -0.034,0.004 -0.068,0.006 -0.103,0.006 -0.347,0 -0.667,-0.192 -0.831,-0.499 0.257,-0.239 0.514,-0.49 0.786,-0.724 0.075,-0.039 0.158,-0.06 0.243,-0.06 0.012,0 0.023,0.001 0.034,0.001 0.002,0 0.005,0 0.006,0 0.313,0 0.629,-0.018 0.94,-0.053 0.179,-0.05 0.344,-0.144 0.478,-0.272 0.169,-0.14 0.326,-0.295 0.467,-0.464 0.121,-0.139 0.222,-0.295 0.355,-0.481 0.425,0 0.886,0 1.37,0 0.017,0.001 0.034,0.002 0.052,0.002 0.173,0 0.338,-0.076 0.45,-0.209 0.192,-0.218 0.469,-0.344 0.76,-0.344 0.03,0 0.061,0.002 0.091,0.005 0.023,0.001 0.047,0.001 0.069,0.001 0.209,0 0.416,-0.046 0.605,-0.134 0.277,-0.102 0.563,-0.18 0.853,-0.234 0.081,-0.014 0.159,-0.048 0.225,-0.097 0.289,-0.208 0.512,-0.494 0.644,-0.825 0.009,-0.052 0.035,-0.101 0.073,-0.138 0.379,-0.296 0.272,-0.686 0.275,-1.061 0,-0.003 0,-0.007 0,-0.01 0,-0.065 -0.023,-0.127 -0.065,-0.176 -0.138,-0.158 -0.215,-0.362 -0.215,-0.572 0,-0.047 0.004,-0.094 0.012,-0.14 0,-0.927 0.127,-0.647 -0.544,-1.332 -0.222,-0.228 -0.222,-0.295 0,-0.526 0.132,-0.154 0.205,-0.351 0.205,-0.554 0,-0.203 -0.073,-0.4 -0.205,-0.554 -0.14,-0.185 -0.293,-0.363 -0.455,-0.529 -0.123,-0.103 -0.276,-0.165 -0.437,-0.177 -0.99,-0.014 -1.979,0 -2.969,0 -0.261,-0.012 -0.521,-0.047 -0.777,-0.103 -0.086,-0.028 -0.163,-0.078 -0.224,-0.145 -0.194,-0.182 -0.449,-0.288 -0.715,-0.295 -0.109,-0.019 -0.215,-0.051 -0.316,-0.095 -0.163,-0.075 -0.335,-0.13 -0.511,-0.162 -0.196,-0.009 -0.381,-0.09 -0.52,-0.228 -0.304,-0.321 -0.725,-0.505 -1.167,-0.511 -0.052,-0.003 -0.104,-0.016 -0.151,-0.038 -0.245,-0.107 -0.487,-0.213 -0.729,-0.325 -0.071,-0.028 -0.137,-0.067 -0.195,-0.115 -0.272,-0.246 -0.476,-0.591 -0.975,-0.517 0.191,-0.252 0.477,-0.415 0.792,-0.449 0.023,0 0.05,0 0.068,0 0.416,-0.257 0.957,-0.195 1.347,-0.556 0.168,-0.208 0.422,-0.33 0.69,-0.33 0.083,0 0.166,0.012 0.246,0.035 0.085,0.039 0.177,0.059 0.271,0.059 0.224,0 0.433,-0.115 0.553,-0.304 0.074,-0.145 0.122,-0.303 0.142,-0.464 0.061,-0.313 0.11,-0.636 0.139,-0.955 0,-0.004 0,-0.01 0,-0.015 0,-0.113 -0.041,-0.223 -0.115,-0.309 -0.187,-0.256 -0.446,-0.452 -0.742,-0.564 -0.162,-0.045 -0.275,-0.296 -0.399,-0.449 -0.062,-0.08 -0.082,-0.19 -0.139,-0.275 -0.153,-0.2 -0.294,-0.413 -0.419,-0.632 -0.019,-0.077 -0.029,-0.155 -0.029,-0.234 0,-0.078 0.01,-0.157 0.029,-0.233 0,-0.083 0.107,-0.168 0.098,-0.245 -0.003,-0.026 -0.004,-0.052 -0.004,-0.078 0,-0.254 0.109,-0.495 0.299,-0.664 0.083,-0.088 0.136,-0.201 0.151,-0.322 0.044,-0.59 0.071,-1.211 0.097,-1.819 -0.001,-0.083 -0.027,-0.164 -0.077,-0.231 -0.171,-0.251 -0.36,-0.493 -0.537,-0.744 -0.068,-0.098 -0.116,-0.21 -0.178,-0.313 -0.054,-0.122 -0.126,-0.236 -0.212,-0.337 -0.319,-0.299 -0.575,-0.662 -0.748,-1.064 -0.007,-0.03 -0.022,-0.057 -0.044,-0.079l-0.021 -0.018c-0.155,-0.281 -0.244,-0.595 -0.257,-0.916 0.002,-0.009 0.002,-0.018 0.002,-0.028 0,-0.009 0,-0.019 -0.002,-0.028l0 0c0,-0.467 0,-0.936 0,-1.4 0.011,-0.154 0.07,-0.301 0.169,-0.42 0.209,-0.286 0.465,-0.536 0.756,-0.738 0.529,-0.296 0.886,-0.759 1.294,-1.155 0.098,-0.135 0.174,-0.285 0.224,-0.443 0.023,-0.062 0.056,-0.119 0.098,-0.169 0.111,-0.122 0.235,-0.233 0.369,-0.331 0.123,-0.091 0.268,-0.149 0.42,-0.168 0.853,0 1.707,0 2.561,0 0.014,0.001 0.028,0.002 0.042,0.002 0.112,0 0.221,-0.037 0.309,-0.105 0.237,-0.281 0.591,-0.248 0.886,-0.346 0.141,-0.039 0.274,-0.102 0.393,-0.186 0.296,-0.254 0.591,-0.552 0.901,-0.786 0.292,-0.187 0.598,-0.361 0.91,-0.511 0.101,-0.056 0.201,-0.119 0.295,-0.186 0.079,-0.058 0.15,-0.126 0.21,-0.204 0.248,-0.38 0.672,-0.609 1.125,-0.609 0.075,0 0.149,0.006 0.222,0.018 0.186,-0.004 0.364,-0.073 0.505,-0.195 0.29,-0.228 0.569,-0.471 0.834,-0.727 0.138,-0.13 0.26,-0.159 0.381,0 0.274,0.349 0.673,0.369 1.06,0.387 0.296,0 0.591,0 0.801,0.266 0.087,0.066 0.194,0.101 0.303,0.101 0.017,0 0.034,-0.001 0.051,-0.003 0.002,0 0.004,0 0.007,0 0.171,0 0.336,0.071 0.454,0.195 0.17,0.157 0.352,0.307 0.54,0.443 0.072,0.039 0.149,0.07 0.228,0.092 0.133,0.059 0.263,0.124 0.396,0.18 0.15,0.07 0.307,0.13 0.466,0.177 0.06,0.011 0.12,0.017 0.181,0.017 0.06,0 0.12,-0.006 0.18,-0.017 0.018,-0.001 0.036,-0.002 0.055,-0.002 0.205,0 0.4,0.088 0.535,0.241 0.132,0.107 0.284,0.187 0.447,0.234 0.308,0.113 0.635,0.172 0.964,0.172 0.063,0 0.127,-0.003 0.191,-0.007 0.018,-0.004 0.037,-0.006 0.056,-0.006 0.019,0 0.037,0.002 0.056,0.006 0.333,0.131 0.654,0.296 0.957,0.488 0.287,0.256 0.655,0.402 1.04,0.413 0.242,0 0.484,0 0.726,0 0.014,0.001 0.028,0.002 0.041,0.002 0.184,0 0.359,-0.078 0.483,-0.214 0.414,-0.455 0.872,-0.879 1.358,-1.256 0.943,-0.641 1.622,-1.545 2.455,-2.292 0.379,-0.392 0.901,-0.613 1.446,-0.613 0.1,0 0.201,0.007 0.3,0.022 0.106,0.017 0.208,0.058 0.295,0.121 0.195,0.157 0.437,0.242 0.686,0.242 0.047,0 0.093,-0.003 0.138,-0.009 0.03,-0.003 0.059,-0.006 0.088,-0.006 0.184,0 0.359,0.078 0.483,0.213 0.179,0.162 0.412,0.251 0.654,0.251 0.024,0 0.048,-0.001 0.072,-0.003 0.296,0 0.591,-0.079 0.818,0.157 0.201,0.196 0.471,0.306 0.752,0.306 0.051,0 0.102,-0.004 0.152,-0.011 0.147,0.009 0.286,0.066 0.396,0.163 0.122,0.124 0.289,0.193 0.463,0.193 0.015,0 0.03,0 0.045,-0.001 0.028,-0.004 0.056,-0.006 0.083,-0.006 0.155,0 0.305,0.058 0.42,0.162 0.086,0.063 0.189,0.101 0.295,0.11 0.484,0.041 0.972,0.065 1.459,0.097 0.001,0 0.002,0 0.003,0 0.045,0 0.088,0.011 0.127,0.033 0.455,0.366 0.996,0.351 1.528,0.319 0.461,-0.027 0.791,0.23 1.161,0.416 0.068,0.036 0.13,0.115 0.189,0.112 0.295,0 0.464,0.184 0.653,0.358 0.049,0.057 0.117,0.094 0.191,0.106 0.222,0.011 0.427,0.119 0.562,0.296 0.185,0.227 0.463,0.359 0.756,0.359 0.02,0 0.041,-0.001 0.062,-0.002 0.024,0 0.056,0 0.068,0 0.295,0.275 0.7,0.219 1.034,0.369 0.084,0.032 0.17,0.058 0.257,0.077 0.062,0.018 0.148,0.015 0.189,0.057 0.295,0.295 0.706,0.316 1.066,0.454 0.115,0.035 0.221,0.095 0.31,0.175 0.131,0.143 0.317,0.226 0.512,0.226 0.026,0 0.053,-0.002 0.079,-0.005 0.037,-0.004 0.074,-0.005 0.11,-0.005 0.292,0 0.573,0.118 0.776,0.327 0.184,0.204 0.445,0.32 0.719,0.32 0.039,0 0.078,-0.002 0.117,-0.007 0.051,-0.007 0.102,-0.011 0.154,-0.011 0.252,0 0.496,0.09 0.688,0.253 0.044,0.042 0.1,0.069 0.16,0.077 0.458,0.034 0.914,0.11 1.359,0.225 0.133,0.021 0.257,0.074 0.387,0.095 0.21,0.037 0.425,0.065 0.638,0.079 0.033,-0.004 0.067,-0.007 0.101,-0.007 0.162,0 0.321,0.052 0.451,0.149 0.053,0.029 0.112,0.044 0.172,0.044 0.014,0 0.029,-0.001 0.044,-0.003 1.743,0 3.489,0 5.231,0 0.139,-0.012 0.272,-0.065 0.382,-0.151 0.117,-0.095 0.227,-0.201 0.328,-0.313 0.048,-0.057 0.11,-0.101 0.18,-0.13 0.349,-0.091 0.707,-0.161 1.066,-0.203 0.348,-0.003 0.682,-0.141 0.931,-0.384 0.249,-0.271 0.529,-0.515 0.832,-0.724 0.249,-0.118 0.511,-0.205 0.781,-0.257 0.045,-0.004 0.089,-0.013 0.133,-0.027 0.649,-0.337 1.397,-0.407 2.05,-0.721 0.511,-0.245 1.016,-0.49 1.314,-1.06 0.247,-0.37 0.563,-0.691 0.928,-0.945 0.142,-0.119 0.407,-0.08 0.561,-0.192 0.355,-0.262 0.786,-0.404 1.227,-0.404 0.047,0 0.094,0.002 0.14,0.005 0.005,0 0.011,0 0.016,0 0.311,0 0.603,-0.154 0.779,-0.411 0.106,-0.131 0.266,-0.208 0.435,-0.208 0.014,0 0.027,0.001 0.041,0.001 0.015,0.001 0.031,0.001 0.046,0.001 0.28,0 0.553,-0.093 0.775,-0.264 0.088,-0.058 0.19,-0.089 0.295,-0.089 0.006,0 0.012,0.001 0.018,0.001 0.402,0 0.804,0 1.203,0 0.166,-0.018 0.324,-0.081 0.457,-0.18 0.132,-0.111 0.298,-0.175 0.47,-0.181 0.827,-0.02 1.654,-0.047 2.481,-0.088 0.057,-0.007 0.114,-0.011 0.17,-0.011 0.333,0 0.655,0.125 0.9,0.351 0.473,0.449 0.992,0.841 1.477,1.276 0.119,0.133 0.219,0.284 0.295,0.446 0.122,0.198 0.254,0.39 0.355,0.591 0.064,0.133 0.1,0.28 0.103,0.428 0,0.863 0.03,1.722 0,2.582 -0.017,0.461 0.237,0.791 0.411,1.181 0.118,0.246 0.215,0.503 0.331,0.751 0.053,0.113 0.12,0.22 0.198,0.319 0.284,0.324 0.556,0.667 0.802,1.022 0.14,0.261 0.226,0.549 0.252,0.845 0.013,0.157 0.02,0.316 0.02,0.474 0,0.158 -0.007,0.317 -0.02,0.474 -0.023,0.729 -0.056,1.456 -0.091,2.186 -0.024,0.537 -0.054,1.078 -0.092,1.616 -0.002,0.112 -0.032,0.222 -0.089,0.319 -0.125,0.192 -0.193,0.417 -0.193,0.647 0,0.23 0.068,0.455 0.193,0.647 0.058,0.074 0.09,0.166 0.09,0.261 0,0.104 -0.038,0.204 -0.107,0.282 -0.248,0.322 -0.219,0.535 0.038,0.839 0.188,0.271 0.497,0.432 0.827,0.432 0.06,0 0.119,-0.005 0.178,-0.015 0.08,-0.015 0.162,-0.023 0.244,-0.023 0.433,0 0.839,0.209 1.091,0.56 0.287,0.308 0.608,0.585 0.954,0.824 0.141,0.08 0.292,0.141 0.449,0.181 0.041,0.015 0.097,0.015 0.127,0.041 0.295,0.263 0.635,0.488 0.771,0.886 0.065,0.175 0.142,0.347 0.227,0.511 0.253,0.471 0.583,0.899 0.975,1.262 0.085,0.11 0.155,0.231 0.207,0.36 0.027,0.053 0.035,0.124 0.074,0.163 0.316,0.295 0.57,0.682 0.989,0.886 0.231,0.123 0.451,0.267 0.656,0.428 0.124,0.086 0.154,0.177 0.039,0.316 -0.098,0.157 -0.149,0.338 -0.149,0.523 0,0.218 0.072,0.43 0.205,0.603 0.387,0.393 0.771,0.791 1.181,1.163 0.126,0.101 0.278,0.164 0.438,0.181 0.195,0.026 0.313,0.103 0.295,0.295 -0.013,0.073 -0.02,0.148 -0.02,0.222 0,0.423 0.217,0.817 0.575,1.043l0.033 0.032c0.301,0.313 0.431,0.378 0.026,0.759z"/>
  </g>
 </g>
</svg>
