<svg xmlns="http://www.w3.org/2000/svg" viewBox="0 0 197.19 136.26" width="64" height="64"><defs><style>.cls-1{fill:#cbcbcb;}</style></defs><title>መሬት _1</title><g id="Layer_2" data-name="Layer 2"><g id="Layer_1-2" data-name="Layer 1"><path class="cls-1" d="M59.4,136.23l9-11.61q14.36-18.56,28.69-37.1a2.79,2.79,0,0,1,2.51-1.19q40.83,0,81.65,0h2.05c-.31.61-.49,1-.72,1.42q-13.83,23.46-27.65,46.93a2.73,2.73,0,0,1-2.72,1.56q-45.18-.06-90.34,0Z"/><path class="cls-1" d="M75.9,76.56c-2.1-2.28-4.08-4.37-6-6.52A100.45,100.45,0,0,1,54.42,47.85a50.08,50.08,0,0,1-5.37-19.17,26.87,26.87,0,0,1,53.14-7.16c1.34,6.65.17,13.09-2.07,19.37C96.38,51.36,90.1,60.29,83,68.68,80.74,71.31,78.36,73.82,75.9,76.56Zm0-43.5A10.07,10.07,0,1,0,65.8,23,10.08,10.08,0,0,0,75.88,33.06Z"/><path class="cls-1" d="M109.67,63l-6,7.81Q92.22,85.59,80.78,100.4a3.33,3.33,0,0,1-3,1.48c-16.22,0-32.43,0-48.65,0H27L57.59,63c2.34,2.89,4.5,5.73,6.85,8.41,2.91,3.33,5.94,6.54,9,9.75,1.86,2,3.15,2,4.89,0q7.39-8.42,14.61-17A2.87,2.87,0,0,1,95.39,63C100,63,104.64,63,109.67,63Z"/><path class="cls-1" d="M0,136.14l7.4-9.43c4.95-6.28,9.89-12.57,14.89-18.82a2.82,2.82,0,0,1,1.93-1q24.95-.07,49.89,0c.41,0,.81,0,1.42.08-.36.52-.59.91-.86,1.27Q64.34,121.61,54,135a2.64,2.64,0,0,1-2.31,1.28q-25-.06-50,0C1.23,136.23.82,136.18,0,136.14Z"/><path class="cls-1" d="M197.19,63c-3.6,6.11-7,11.86-10.42,17.59a2.18,2.18,0,0,1-1.26.7,5.52,5.52,0,0,1-1.41,0H101.91l4-5.09C109,72.14,112.15,68,115.38,64a3,3,0,0,1,2.07-1q38.7-.09,77.39-.09Z"/></g></g></svg>