<svg xmlns="http://www.w3.org/2000/svg" viewBox="0 0 103.27 136.26"><defs><style>.cls-1{fill:#8dc63f;}.cls-2{fill:#0856a1;}</style></defs><title>ተፋሰስና ኣረጓዴ</title><g id="Layer_2" data-name="Layer 2"><g id="Layer_1-2" data-name="Layer 1"><path class="cls-1" d="M76,38.32a41.82,41.82,0,0,0-17.81,18A38.65,38.65,0,0,0,54,80.55a7.31,7.31,0,0,0,1-1.58A61.61,61.61,0,0,1,73.67,56.43a3,3,0,0,1,4.36.45c1,1.41.49,3-1,4.27-3.23,2.85-6.51,5.66-9.46,8.79a45.36,45.36,0,0,0-8.22,13c1.57-.2,2.79-.29,4-.51,11.18-2,19.58-8.13,25.75-17.45A39.91,39.91,0,0,0,95.7,37.73c-.24-2.16-1.13-3.12-3.31-3a73.4,73.4,0,0,0-9.58,1.12,3.18,3.18,0,0,1-.4,0,26.47,26.47,0,0,0-6.49,2.38Z"/><path class="cls-2" d="M100.09,69.8a3.17,3.17,0,0,0-2.41-2.32c-2.55-.43-4.19,1.76-3.14,4.38a37.12,37.12,0,0,1,1.73,22.5,45.56,45.56,0,0,1-51.94,35.3C28.2,127,16.56,117.86,9.8,103,5.54,93.55,4.41,83.78,8,73.76A109.44,109.44,0,0,1,16.8,55.17c8.07-13.83,17.62-26.62,27.66-39.06,2.32-2.87,4.7-5.69,7.34-8.87l24.12,31a26.47,26.47,0,0,1,6.49-2.38,2,2,0,0,1-2.08-1A397.82,397.82,0,0,0,54.43,1.73c-2-2.34-3.64-2.3-5.7.07Q35.92,16.5,24.59,32.39C17,43.12,9.82,54.13,4.61,66.27,2.11,72.09.05,78,0,84.49a51.24,51.24,0,0,0,2.79,16.92c8.23,24.21,33.84,39.12,58.83,33.77,19.6-4.2,32.74-16.12,39.2-35.12A42.12,42.12,0,0,0,100.09,69.8Z"/><path class="cls-1" d="M58.87,82.87c-1.64,0-3.69.36-5-1.93L51.7,86.7c-.12-.07-.23-.1-.28-.18a5.67,5.67,0,0,1-.45-.8,35.89,35.89,0,0,0-8.59-11.16c-7.29-6.4-15.71-9.93-25.51-9.81-2.1,0-3.21,1-3.3,3a27.14,27.14,0,0,0,.24,6.44c3.18,15.45,12.91,24.83,27.7,29.3a66.48,66.48,0,0,0,7.56,1.38,27.5,27.5,0,0,0,0,2.87c.34,3.2.66,6.42,1.16,9.61A2.82,2.82,0,0,0,53.85,120c1.69-.39,2.49-1.86,2.13-3.82a53.34,53.34,0,0,1-.46-19.59C56.38,92,57.71,87.53,58.87,82.87Z"/></g></g></svg>