<svg xmlns="http://www.w3.org/2000/svg" viewBox="0 0 136.47 136.26"><defs><style>.cls-1{fill:#0856a1;}</style></defs><title>ንግድ </title><g id="Layer_2" data-name="Layer 2"><g id="Layer_1-2" data-name="Layer 1"><path class="cls-1" d="M136.2,77.66A18.75,18.75,0,0,0,115.26,61a18.18,18.18,0,0,0-11.12,5.27A17.37,17.37,0,0,0,98.48,78c-.28,5.67-.14,11.37-.17,17,0,1.85,0,3.69,0,5.53a2.22,2.22,0,0,0,2.43,2.45h33.08a2.33,2.33,0,0,0,2.62-2.64q0-3.81,0-7.61C136.4,87.7,136.64,82.65,136.2,77.66Z"/><path class="cls-1" d="M38.17,99.35c0-6.92.17-13.84-.05-20.76-.26-8.37-4.47-14.3-12.18-17.51a17.47,17.47,0,0,0-13.7,0C5.14,64,.93,69.36.18,77.1c-.29,3-.14,6-.15,9,0,4.53,0,9.07,0,13.6a2.14,2.14,0,0,0,2.31,2.22H35.56C37.31,101.89,38.16,101.09,38.17,99.35Z"/><path class="cls-1" d="M46.26,74.28A22.58,22.58,0,1,0,69.1,51.79,22.46,22.46,0,0,0,46.26,74.28ZM76.14,64.21c-.66,1.74-1.25,3.29-1.89,5a10.49,10.49,0,0,0-2.08-1.06,14.64,14.64,0,0,0-3.58-.54,1.82,1.82,0,0,0-1.38,1.09A1.88,1.88,0,0,0,68,70.22c1.38.82,2.9,1.4,4.32,2.15,4,2.12,5.4,6.53,3.16,10.22A6.84,6.84,0,0,1,72,85.47a1,1,0,0,0-.78,1.19c.06.91,0,1.83,0,2.84H66.3c0-.88,0-1.75,0-2.62,0-.6-.18-.79-.79-1a32.48,32.48,0,0,1-4.09-1.72,1.08,1.08,0,0,1-.33-1c.43-1.39,1-2.74,1.52-4.28l1.37.9a7.3,7.3,0,0,0,4.46,1.26,2.12,2.12,0,0,0,2.24-1.45,2,2,0,0,0-1.23-2.35c-1-.56-2.15-1-3.24-1.48-3.46-1.57-5-3.94-4.72-7.23a6,6,0,0,1,3.79-5.22,1.71,1.71,0,0,0,1.24-2.06,18,18,0,0,1,0-2.09h4.84v3.09Z"/><path class="cls-1" d="M112.37,106.33c-1.39-.11-2.21.78-3,1.78a63.12,63.12,0,0,1-24,18.8,39.86,39.86,0,0,1-25.11,2.61,53.3,53.3,0,0,1-20.72-10.14c-.77-.59-1.53-1.2-2.73-2.15,1.58-1.35,2.95-2.52,4.49-3.82l-17-4.4c1.58,5.7,3.1,11.2,4.68,16.92,1.45-1.5,2.72-2.83,4-4.22,1.42,1.1,2.68,2.11,4,3.06,8.21,6,17.15,10.29,27.44,11.28a46,46,0,0,0,20-2.54A62.64,62.64,0,0,0,107.27,119a96.49,96.49,0,0,0,7.18-7.94A2.88,2.88,0,0,0,112.37,106.33Z"/><path class="cls-1" d="M19.1,56A10.85,10.85,0,1,0,8.24,45.06,10.76,10.76,0,0,0,19.1,56Z"/><path class="cls-1" d="M106.5,45.8A10.87,10.87,0,0,0,117.21,57a10.88,10.88,0,1,0,.21-21.75A11,11,0,0,0,106.5,45.8Z"/><path class="cls-1" d="M23,29.33a3.05,3.05,0,0,0,4.2-.61c2.22-2.5,4.36-5.08,6.77-7.39,6.71-6.42,14.34-11.41,23.38-14a2.86,2.86,0,0,0,.75-.53,3.93,3.93,0,0,0,1.08,0,39.79,39.79,0,0,1,14.3-.68,48.42,48.42,0,0,1,20.62,8.29c2,1.32,3.81,2.78,6,4.36l-4.49,4,17.16,4.43c-1.58-5.72-3.09-11.21-4.63-16.77-1.21,1.18-2.36,2.24-3.44,3.39-.54.58-.86.53-1.5.08-3.61-2.53-7.12-5.26-10.94-7.42C80.41-.13,67.88-1.83,54.74,2.05a3.25,3.25,0,0,0-.85.57,4.22,4.22,0,0,0-1.07.07C40.5,7.14,30.7,15,22.61,25.13A2.87,2.87,0,0,0,23,29.33Z"/></g></g></svg>