<svg xmlns="http://www.w3.org/2000/svg" viewBox="0 0 149.51 136.27"><defs><style>.cls-1{fill:#0856a1;}</style></defs><title>Asset 4</title><g id="Layer_2" data-name="Layer 2"><g id="Layer_1-2" data-name="Layer 1"><path class="cls-1" d="M51.77,19.32V22.1c2.85.38,4.81,1.43,7.44,3.22l-3.12,4.25c-2.56-1.72-4.84-2.63-7.19-2.63-1.65,0-4.46.74-4.46,2.52s4.84,2.85,7,3.16c3.4.63,8.84,1.69,8.84,7.86,0,4.85-3.4,7.48-8.53,7.9v2.81H46.23V48.1C43,47.57,41,46.17,38.55,44.48l3-4.35c2.71,1.83,5.58,3.34,8.49,3.34s4.71-1.58,4.71-3c0-1.79-2.74-2.35-5.69-2.91C45.84,37,38.9,35.82,38.9,29.68c0-4.88,3.54-6.88,7.33-7.51V19.32Z"/><path class="cls-1" d="M49.42,0A35.26,35.26,0,1,0,84.68,35.26,35.25,35.25,0,0,0,49.42,0Zm0,61.41A26.16,26.16,0,1,1,75.58,35.26,26.15,26.15,0,0,1,49.42,61.41Z"/><rect class="cls-1" x="41.03" y="94.6" width="10.38" height="27.37"/><rect class="cls-1" x="58.94" y="77.37" width="10.38" height="44.61"/><rect class="cls-1" x="76.85" y="60.96" width="10.38" height="61.02"/><rect class="cls-1" x="94.76" y="48.64" width="10.38" height="73.33"/><rect class="cls-1" x="112.67" y="38.16" width="10.38" height="83.81"/><rect class="cls-1" x="130.59" y="29.1" width="10.38" height="92.88"/><polygon class="cls-1" points="23.12 121.97 33.5 121.97 33.5 108.29 28.41 108.29 23.12 120.95 23.12 121.97"/><path class="cls-1" d="M149.51,123.7H22l-2.93,7a9.42,9.42,0,0,1-1.26,2.13H149.51Z"/><path class="cls-1" d="M42.78,62.08,31.59,57.41,25.54,71.9a9.36,9.36,0,0,1-2.31,3.29l-1.69,1.55a12.08,12.08,0,0,0-3,4.26L.7,123.8a9,9,0,0,0,4.84,11.77h0a9,9,0,0,0,10.51-2.71,9.42,9.42,0,0,0,1.26-2.13l2.94-7L21.39,121l5.29-12.67,8.54-20.46a12.25,12.25,0,0,0,.92-5.25l-.1-2a9.43,9.43,0,0,1,.72-4.06Z"/></g></g></svg>